<svg xmlns="http://www.w3.org/2000/svg" version="1.1" xmlns:xlink="http://www.w3.org/1999/xlink" width="1000" height="1000"><style>
    #light-icon {
      display: inline;
    }
    #dark-icon {
      display: none;
    }

    @media (prefers-color-scheme: dark) {
      #light-icon {
        display: none;
      }
      #dark-icon {
        display: inline;
      }
    }
  </style><g id="light-icon"><svg xmlns="http://www.w3.org/2000/svg" version="1.1" xmlns:xlink="http://www.w3.org/1999/xlink" width="1000" height="1000"><g clip-path="url(#SvgjsClipPath1952)"><rect width="1000" height="1000" fill="#ffffff"></rect><g transform="matrix(1,0,0,1,0,0)"><svg xmlns="http://www.w3.org/2000/svg" version="1.1" xmlns:xlink="http://www.w3.org/1999/xlink" width="1000" height="1000"><svg xmlns="http://www.w3.org/2000/svg" viewBox="-128.098 -257.982 1000 1000">
  <path d="M 281.659 2.728 L 359.468 2.728 C 359.743 2.728 359.966 2.951 359.966 3.226 C 396.649 -52.132 610.808 55.583 522.948 188.172 C 536.471 204.701 391.948 258.179 367.805 228.671 L 359.966 304.351 C 359.966 304.626 361.676 308.141 361.401 308.141 L 282.563 312.68 C 282.288 315.262 281.161 307.553 281.161 307.278 L 281.161 3.226 C 281.161 2.951 281.384 2.728 281.659 2.728 Z" style="stroke: none; paint-order: fill; fill: rgb(244, 195, 31);"></path>
  <g transform="matrix(0.1, 0, 0, -0.1, -4750.9318985, -4935.86189735)" fill="#000000" stroke="none" style="transform-origin: 5119.94px 5167.72px;">
    <path d="M 4771.9 9152.39 C 4515.9 9124.39 4396.9 9103.39 4147.9 9039.39 C 4003.9 9003.39 3760.9 8926.39 3686.9 8894.39 C 3670.9 8887.39 3625.9 8869.39 3586.9 8853.39 C 3472.9 8807.39 3186.9 8658.39 3051.9 8574.39 C 2790.9 8412.39 2655.9 8309.39 2410.9 8087.39 C 2256.9 7947.39 2084.9 7757.39 1947.9 7574.39 C 1882.9 7488.39 1754.9 7300.39 1719.9 7239.39 C 1695.9 7197.39 1684.9 7177.39 1633.9 7087.39 C 1564.9 6965.39 1495.9 6817.39 1436.9 6669.39 C 1416.9 6617.39 1393.9 6561.39 1386.9 6544.39 C 1334.9 6420.39 1253.9 6116.39 1211.9 5889.39 C 1161.9 5615.39 1148.9 5435.39 1154.9 5074.39 C 1157.9 4898.39 1162.9 4743.39 1165.9 4729.39 C 1169.9 4715.39 1176.9 4673.39 1181.9 4634.39 C 1187.9 4596.39 1195.9 4539.39 1200.9 4509.39 C 1205.9 4479.39 1214.9 4423.39 1220.9 4385.39 C 1226.9 4348.39 1233.9 4313.39 1236.9 4310.39 C 1238.9 4306.39 1243.9 4288.39 1246.9 4270.39 C 1251.9 4242.39 1258.9 4212.39 1291.9 4094.39 C 1296.9 4078.39 1306.9 4037.39 1315.9 4004.39 C 1330.9 3948.39 1341.9 3914.39 1361.9 3864.39 C 1365.9 3853.39 1390.9 3788.39 1417.9 3719.39 C 1477.9 3562.39 1630.9 3257.39 1716.9 3120.39 C 1752.9 3063.39 1781.9 3013.39 1781.9 3008.39 C 1781.9 3003.39 1786.9 2999.39 1791.9 2999.39 C 1797.9 2999.39 1801.9 2994.39 1801.9 2989.39 C 1801.9 2974.39 1889.9 2854.39 2020.9 2689.39 C 2216.9 2444.39 2472.9 2194.39 2726.9 1998.38 C 2759.9 1973.38 2822.9 1928.38 2866.9 1899.38 C 2910.9 1870.38 2948.9 1842.38 2949.9 1837.38 C 2951.9 1833.38 2956.9 1829.38 2961.9 1829.38 C 2965.9 1829.38 3012.9 1802.38 3064.9 1769.38 C 3117.9 1736.38 3164.9 1709.38 3170.9 1709.38 C 3175.9 1709.38 3181.9 1706.38 3183.9 1702.38 C 3184.9 1697.38 3209.9 1683.38 3236.9 1669.38 C 3264.9 1656.38 3308.9 1632.38 3334.9 1617.38 C 3360.9 1601.38 3388.9 1589.38 3396.9 1589.38 C 3404.9 1589.38 3411.9 1585.38 3411.9 1579.38 C 3411.9 1574.38 3417.9 1569.38 3424.9 1569.38 C 3430.9 1569.38 3472.9 1552.38 3516.9 1530.38 C 3560.9 1509.38 3607.9 1488.38 3621.9 1484.38 C 3635.9 1480.38 3660.9 1471.38 3676.9 1464.38 C 3708.9 1450.38 3743.9 1438.38 3751.9 1437.38 C 3757.9 1437.38 3829.9 1410.38 3856.9 1398.38 C 3886.9 1385.38 4078.9 1330.38 4186.9 1303.38 C 4269.9 1282.38 4327.9 1269.38 4386.9 1260.38 C 4414.9 1255.38 4477.9 1244.38 4526.9 1236.38 C 4762.9 1195.38 5188.9 1177.38 5431.9 1198.38 C 5629.9 1216.38 5870.9 1248.38 5920.9 1265.38 C 5945.9 1273.38 5979.9 1279.38 5997.9 1279.38 C 6015.9 1279.38 6033.9 1283.38 6036.9 1289.38 C 6039.9 1294.38 6054.9 1299.38 6068.9 1299.38 C 6083.9 1299.38 6108.9 1303.38 6125.9 1309.38 C 6142.9 1314.38 6210.9 1334.38 6276.9 1354.38 C 6428.9 1400.38 6616.9 1468.38 6751.9 1526.38 C 6878.9 1581.38 7055.9 1670.38 7059.9 1681.38 C 7061.9 1685.38 7068.9 1689.38 7075.9 1689.38 C 7089.9 1689.38 7311.9 1826.38 7409.9 1895.38 C 7489.9 1952.38 7671.9 2088.39 7687.9 2103.39 C 7693.9 2109.39 7725.9 2137.39 7757.9 2164.39 C 7833.9 2229.39 8064.9 2457.39 8131.9 2534.39 C 8160.9 2567.39 8196.9 2608.39 8211.9 2625.39 C 8243.9 2661.39 8376.9 2833.39 8411.9 2884.39 C 8425.9 2904.39 8442.9 2926.39 8449.9 2934.39 C 8455.9 2941.39 8461.9 2952.39 8461.9 2957.39 C 8461.9 2963.39 8465.9 2969.39 8470.9 2971.39 C 8481.9 2975.39 8639.9 3235.39 8666.9 3294.39 C 8677.9 3316.39 8688.9 3336.39 8691.9 3339.39 C 8709.9 3352.39 8891.9 3767.39 8891.9 3792.39 C 8891.9 3799.39 8895.9 3809.39 8899.9 3815.39 C 8904.9 3820.39 8918.9 3858.39 8931.9 3899.39 C 8943.9 3940.39 8959.9 3992.39 8967.9 4015.39 C 9034.9 4227.39 9089.9 4507.39 9121.9 4804.39 C 9136.9 4939.39 9129.9 5516.39 9112.9 5639.39 C 9086.9 5825.39 9078.9 5869.39 9049.9 6004.39 C 8923.9 6593.39 8680.9 7120.39 8312.9 7604.39 C 8270.9 7659.39 8232.9 7709.39 8226.9 7715.39 C 7859.9 8129.39 7598.9 8351.39 7187.9 8601.39 C 6984.9 8725.39 6529.9 8939.39 6469.9 8939.39 C 6461.9 8939.39 6451.9 8943.39 6446.9 8947.39 C 6437.9 8955.39 6325.9 8992.39 6256.9 9010.39 C 6240.9 9014.39 6190.9 9027.39 6146.9 9039.39 C 5975.9 9085.39 5775.9 9122.39 5536.9 9151.39 C 5394.9 9168.39 4924.9 9169.39 4771.9 9152.39 Z M 5921.9 7306.39 C 6055.9 7270.39 6095.9 7255.39 6186.9 7211.39 C 6352.9 7130.39 6499.9 6996.39 6601.9 6834.39 C 6780.9 6550.39 6797.9 6138.39 6641.9 5826.39 C 6520.9 5585.39 6263.9 5384.39 5988.9 5315.39 C 5837.9 5277.39 5764.9 5271.39 5396.9 5264.39 C 5192.9 5260.39 5023.9 5255.39 5019.9 5252.39 C 5009.9 5247.39 5013.028 4570.132 5022.028 4403.132 L 4261.608 4356.21 L 5116.9 4409.39 C 5167.9 4409.39 5223.9 4412.39 5240.9 4415.39 L 5271.9 4421.39 L 5271.9 4714.39 L 5271.9 5006.39 L 5524.9 5012.39 C 5823.9 5019.39 5941.9 5036.39 6141.9 5101.39 C 6250.9 5136.39 6471.9 5246.39 6501.9 5279.39 C 6504.9 5282.39 6529.9 5301.39 6556.9 5321.39 C 6584.9 5341.39 6638.9 5391.39 6677.9 5431.39 C 6802.9 5559.39 6840.9 5617.39 6953.9 5851.39 C 6957.9 5861.39 6961.9 5877.39 6961.9 5887.39 C 6961.9 5897.39 6965.9 5909.39 6969.9 5914.39 C 6980.9 5928.39 6998.9 6007.39 7012.9 6109.39 C 7026.9 6210.39 7017.9 6446.39 6996.9 6533.39 C 6988.9 6566.39 6984.9 6596.39 6987.9 6601.39 C 6995.9 6614.39 7692.9 6611.39 7732.9 6598.39 C 7774.9 6584.39 7825.9 6537.39 7846.9 6493.39 C 7854.9 6476.39 7861.9 6439.39 7861.9 6412.39 C 7861.9 6355.39 7830.9 6238.39 7651.9 5624.39 C 7606.9 5470.39 7565.9 5331.39 7561.9 5314.39 C 7556.9 5298.39 7516.9 5158.39 7472.9 5004.39 C 7427.9 4850.39 7374.9 4668.39 7355.9 4599.39 C 7335.9 4530.39 7309.9 4458.39 7296.9 4438.39 C 7258.9 4380.39 7214.9 4366.39 6981.9 4339.39 C 6876.9 4327.39 6652.9 4300.39 6406.9 4270.39 C 6093.9 4231.39 5975.9 4217.39 5896.9 4208.39 C 5852.9 4203.39 5780.9 4194.39 5736.9 4189.39 C 5692.9 4184.39 5609.9 4175.39 5551.9 4169.39 C 5493.9 4163.39 5439.9 4156.39 5431.9 4154.39 C 5423.9 4152.39 5371.9 4145.39 5316.9 4139.39 C 5261.9 4133.39 5185.9 4124.39 5146.9 4119.39 C 5108.9 4114.39 5015.9 4103.39 4941.9 4094.39 C 4683.9 4065.39 4625.9 4059.39 4426.9 4035.39 C 4316.9 4022.39 4174.9 4006.39 4111.9 3999.39 C 3922.9 3980.39 3861.9 3956.39 3825.9 3887.39 C 3786.9 3812.39 3835.9 3708.39 3917.9 3693.39 C 3934.9 3690.39 4641.9 3687.39 5487.9 3686.39 C 6901.9 3684.39 7029.9 3683.39 7061.9 3667.39 C 7189.9 3606.39 7207.9 3438.39 7095.9 3353.39 L 7058.9 3324.39 L 5482.9 3321.39 C 3726.9 3318.39 3850.9 3313.39 3709.9 3387.39 C 3593.9 3446.39 3503.9 3553.39 3466.9 3676.39 C 3446.9 3743.39 3447.9 3897.39 3468.9 3961.39 C 3490.9 4029.39 3524.9 4092.39 3566.9 4144.39 L 3601.9 4186.39 L 3565.9 4310.39 C 3546.9 4378.39 3526.9 4448.39 3521.9 4464.39 C 3516.9 4481.39 3492.9 4566.39 3466.9 4654.39 C 3419.9 4818.39 3389.9 4925.39 3366.9 5014.39 C 3350.9 5075.39 3253.9 5409.39 3216.9 5534.39 C 3201.9 5584.39 3185.9 5641.39 3180.9 5662.39 C 3175.9 5682.39 3139.9 5808.39 3100.9 5942.39 C 3061.9 6075.39 3025.9 6200.39 3021.9 6219.39 C 3017.9 6238.39 3004.9 6286.39 2992.9 6324.39 C 2980.9 6363.39 2939.9 6504.39 2900.9 6639.39 C 2861.9 6774.39 2825.9 6890.39 2819.9 6896.39 C 2800.9 6920.39 2736.9 6927.39 2576.9 6925.39 C 2488.9 6923.39 2362.9 6925.39 2295.9 6928.39 C 2190.9 6933.39 2170.9 6937.39 2140.9 6958.39 C 2037.9 7028.39 2024.9 7164.39 2112.9 7243.39 C 2133.9 7262.39 2165.9 7281.39 2183.9 7284.39 C 2201.9 7287.39 2369.9 7289.39 2556.9 7287.39 L 2896.9 7284.39 L 2952.9 7256.39 C 3022.9 7222.39 3096.9 7158.39 3133.9 7099.39 C 3149.9 7075.39 3177.9 7005.39 3195.9 6944.39 C 3214.9 6884.39 3245.9 6785.39 3263.9 6724.39 L 3297.9 6614.39 L 3636.9 6611.39 C 3823.9 6610.39 3979.9 6605.39 3983.9 6601.39 C 3988.9 6596.39 3991.9 6085.39 3991.9 5464.39 L 3991.9 4336.39 L 4113.9 4343.39 C 4181.9 4347.39 4246.9 4353.39 4259.9 4356.39 L 4281.9 4361.39 L 4281.9 5851.39 L 4281.9 7340.39 L 5054.9 7336.39 L 5826.9 7333.39 L 5921.9 7306.39 Z M 4402.9 3170.39 C 4513.9 3133.39 4601.9 3055.39 4648.9 2954.39 C 4683.9 2877.39 4692.9 2738.39 4667.9 2662.39 C 4616.9 2508.39 4476.9 2399.39 4307.9 2382.39 C 4155.9 2366.39 3990.9 2461.39 3919.9 2606.39 C 3862.9 2722.39 3870.9 2880.39 3938.9 2996.39 C 3983.9 3074.39 4098.9 3159.39 4185.9 3180.39 C 4244.9 3194.39 4345.9 3189.39 4402.9 3170.39 Z M 6684.9 3156.39 C 6764.9 3120.39 6851.9 3034.39 6887.9 2956.39 C 6913.9 2900.39 6916.9 2884.39 6916.9 2784.39 C 6916.9 2685.39 6913.9 2668.39 6889.9 2616.39 C 6856.9 2546.39 6777.9 2461.39 6718.9 2431.39 C 6694.9 2419.39 6641.9 2402.39 6601.9 2393.39 C 6474.9 2364.39 6347.9 2399.39 6247.9 2490.39 C 6181.9 2550.39 6142.9 2621.39 6126.9 2713.39 C 6091.9 2920.39 6205.9 3110.39 6404.9 3175.39 C 6473.9 3197.39 6613.9 3188.39 6684.9 3156.39 Z" style="fill: rgb(7, 65, 135);"></path>
    <path d="M5002 6727 c-9 -11 -12 -113 -10 -428 l3 -414 310 0 c331 0 360 3
458 52 62 31 127 95 155 154 53 109 56 309 6 418 -48 108 -147 180 -294 213
-25 5 -173 12 -330 15 -244 4 -288 3 -298 -10z" style="fill: rgb(7, 65, 135);"></path>
  </g>
  <g transform="matrix(0.1, 0, 0, -0.1, 627.678711, 458.430176)" fill="#000000" stroke="none"></g>
</svg></svg></g></g><defs><clipPath id="SvgjsClipPath1952"><rect width="1000" height="1000" x="0" y="0" rx="500" ry="500"></rect></clipPath></defs></svg></g><g id="dark-icon"><svg xmlns="http://www.w3.org/2000/svg" version="1.1" xmlns:xlink="http://www.w3.org/1999/xlink" width="1000" height="1000"><g clip-path="url(#SvgjsClipPath1953)"><rect width="1000" height="1000" fill="#ffffff"></rect><g transform="matrix(1.1292346298619824,0,0,1.1292346298619824,50,50)"><svg xmlns="http://www.w3.org/2000/svg" version="1.1" xmlns:xlink="http://www.w3.org/1999/xlink" width="797.659px" height="797.509px"><svg xmlns="http://www.w3.org/2000/svg" viewBox="-27.6358 -167.8357 797.6586 797.5093" width="797.659px" height="797.509px">
  <path d="M 281.659 2.728 L 359.468 2.728 C 359.743 2.728 359.966 2.951 359.966 3.226 C 396.649 -52.132 610.808 55.583 522.948 188.172 C 536.471 204.701 391.948 258.179 367.805 228.671 L 359.966 304.351 C 359.966 304.626 361.676 308.141 361.401 308.141 L 282.563 312.68 C 282.288 315.262 281.161 307.553 281.161 307.278 L 281.161 3.226 C 281.161 2.951 281.384 2.728 281.659 2.728 Z" style="stroke: none; paint-order: fill; fill: rgb(244, 195, 31);"></path>
  <g transform="matrix(0.1, 0, 0, -0.1, -4750.93608246, -4935.86237342)" fill="#000000" stroke="none" style="transform-origin: 5119.94px 5167.72px;">
    <path d="M 4771.9 9152.39 C 4515.9 9124.39 4396.9 9103.39 4147.9 9039.39 C 4003.9 9003.39 3760.9 8926.39 3686.9 8894.39 C 3670.9 8887.39 3625.9 8869.39 3586.9 8853.39 C 3472.9 8807.39 3186.9 8658.39 3051.9 8574.39 C 2790.9 8412.39 2655.9 8309.39 2410.9 8087.39 C 2256.9 7947.39 2084.9 7757.39 1947.9 7574.39 C 1882.9 7488.39 1754.9 7300.39 1719.9 7239.39 C 1695.9 7197.39 1684.9 7177.39 1633.9 7087.39 C 1564.9 6965.39 1495.9 6817.39 1436.9 6669.39 C 1416.9 6617.39 1393.9 6561.39 1386.9 6544.39 C 1334.9 6420.39 1253.9 6116.39 1211.9 5889.39 C 1161.9 5615.39 1148.9 5435.39 1154.9 5074.39 C 1157.9 4898.39 1162.9 4743.39 1165.9 4729.39 C 1169.9 4715.39 1176.9 4673.39 1181.9 4634.39 C 1187.9 4596.39 1195.9 4539.39 1200.9 4509.39 C 1205.9 4479.39 1214.9 4423.39 1220.9 4385.39 C 1226.9 4348.39 1233.9 4313.39 1236.9 4310.39 C 1238.9 4306.39 1243.9 4288.39 1246.9 4270.39 C 1251.9 4242.39 1258.9 4212.39 1291.9 4094.39 C 1296.9 4078.39 1306.9 4037.39 1315.9 4004.39 C 1330.9 3948.39 1341.9 3914.39 1361.9 3864.39 C 1365.9 3853.39 1390.9 3788.39 1417.9 3719.39 C 1477.9 3562.39 1630.9 3257.39 1716.9 3120.39 C 1752.9 3063.39 1781.9 3013.39 1781.9 3008.39 C 1781.9 3003.39 1786.9 2999.39 1791.9 2999.39 C 1797.9 2999.39 1801.9 2994.39 1801.9 2989.39 C 1801.9 2974.39 1889.9 2854.39 2020.9 2689.39 C 2216.9 2444.39 2472.9 2194.39 2726.9 1998.38 C 2759.9 1973.38 2822.9 1928.38 2866.9 1899.38 C 2910.9 1870.38 2948.9 1842.38 2949.9 1837.38 C 2951.9 1833.38 2956.9 1829.38 2961.9 1829.38 C 2965.9 1829.38 3012.9 1802.38 3064.9 1769.38 C 3117.9 1736.38 3164.9 1709.38 3170.9 1709.38 C 3175.9 1709.38 3181.9 1706.38 3183.9 1702.38 C 3184.9 1697.38 3209.9 1683.38 3236.9 1669.38 C 3264.9 1656.38 3308.9 1632.38 3334.9 1617.38 C 3360.9 1601.38 3388.9 1589.38 3396.9 1589.38 C 3404.9 1589.38 3411.9 1585.38 3411.9 1579.38 C 3411.9 1574.38 3417.9 1569.38 3424.9 1569.38 C 3430.9 1569.38 3472.9 1552.38 3516.9 1530.38 C 3560.9 1509.38 3607.9 1488.38 3621.9 1484.38 C 3635.9 1480.38 3660.9 1471.38 3676.9 1464.38 C 3708.9 1450.38 3743.9 1438.38 3751.9 1437.38 C 3757.9 1437.38 3829.9 1410.38 3856.9 1398.38 C 3886.9 1385.38 4078.9 1330.38 4186.9 1303.38 C 4269.9 1282.38 4327.9 1269.38 4386.9 1260.38 C 4414.9 1255.38 4477.9 1244.38 4526.9 1236.38 C 4762.9 1195.38 5188.9 1177.38 5431.9 1198.38 C 5629.9 1216.38 5870.9 1248.38 5920.9 1265.38 C 5945.9 1273.38 5979.9 1279.38 5997.9 1279.38 C 6015.9 1279.38 6033.9 1283.38 6036.9 1289.38 C 6039.9 1294.38 6054.9 1299.38 6068.9 1299.38 C 6083.9 1299.38 6108.9 1303.38 6125.9 1309.38 C 6142.9 1314.38 6210.9 1334.38 6276.9 1354.38 C 6428.9 1400.38 6616.9 1468.38 6751.9 1526.38 C 6878.9 1581.38 7055.9 1670.38 7059.9 1681.38 C 7061.9 1685.38 7068.9 1689.38 7075.9 1689.38 C 7089.9 1689.38 7311.9 1826.38 7409.9 1895.38 C 7489.9 1952.38 7671.9 2088.39 7687.9 2103.39 C 7693.9 2109.39 7725.9 2137.39 7757.9 2164.39 C 7833.9 2229.39 8064.9 2457.39 8131.9 2534.39 C 8160.9 2567.39 8196.9 2608.39 8211.9 2625.39 C 8243.9 2661.39 8376.9 2833.39 8411.9 2884.39 C 8425.9 2904.39 8442.9 2926.39 8449.9 2934.39 C 8455.9 2941.39 8461.9 2952.39 8461.9 2957.39 C 8461.9 2963.39 8465.9 2969.39 8470.9 2971.39 C 8481.9 2975.39 8639.9 3235.39 8666.9 3294.39 C 8677.9 3316.39 8688.9 3336.39 8691.9 3339.39 C 8709.9 3352.39 8891.9 3767.39 8891.9 3792.39 C 8891.9 3799.39 8895.9 3809.39 8899.9 3815.39 C 8904.9 3820.39 8918.9 3858.39 8931.9 3899.39 C 8943.9 3940.39 8959.9 3992.39 8967.9 4015.39 C 9034.9 4227.39 9089.9 4507.39 9121.9 4804.39 C 9136.9 4939.39 9129.9 5516.39 9112.9 5639.39 C 9086.9 5825.39 9078.9 5869.39 9049.9 6004.39 C 8923.9 6593.39 8680.9 7120.39 8312.9 7604.39 C 8270.9 7659.39 8232.9 7709.39 8226.9 7715.39 C 7859.9 8129.39 7598.9 8351.39 7187.9 8601.39 C 6984.9 8725.39 6529.9 8939.39 6469.9 8939.39 C 6461.9 8939.39 6451.9 8943.39 6446.9 8947.39 C 6437.9 8955.39 6325.9 8992.39 6256.9 9010.39 C 6240.9 9014.39 6190.9 9027.39 6146.9 9039.39 C 5975.9 9085.39 5775.9 9122.39 5536.9 9151.39 C 5394.9 9168.39 4924.9 9169.39 4771.9 9152.39 Z M 5921.9 7306.39 C 6055.9 7270.39 6095.9 7255.39 6186.9 7211.39 C 6352.9 7130.39 6499.9 6996.39 6601.9 6834.39 C 6780.9 6550.39 6797.9 6138.39 6641.9 5826.39 C 6520.9 5585.39 6263.9 5384.39 5988.9 5315.39 C 5837.9 5277.39 5764.9 5271.39 5396.9 5264.39 C 5192.9 5260.39 5023.9 5255.39 5019.9 5252.39 C 5009.9 5247.39 5013.028 4570.132 5022.028 4403.132 L 4261.608 4356.21 L 5116.9 4409.39 C 5167.9 4409.39 5223.9 4412.39 5240.9 4415.39 L 5271.9 4421.39 L 5271.9 4714.39 L 5271.9 5006.39 L 5524.9 5012.39 C 5823.9 5019.39 5941.9 5036.39 6141.9 5101.39 C 6250.9 5136.39 6471.9 5246.39 6501.9 5279.39 C 6504.9 5282.39 6529.9 5301.39 6556.9 5321.39 C 6584.9 5341.39 6638.9 5391.39 6677.9 5431.39 C 6802.9 5559.39 6840.9 5617.39 6953.9 5851.39 C 6957.9 5861.39 6961.9 5877.39 6961.9 5887.39 C 6961.9 5897.39 6965.9 5909.39 6969.9 5914.39 C 6980.9 5928.39 6998.9 6007.39 7012.9 6109.39 C 7026.9 6210.39 7017.9 6446.39 6996.9 6533.39 C 6988.9 6566.39 6984.9 6596.39 6987.9 6601.39 C 6995.9 6614.39 7692.9 6611.39 7732.9 6598.39 C 7774.9 6584.39 7825.9 6537.39 7846.9 6493.39 C 7854.9 6476.39 7861.9 6439.39 7861.9 6412.39 C 7861.9 6355.39 7830.9 6238.39 7651.9 5624.39 C 7606.9 5470.39 7565.9 5331.39 7561.9 5314.39 C 7556.9 5298.39 7516.9 5158.39 7472.9 5004.39 C 7427.9 4850.39 7374.9 4668.39 7355.9 4599.39 C 7335.9 4530.39 7309.9 4458.39 7296.9 4438.39 C 7258.9 4380.39 7214.9 4366.39 6981.9 4339.39 C 6876.9 4327.39 6652.9 4300.39 6406.9 4270.39 C 6093.9 4231.39 5975.9 4217.39 5896.9 4208.39 C 5852.9 4203.39 5780.9 4194.39 5736.9 4189.39 C 5692.9 4184.39 5609.9 4175.39 5551.9 4169.39 C 5493.9 4163.39 5439.9 4156.39 5431.9 4154.39 C 5423.9 4152.39 5371.9 4145.39 5316.9 4139.39 C 5261.9 4133.39 5185.9 4124.39 5146.9 4119.39 C 5108.9 4114.39 5015.9 4103.39 4941.9 4094.39 C 4683.9 4065.39 4625.9 4059.39 4426.9 4035.39 C 4316.9 4022.39 4174.9 4006.39 4111.9 3999.39 C 3922.9 3980.39 3861.9 3956.39 3825.9 3887.39 C 3786.9 3812.39 3835.9 3708.39 3917.9 3693.39 C 3934.9 3690.39 4641.9 3687.39 5487.9 3686.39 C 6901.9 3684.39 7029.9 3683.39 7061.9 3667.39 C 7189.9 3606.39 7207.9 3438.39 7095.9 3353.39 L 7058.9 3324.39 L 5482.9 3321.39 C 3726.9 3318.39 3850.9 3313.39 3709.9 3387.39 C 3593.9 3446.39 3503.9 3553.39 3466.9 3676.39 C 3446.9 3743.39 3447.9 3897.39 3468.9 3961.39 C 3490.9 4029.39 3524.9 4092.39 3566.9 4144.39 L 3601.9 4186.39 L 3565.9 4310.39 C 3546.9 4378.39 3526.9 4448.39 3521.9 4464.39 C 3516.9 4481.39 3492.9 4566.39 3466.9 4654.39 C 3419.9 4818.39 3389.9 4925.39 3366.9 5014.39 C 3350.9 5075.39 3253.9 5409.39 3216.9 5534.39 C 3201.9 5584.39 3185.9 5641.39 3180.9 5662.39 C 3175.9 5682.39 3139.9 5808.39 3100.9 5942.39 C 3061.9 6075.39 3025.9 6200.39 3021.9 6219.39 C 3017.9 6238.39 3004.9 6286.39 2992.9 6324.39 C 2980.9 6363.39 2939.9 6504.39 2900.9 6639.39 C 2861.9 6774.39 2825.9 6890.39 2819.9 6896.39 C 2800.9 6920.39 2736.9 6927.39 2576.9 6925.39 C 2488.9 6923.39 2362.9 6925.39 2295.9 6928.39 C 2190.9 6933.39 2170.9 6937.39 2140.9 6958.39 C 2037.9 7028.39 2024.9 7164.39 2112.9 7243.39 C 2133.9 7262.39 2165.9 7281.39 2183.9 7284.39 C 2201.9 7287.39 2369.9 7289.39 2556.9 7287.39 L 2896.9 7284.39 L 2952.9 7256.39 C 3022.9 7222.39 3096.9 7158.39 3133.9 7099.39 C 3149.9 7075.39 3177.9 7005.39 3195.9 6944.39 C 3214.9 6884.39 3245.9 6785.39 3263.9 6724.39 L 3297.9 6614.39 L 3636.9 6611.39 C 3823.9 6610.39 3979.9 6605.39 3983.9 6601.39 C 3988.9 6596.39 3991.9 6085.39 3991.9 5464.39 L 3991.9 4336.39 L 4113.9 4343.39 C 4181.9 4347.39 4246.9 4353.39 4259.9 4356.39 L 4281.9 4361.39 L 4281.9 5851.39 L 4281.9 7340.39 L 5054.9 7336.39 L 5826.9 7333.39 L 5921.9 7306.39 Z M 4402.9 3170.39 C 4513.9 3133.39 4601.9 3055.39 4648.9 2954.39 C 4683.9 2877.39 4692.9 2738.39 4667.9 2662.39 C 4616.9 2508.39 4476.9 2399.39 4307.9 2382.39 C 4155.9 2366.39 3990.9 2461.39 3919.9 2606.39 C 3862.9 2722.39 3870.9 2880.39 3938.9 2996.39 C 3983.9 3074.39 4098.9 3159.39 4185.9 3180.39 C 4244.9 3194.39 4345.9 3189.39 4402.9 3170.39 Z M 6684.9 3156.39 C 6764.9 3120.39 6851.9 3034.39 6887.9 2956.39 C 6913.9 2900.39 6916.9 2884.39 6916.9 2784.39 C 6916.9 2685.39 6913.9 2668.39 6889.9 2616.39 C 6856.9 2546.39 6777.9 2461.39 6718.9 2431.39 C 6694.9 2419.39 6641.9 2402.39 6601.9 2393.39 C 6474.9 2364.39 6347.9 2399.39 6247.9 2490.39 C 6181.9 2550.39 6142.9 2621.39 6126.9 2713.39 C 6091.9 2920.39 6205.9 3110.39 6404.9 3175.39 C 6473.9 3197.39 6613.9 3188.39 6684.9 3156.39 Z" style=""></path>
    <path d="M5002 6727 c-9 -11 -12 -113 -10 -428 l3 -414 310 0 c331 0 360 3 458 52 62 31 127 95 155 154 53 109 56 309 6 418 -48 108 -147 180 -294 213 -25 5 -173 12 -330 15 -244 4 -288 3 -298 -10z" style=""></path>
  </g>
  <g transform="matrix(0.10000000149011612, 0, 0, -0.10000000149011612, 627.6787109374998, 458.43017578125)" fill="#000000" stroke="none"></g>
</svg></svg></g></g><defs><clipPath id="SvgjsClipPath1953"><rect width="1000" height="1000" x="0" y="0" rx="500" ry="500"></rect></clipPath></defs></svg></g></svg>