<?xml version='1.0' encoding='UTF-8' standalone='no'?>
<svg baseProfile="tiny" width="2774" height="627" xmlns="http://www.w3.org/2000/svg"
    xmlns:cc="http://creativecommons.org/ns#" viewBox="564 1408 2774 627"
    xmlns:inkscape="http://www.inkscape.org/namespaces/inkscape" version="1.2"
    xmlns:xlink="http://www.w3.org/1999/xlink">
    <defs />
    <g fill="none" stroke-width="1" stroke="black" fill-rule="evenodd" stroke-linejoin="bevel" stroke-linecap="square"
        id="Страница" inkscape:label="Страница" inkscape:groupmode="layer">
        <g fill="none" stroke-width="1" stroke="#000000" stroke-linejoin="bevel" stroke-linecap="square"
            font-style="normal" font-weight="400" font-size="34.5833" stroke-opacity="1" transform="matrix(1,0,0,1,0,0)"
            font-family="MS Shell Dlg 2" />
        <g fill="none" stroke-width="1" stroke="#000000" stroke-linejoin="bevel" stroke-linecap="square"
            font-style="normal" font-weight="400" font-size="34.5833" stroke-opacity="1" transform="matrix(1,0,0,1,0,0)"
            font-family="MS Shell Dlg 2" />
        <g fill="none" stroke-width="1" stroke="#000000" stroke-linejoin="bevel" stroke-linecap="square"
            font-style="normal" font-weight="400" font-size="34.5833" stroke-opacity="1"
            transform="matrix(11.8081,0,0,11.8081,0,0)" font-family="MS Shell Dlg 2" />
        <g fill="none" stroke-width="1" stroke="#000000" stroke-linejoin="bevel" stroke-linecap="square"
            font-style="normal" font-weight="400" font-size="34.5833" stroke-opacity="1"
            transform="matrix(11.8081,0,0,11.8081,0,0)" font-family="MS Shell Dlg 2" />
        <g fill="none" stroke-width="1" stroke="#000000" stroke-linejoin="bevel" stroke-linecap="square"
            font-style="normal" font-weight="400" font-size="34.5833" stroke-opacity="1" transform="matrix(1,0,0,1,0,0)"
            font-family="MS Shell Dlg 2" />
    </g>
    <defs />
    <g fill="none" stroke-width="1" stroke="black" fill-rule="evenodd" stroke-linejoin="bevel" stroke-linecap="square"
        id="Карта 1: building" inkscape:label="Карта 1: building" inkscape:groupmode="layer">
        <g fill="none" stroke-width="1" stroke="#000000" stroke-linejoin="bevel" stroke-linecap="square"
            font-style="normal" font-weight="400" font-size="34.5833" stroke-opacity="1" transform="matrix(1,0,0,1,0,0)"
            font-family="MS Shell Dlg 2" />
        <g fill="none" stroke-width="1" stroke="#000000" stroke-linejoin="bevel" stroke-linecap="square"
            font-style="normal" font-weight="400" font-size="34.5833" stroke-opacity="1" transform="matrix(1,0,0,1,0,0)"
            font-family="MS Shell Dlg 2" />
        <g fill="none" stroke-width="1" stroke="#000000" stroke-linejoin="bevel" stroke-linecap="square"
            font-style="normal" font-weight="400" font-size="34.5833" stroke-opacity="1"
            transform="matrix(11.8081,0,0,11.8081,1.21175e-14,0)" font-family="MS Shell Dlg 2" />
        <g fill="none" stroke-width="1" stroke="#000000" stroke-linejoin="bevel" stroke-linecap="square"
            font-style="normal" font-weight="400" font-size="34.5833" stroke-opacity="1"
            transform="matrix(11.8081,0,0,11.8081,1.21175e-14,0)" font-family="MS Shell Dlg 2" />
        <g fill="#000000" stroke="none" fill-opacity="0" font-style="normal" font-weight="400" font-size="34.5833"
            transform="matrix(0.999751,0,0,0.999751,1.21175e-14,0)" font-family="MS Shell Dlg 2">

        </g>
        <g fill="none" stroke-width="1" stroke="#000000" stroke-linejoin="bevel" stroke-linecap="square"
            font-style="normal" font-weight="400" font-size="34.5833" stroke-opacity="1"
            transform="matrix(0.999751,0,0,0.999751,1.21175e-14,0)" font-family="MS Shell Dlg 2" />
        <g fill="#f3a6b2" stroke-width="3.07087" stroke="#232323" stroke-linejoin="bevel" fill-opacity="1"
            stroke-linecap="square" font-style="normal" font-weight="400" font-size="34.5833" stroke-opacity="1"
            transform="matrix(0.999751,0,0,0.999751,1.21175e-14,0)" font-family="MS Shell Dlg 2">
            <path id="sector1" vector-effect="none" fill-rule="evenodd"
                d="M884.444,1616.57 L886.061,1548.9 L1000.09,1549.73 L998.9,1617.7 L884.444,1616.57" />
            <path id="sector2" vector-effect="none" fill-rule="evenodd"
                d="M662.164,1901.18 L656.374,1773.5 L687.093,1771.83 L691.518,1900.52 L662.164,1901.18" />
            <path id="sector3" vector-effect="none" fill-rule="evenodd"
                d="M660.953,1755.79 L647.934,1545.89 L808.917,1545.04 L810.533,1751.54 L660.953,1755.79" />
            <path vector-effect="none" fill-rule="evenodd"
                d="M794.482,1906.28 L794.789,1875.1 L1244.87,1875.63 L1245.32,1892.9 L1291.41,1894.18 L1292.06,1923.93 L1231.88,1923.61 L1232.55,1904.94 L794.482,1906.28" />
            <path vector-effect="none" fill-rule="evenodd"
                d="M771.856,1836.38 L771.343,1808.07 L1306.74,1810.21 L1309.13,1842.76 L771.856,1836.38" />
            <path vector-effect="none" fill-rule="evenodd"
                d="M1381.52,1904.77 L1381.4,1868.55 L2170.68,1873.09 L2170.61,1908.19 L1381.52,1904.77" />
            <path vector-effect="none" fill-rule="evenodd"
                d="M3194.36,1898.27 L3172.18,1838.41 L3196.5,1828.06 L3219.19,1888.69 L3194.36,1898.27" />
            <path vector-effect="none" fill-rule="evenodd"
                d="M3090.68,1829.25 L3088.61,1706.68 L3139.76,1703.91 L3147.3,1831.86 L3090.68,1829.25" />
            <path vector-effect="none" fill-rule="evenodd"
                d="M3081.98,1692.41 L3081.17,1597.82 L3134.78,1596.78 L3134.56,1693.74 L3081.98,1692.41" />
            <path vector-effect="none" fill-rule="evenodd"
                d="M3005.59,1685.82 L3005.51,1597.47 L3060.8,1599.19 L3061.1,1685.86 L3005.59,1685.82" />
            <path vector-effect="none" fill-rule="evenodd"
                d="M2868.03,1656.14 L2866.8,1601.77 L2991.12,1600.83 L2989.86,1659.78 L2868.03,1656.14" />
            <path vector-effect="none" fill-rule="evenodd"
                d="M2851.06,1658.68 L2853.14,1599.33 L2452.15,1601.34 L2453.11,1655.16 L2851.06,1658.68" />
            <path vector-effect="none" fill-rule="evenodd"
                d="M2200.24,1660.8 L2200.25,1605.5 L2412.51,1606.51 L2413.16,1664.53 L2200.24,1660.8" />
            <path vector-effect="none" fill-rule="evenodd"
                d="M1974.84,1658.44 L1976.07,1602.88 L2165.03,1603.12 L2164.62,1658.28 L1974.84,1658.44" />
            <path vector-effect="none" fill-rule="evenodd"
                d="M1950.58,1657.8 L1951.67,1629.61 L1675.04,1629.63 L1675.56,1656.03 L1950.58,1657.8" />
            <path vector-effect="none" fill-rule="evenodd"
                d="M1496.16,1744.54 L1497.01,1713.78 L1695.97,1716.56 L1694.6,1745.55 L1496.16,1744.54" />
            <path vector-effect="none" fill-rule="evenodd"
                d="M1718.31,1742.92 L1718.49,1715.02 L1952.89,1720.81 L1952.81,1748.1 L1718.31,1742.92" />
            <path vector-effect="none" fill-rule="evenodd"
                d="M1972.73,1748.84 L1973.19,1692.4 L2170.61,1696.16 L2170.6,1752.82 L1972.73,1748.84" />
            <path vector-effect="none" fill-rule="evenodd"
                d="M2193.49,1754.13 L2194.77,1693.82 L2426.79,1695.17 L2427.3,1757.12 L2193.49,1754.13" />
            <path vector-effect="none" fill-rule="evenodd"
                d="M2447.66,1752.66 L2446.97,1686.82 L2655.07,1684.13 L2654.7,1749.06 L2447.66,1752.66" />
            <path vector-effect="none" fill-rule="evenodd"
                d="M2666.29,1744.98 L2665.46,1689.96 L2853.86,1690.7 L2853.86,1746.01 L2666.29,1744.98" />
            <path vector-effect="none" fill-rule="evenodd"
                d="M2863.68,1748.57 L2865.4,1693.27 L2988.97,1694.61 L2986.72,1752.14 L2863.68,1748.57" />
            <path vector-effect="none" fill-rule="evenodd"
                d="M3004.72,1790.56 L3005.19,1702.78 L3062.45,1704.36 L3063.43,1791.76 L3004.72,1790.56" />
            <path vector-effect="none" fill-rule="evenodd"
                d="M3155.11,1782.19 L3153.98,1594.57 L3200.59,1596.11 L3200.52,1782.64 L3155.11,1782.19" />
            <path vector-effect="none" fill-rule="evenodd"
                d="M3224.63,1893.62 L3216.15,1546 L3247.83,1544.09 L3250.25,1893.6 L3224.63,1893.62" />
            <path vector-effect="none" fill-rule="evenodd"
                d="M3213,1918.85 L3209.03,1904.37 L3227.77,1900.23 L3231.61,1914.84 L3213,1918.85" />
            <path vector-effect="none" fill-rule="evenodd"
                d="M1402.85,1846.37 L1402.32,1810.79 L1465.27,1809.24 L1464.79,1778.39 L1703.59,1782.65 L1704.48,1840.42 L1402.85,1846.37" />
            <path vector-effect="none" fill-rule="evenodd"
                d="M1718.19,1841.62 L1719.58,1783.62 L2174.5,1782.95 L2175.24,1845.32 L1718.19,1841.62" />
            <path vector-effect="none" fill-rule="evenodd"
                d="M2192.01,1849.28 L2191.91,1777.16 L2420.96,1780.78 L2421.91,1849.1 L2192.01,1849.28" />
            <path vector-effect="none" fill-rule="evenodd"
                d="M2187.14,1900.42 L2186.14,1868.96 L2396.47,1865.56 L2396.41,1899.31 L2187.14,1900.42" />
            <path vector-effect="none" fill-rule="evenodd"
                d="M2418.78,1898.86 L2417.53,1860.73 L3157.57,1862.76 L3158.97,1899.17 L2418.78,1898.86" />
            <path vector-effect="none" fill-rule="evenodd"
                d="M3070.78,1845.91 L3070.43,1812.02 L2986.65,1813.09 L2983.34,1777.95 L2431.9,1777.8 L2433.41,1845.19 L3070.78,1845.91" />
            <path vector-effect="none" fill-rule="evenodd"
                d="M3204.86,1582.23 L3204,1545.89 L1915.73,1546.23 L1916.1,1577.02 L3204.86,1582.23" />
        </g>
        <g fill="none" stroke-width="1" stroke="#000000" stroke-linejoin="bevel" stroke-linecap="square"
            font-style="normal" font-weight="400" font-size="34.5833" stroke-opacity="1"
            transform="matrix(0.999751,0,0,0.999751,1.21175e-14,0)" font-family="MS Shell Dlg 2" />
        <g fill="none" stroke-width="1" stroke="#000000" stroke-linejoin="bevel" stroke-linecap="square"
            font-style="normal" font-weight="400" font-size="34.5833" stroke-opacity="1"
            transform="matrix(11.8081,0,0,11.8081,1.21175e-14,0)" font-family="MS Shell Dlg 2" />
        <g fill="none" stroke-width="1" stroke="#000000" stroke-linejoin="bevel" stroke-linecap="square"
            font-style="normal" font-weight="400" font-size="34.5833" stroke-opacity="1"
            transform="matrix(11.8081,0,0,11.8081,1.21175e-14,0)" font-family="MS Shell Dlg 2" />
        <g fill="none" stroke-width="1" stroke="#000000" stroke-linejoin="bevel" stroke-linecap="square"
            font-style="normal" font-weight="400" font-size="34.5833" stroke-opacity="1"
            transform="matrix(11.8081,0,0,11.8081,1.21175e-14,0)" font-family="MS Shell Dlg 2" />
        <g fill="none" stroke-width="1" stroke="#000000" stroke-linejoin="bevel" stroke-linecap="square"
            font-style="normal" font-weight="400" font-size="34.5833" stroke-opacity="1" transform="matrix(1,0,0,1,0,0)"
            font-family="MS Shell Dlg 2" />
        <g fill="none" stroke-width="1" stroke="#000000" stroke-linejoin="bevel" stroke-linecap="square"
            font-style="normal" font-weight="400" font-size="34.5833" stroke-opacity="1"
            transform="matrix(11.8081,0,0,11.8081,1.21175e-14,0)" font-family="MS Shell Dlg 2" />
        <g fill="none" stroke-width="1" stroke="#000000" stroke-linejoin="bevel" stroke-linecap="square"
            font-style="normal" font-weight="400" font-size="34.5833" stroke-opacity="1"
            transform="matrix(11.8081,0,0,11.8081,1.21175e-14,0)" font-family="MS Shell Dlg 2" />
        <g fill="none" stroke-width="1" stroke="#000000" stroke-linejoin="bevel" stroke-linecap="square"
            font-style="normal" font-weight="400" font-size="34.5833" stroke-opacity="1" transform="matrix(1,0,0,1,0,0)"
            font-family="MS Shell Dlg 2" />
    </g>
    <defs />
    <g fill="none" stroke-width="1" stroke="black" fill-rule="evenodd" stroke-linejoin="bevel" stroke-linecap="square"
        id="Карта 1: parks" inkscape:label="Карта 1: parks" inkscape:groupmode="layer">
        <g fill="none" stroke-width="1" stroke="#000000" stroke-linejoin="bevel" stroke-linecap="square"
            font-style="normal" font-weight="400" font-size="34.5833" stroke-opacity="1" transform="matrix(1,0,0,1,0,0)"
            font-family="MS Shell Dlg 2" />
        <g fill="none" stroke-width="1" stroke="#000000" stroke-linejoin="bevel" stroke-linecap="square"
            font-style="normal" font-weight="400" font-size="34.5833" stroke-opacity="1" transform="matrix(1,0,0,1,0,0)"
            font-family="MS Shell Dlg 2" />
        <g fill="none" stroke-width="1" stroke="#000000" stroke-linejoin="bevel" stroke-linecap="square"
            font-style="normal" font-weight="400" font-size="34.5833" stroke-opacity="1"
            transform="matrix(11.8081,0,0,11.8081,1.21175e-14,0)" font-family="MS Shell Dlg 2" />
        <g fill="none" stroke-width="1" stroke="#000000" stroke-linejoin="bevel" stroke-linecap="square"
            font-style="normal" font-weight="400" font-size="34.5833" stroke-opacity="1"
            transform="matrix(11.8081,0,0,11.8081,1.21175e-14,0)" font-family="MS Shell Dlg 2" />
        <g fill="#000000" stroke="none" fill-opacity="0" font-style="normal" font-weight="400" font-size="34.5833"
            transform="matrix(0.999751,0,0,0.999751,1.21175e-14,0)" font-family="MS Shell Dlg 2">

        </g>
        <g fill="none" stroke-width="1" stroke="#000000" stroke-linejoin="bevel" stroke-linecap="square"
            font-style="normal" font-weight="400" font-size="34.5833" stroke-opacity="1"
            transform="matrix(0.999751,0,0,0.999751,1.21175e-14,0)" font-family="MS Shell Dlg 2" />
        <g fill="#377eb8" stroke-width="3.07087" stroke="#265980" stroke-linejoin="bevel" fill-opacity="1"
            stroke-linecap="square" font-style="normal" font-weight="400" font-size="34.5833" stroke-opacity="1"
            transform="matrix(0.999751,0,0,0.999751,1.21175e-14,0)" font-family="MS Shell Dlg 2">
            <path vector-effect="none" fill-rule="evenodd"
                d="M848.565,1624.82 L846.909,1805.94 L1306.02,1809.12 L1304.08,1545.18 L1006.38,1544.59 L1003.22,1625.69 L848.565,1624.82" />
            <path vector-effect="none" fill-rule="evenodd"
                d="M1345.23,1771.28 L1350.71,1710.61 L1328.5,1707.95 L1336.43,1619.11 L1360.55,1620.16 L1367.75,1549.2 L1438.52,1548.41 L1828.26,1546.15 L1829.36,1571.92 L1601.08,1572.65 L1605.36,1620.13 L1540.41,1622.13 L1538.45,1656.14 L1485.7,1657.92 L1432.64,1670.14 L1385.56,1674.56 L1373.21,1772.31 L1345.23,1771.28" />
        </g>
        <g fill="none" stroke-width="1" stroke="#000000" stroke-linejoin="bevel" stroke-linecap="square"
            font-style="normal" font-weight="400" font-size="34.5833" stroke-opacity="1"
            transform="matrix(0.999751,0,0,0.999751,1.21175e-14,0)" font-family="MS Shell Dlg 2" />
        <g fill="none" stroke-width="1" stroke="#000000" stroke-linejoin="bevel" stroke-linecap="square"
            font-style="normal" font-weight="400" font-size="34.5833" stroke-opacity="1"
            transform="matrix(11.8081,0,0,11.8081,1.21175e-14,0)" font-family="MS Shell Dlg 2" />
        <g fill="none" stroke-width="1" stroke="#000000" stroke-linejoin="bevel" stroke-linecap="square"
            font-style="normal" font-weight="400" font-size="34.5833" stroke-opacity="1"
            transform="matrix(11.8081,0,0,11.8081,1.21175e-14,0)" font-family="MS Shell Dlg 2" />
        <g fill="none" stroke-width="1" stroke="#000000" stroke-linejoin="bevel" stroke-linecap="square"
            font-style="normal" font-weight="400" font-size="34.5833" stroke-opacity="1"
            transform="matrix(11.8081,0,0,11.8081,1.21175e-14,0)" font-family="MS Shell Dlg 2" />
        <g fill="none" stroke-width="1" stroke="#000000" stroke-linejoin="bevel" stroke-linecap="square"
            font-style="normal" font-weight="400" font-size="34.5833" stroke-opacity="1" transform="matrix(1,0,0,1,0,0)"
            font-family="MS Shell Dlg 2" />
        <g fill="none" stroke-width="1" stroke="#000000" stroke-linejoin="bevel" stroke-linecap="square"
            font-style="normal" font-weight="400" font-size="34.5833" stroke-opacity="1"
            transform="matrix(11.8081,0,0,11.8081,1.21175e-14,0)" font-family="MS Shell Dlg 2" />
        <g fill="none" stroke-width="1" stroke="#000000" stroke-linejoin="bevel" stroke-linecap="square"
            font-style="normal" font-weight="400" font-size="34.5833" stroke-opacity="1"
            transform="matrix(11.8081,0,0,11.8081,1.21175e-14,0)" font-family="MS Shell Dlg 2" />
        <g fill="none" stroke-width="1" stroke="#000000" stroke-linejoin="bevel" stroke-linecap="square"
            font-style="normal" font-weight="400" font-size="34.5833" stroke-opacity="1" transform="matrix(1,0,0,1,0,0)"
            font-family="MS Shell Dlg 2" />
    </g>
    <defs />
    <g fill="none" stroke-width="1" stroke="black" fill-rule="evenodd" stroke-linejoin="bevel" stroke-linecap="square"
        id="Карта 1: road" inkscape:label="Карта 1: road" inkscape:groupmode="layer">
        <g fill="none" stroke-width="1" stroke="#000000" stroke-linejoin="bevel" stroke-linecap="square"
            font-style="normal" font-weight="400" font-size="34.5833" stroke-opacity="1" transform="matrix(1,0,0,1,0,0)"
            font-family="MS Shell Dlg 2" />
        <g fill="none" stroke-width="1" stroke="#000000" stroke-linejoin="bevel" stroke-linecap="square"
            font-style="normal" font-weight="400" font-size="34.5833" stroke-opacity="1" transform="matrix(1,0,0,1,0,0)"
            font-family="MS Shell Dlg 2" />
        <g fill="none" stroke-width="1" stroke="#000000" stroke-linejoin="bevel" stroke-linecap="square"
            font-style="normal" font-weight="400" font-size="34.5833" stroke-opacity="1"
            transform="matrix(11.8081,0,0,11.8081,1.21175e-14,0)" font-family="MS Shell Dlg 2" />
        <g fill="none" stroke-width="1" stroke="#000000" stroke-linejoin="bevel" stroke-linecap="square"
            font-style="normal" font-weight="400" font-size="34.5833" stroke-opacity="1"
            transform="matrix(11.8081,0,0,11.8081,1.21175e-14,0)" font-family="MS Shell Dlg 2" />
        <g fill="#000000" stroke="none" fill-opacity="0" font-style="normal" font-weight="400" font-size="34.5833"
            transform="matrix(0.999751,0,0,0.999751,1.21175e-14,0)" font-family="MS Shell Dlg 2">

        </g>
        <g fill="none" stroke-width="1" stroke="#000000" stroke-linejoin="bevel" stroke-linecap="square"
            font-style="normal" font-weight="400" font-size="34.5833" stroke-opacity="1"
            transform="matrix(0.999751,0,0,0.999751,1.21175e-14,0)" font-family="MS Shell Dlg 2" />
        <g fill="#969696" stroke-width="3.07087" stroke="#f7f7f7" stroke-linejoin="bevel" fill-opacity="1"
            stroke-linecap="square" font-style="normal" font-weight="400" font-size="34.5833" stroke-opacity="1"
            transform="matrix(0.999751,0,0,0.999751,1.21175e-14,0)" font-family="MS Shell Dlg 2">
            <path vector-effect="none" fill-rule="evenodd"
                d="M1904.5,1603.57 L1654.46,1615.47 L1467.75,1718.14 L1361.28,1864.49 L1351.62,1947.15 L1357.04,1947.16 L1579.67,1947.49 L2183.88,1952.51 L3287.8,1960.24 L3288.8,1989.79 L2434.08,1984.81 L2170.9,1982.18 L1948.95,1980.32 L1593.3,1976.83 L1246.65,1976.28 L923.456,1976.01 L765.821,1975.28 L623.406,1981.01 L620.606,1952.03 L767.605,1945.66 L771.243,1945.54 L771.464,1945.65 L723.212,1817.15 L740.984,1808.22 L791.469,1945.72 L1329.15,1947.09 L1335.33,1888.51 L1308.39,1773.57 L1317.72,1509.46 L1317.62,1509.32 L642.211,1509.25 L659.99,1950.32 L641.458,1951.13 L614.673,1458.84 L637.865,1457.99 L639.581,1480.76 L1905.45,1482.03 L1905.61,1543.72 L1905.59,1543.72 L1905.53,1543.78 L1904.5,1603.57 M1887.55,1544.37 L1887.51,1544.37 L1888.07,1509.47 L1335.29,1509.37 L1324.36,1772.22 L1347.4,1849.54 L1449.95,1708.04 L1650.89,1595.35 L1886.78,1584.85 L1887.55,1544.37" />
        </g>
        <g fill="none" stroke-width="1" stroke="#000000" stroke-linejoin="bevel" stroke-linecap="square"
            font-style="normal" font-weight="400" font-size="34.5833" stroke-opacity="1"
            transform="matrix(0.999751,0,0,0.999751,1.21175e-14,0)" font-family="MS Shell Dlg 2" />
        <g fill="none" stroke-width="1" stroke="#000000" stroke-linejoin="bevel" stroke-linecap="square"
            font-style="normal" font-weight="400" font-size="34.5833" stroke-opacity="1"
            transform="matrix(11.8081,0,0,11.8081,1.21175e-14,0)" font-family="MS Shell Dlg 2" />
        <g fill="none" stroke-width="1" stroke="#000000" stroke-linejoin="bevel" stroke-linecap="square"
            font-style="normal" font-weight="400" font-size="34.5833" stroke-opacity="1"
            transform="matrix(11.8081,0,0,11.8081,1.21175e-14,0)" font-family="MS Shell Dlg 2" />
        <g fill="none" stroke-width="1" stroke="#000000" stroke-linejoin="bevel" stroke-linecap="square"
            font-style="normal" font-weight="400" font-size="34.5833" stroke-opacity="1"
            transform="matrix(11.8081,0,0,11.8081,1.21175e-14,0)" font-family="MS Shell Dlg 2" />
        <g fill="none" stroke-width="1" stroke="#000000" stroke-linejoin="bevel" stroke-linecap="square"
            font-style="normal" font-weight="400" font-size="34.5833" stroke-opacity="1" transform="matrix(1,0,0,1,0,0)"
            font-family="MS Shell Dlg 2" />
        <g fill="none" stroke-width="1" stroke="#000000" stroke-linejoin="bevel" stroke-linecap="square"
            font-style="normal" font-weight="400" font-size="34.5833" stroke-opacity="1"
            transform="matrix(11.8081,0,0,11.8081,1.21175e-14,0)" font-family="MS Shell Dlg 2" />
        <g fill="none" stroke-width="1" stroke="#000000" stroke-linejoin="bevel" stroke-linecap="square"
            font-style="normal" font-weight="400" font-size="34.5833" stroke-opacity="1"
            transform="matrix(11.8081,0,0,11.8081,1.21175e-14,0)" font-family="MS Shell Dlg 2" />
        <g fill="none" stroke-width="1" stroke="#000000" stroke-linejoin="bevel" stroke-linecap="square"
            font-style="normal" font-weight="400" font-size="34.5833" stroke-opacity="1" transform="matrix(1,0,0,1,0,0)"
            font-family="MS Shell Dlg 2" />
    </g>
    <defs />
    <g fill="none" stroke-width="1" stroke="black" fill-rule="evenodd" stroke-linejoin="bevel" stroke-linecap="square"
        id="Карта 1: Аннотации" inkscape:label="Карта 1: Аннотации" inkscape:groupmode="layer">
        <g fill="none" stroke-width="1" stroke="#000000" stroke-linejoin="bevel" stroke-linecap="square"
            font-style="normal" font-weight="400" font-size="34.5833" stroke-opacity="1" transform="matrix(1,0,0,1,0,0)"
            font-family="MS Shell Dlg 2" />
        <g fill="none" stroke-width="1" stroke="#000000" stroke-linejoin="bevel" stroke-linecap="square"
            font-style="normal" font-weight="400" font-size="34.5833" stroke-opacity="1" transform="matrix(1,0,0,1,0,0)"
            font-family="MS Shell Dlg 2" />
        <g fill="none" stroke-width="1" stroke="#000000" stroke-linejoin="bevel" stroke-linecap="square"
            font-style="normal" font-weight="400" font-size="34.5833" stroke-opacity="1"
            transform="matrix(11.8081,0,0,11.8081,1.21175e-14,0)" font-family="MS Shell Dlg 2" />
        <g fill="none" stroke-width="1" stroke="#000000" stroke-linejoin="bevel" stroke-linecap="square"
            font-style="normal" font-weight="400" font-size="34.5833" stroke-opacity="1"
            transform="matrix(11.8081,0,0,11.8081,1.21175e-14,0)" font-family="MS Shell Dlg 2" />
        <g fill="#000000" stroke="none" fill-opacity="0" font-style="normal" font-weight="400" font-size="34.5833"
            transform="matrix(0.999751,0,0,0.999751,1.21175e-14,0)" font-family="MS Shell Dlg 2">

        </g>
        <g fill="none" stroke-width="1" stroke="#000000" stroke-linejoin="bevel" stroke-linecap="square"
            font-style="normal" font-weight="400" font-size="34.5833" stroke-opacity="1"
            transform="matrix(11.8081,0,0,11.8081,1.21175e-14,0)" font-family="MS Shell Dlg 2" />
        <g fill="none" stroke-width="1" stroke="#000000" stroke-linejoin="bevel" stroke-linecap="square"
            font-style="normal" font-weight="400" font-size="34.5833" stroke-opacity="1"
            transform="matrix(11.8081,0,0,11.8081,1.21175e-14,0)" font-family="MS Shell Dlg 2" />
        <g fill="none" stroke-width="1" stroke="#000000" stroke-linejoin="bevel" stroke-linecap="square"
            font-style="normal" font-weight="400" font-size="34.5833" stroke-opacity="1"
            transform="matrix(11.8081,0,0,11.8081,1.21175e-14,0)" font-family="MS Shell Dlg 2" />
        <g fill="none" stroke-width="1" stroke="#000000" stroke-linejoin="bevel" stroke-linecap="square"
            font-style="normal" font-weight="400" font-size="34.5833" stroke-opacity="1" transform="matrix(1,0,0,1,0,0)"
            font-family="MS Shell Dlg 2" />
        <g fill="none" stroke-width="1" stroke="#000000" stroke-linejoin="bevel" stroke-linecap="square"
            font-style="normal" font-weight="400" font-size="34.5833" stroke-opacity="1"
            transform="matrix(11.8081,0,0,11.8081,1.21175e-14,0)" font-family="MS Shell Dlg 2" />
        <g fill="none" stroke-width="1" stroke="#000000" stroke-linejoin="bevel" stroke-linecap="square"
            font-style="normal" font-weight="400" font-size="34.5833" stroke-opacity="1"
            transform="matrix(11.8081,0,0,11.8081,1.21175e-14,0)" font-family="MS Shell Dlg 2" />
        <g fill="none" stroke-width="1" stroke="#000000" stroke-linejoin="bevel" stroke-linecap="square"
            font-style="normal" font-weight="400" font-size="34.5833" stroke-opacity="1" transform="matrix(1,0,0,1,0,0)"
            font-family="MS Shell Dlg 2" />
    </g>
    <metadata>
        <rdf:RDF xmlns:rdf="http://www.w3.org/1999/02/22-rdf-syntax-ns#" xmlns:dc="http://purl.org/dc/elements/1.1/"
            xmlns:rdfs="http://www.w3.org/2000/01/rdf-schema#">
            <rdf:Description dc:identifier="" dc:format="image/svg+xml" dc:description="" dc:title=""
                dc:date="2025-11-21T18:20:51">
                <dc:creator>
                    <rdf:Bag>
                        <rdf:li>1</rdf:li>
                    </rdf:Bag>
                </dc:creator>
                <dc:publisher>
                    <rdf:Bag>
                        <rdf:li>QGIS 3.44.4-Solothurn</rdf:li>
                    </rdf:Bag>
                </dc:publisher>
                <dc:subject>
                    <rdf:Bag />
                </dc:subject>
            </rdf:Description>
            <cc:Work rdf:about="">
                <dc:format>image/svg+xml</dc:format>
                <dc:title></dc:title>
                <dc:date>2025-11-21T18:20:51</dc:date>
                <dc:identifier></dc:identifier>
                <dc:description></dc:description>
                <dc:creator>
                    <cc:Agent>
                        <dc:title>1</dc:title>
                    </cc:Agent>
                </dc:creator>
                <dc:publisher>
                    <cc:Agent>
                        <dc:title>QGIS 3.44.4-Solothurn</dc:title>
                    </cc:Agent>
                </dc:publisher>
            </cc:Work>
        </rdf:RDF>
    </metadata>
</svg>