<?xml version='1.0' encoding='UTF-8' standalone='no'?>
<svg xmlns="http://www.w3.org/2000/svg" xmlns:xlink="http://www.w3.org/1999/xlink" version="1.2"
    viewBox="600 950 550 1900" width="550" height="1900" xmlns:inkscape="http://www.inkscape.org/namespaces/inkscape"
    xmlns:cc="http://creativecommons.org/ns#" baseProfile="tiny">
    <defs />
    <g stroke-linejoin="bevel" inkscape:label="Страница" fill-rule="evenodd" id="Страница" inkscape:groupmode="layer"
        stroke-width="1" stroke-linecap="square" fill="none" stroke="black">
        <g stroke-linejoin="bevel" font-style="normal" font-weight="400" stroke-opacity="1" stroke-width="1"
            stroke-linecap="square" fill="none" font-size="34.5833" font-family="MS Shell Dlg 2" stroke="#000000"
            transform="matrix(1,0,0,1,0,0)" />
        <g stroke-linejoin="bevel" font-style="normal" font-weight="400" stroke-opacity="1" stroke-width="1"
            stroke-linecap="square" fill="none" font-size="34.5833" font-family="MS Shell Dlg 2" stroke="#000000"
            transform="matrix(1,0,0,1,0,0)" />
        <g stroke-linejoin="bevel" font-style="normal" font-weight="400" stroke-opacity="1" stroke-width="1"
            stroke-linecap="square" fill="none" font-size="34.5833" font-family="MS Shell Dlg 2" stroke="#000000"
            transform="matrix(11.8081,0,0,11.8081,0,0)" />
        <g stroke-linejoin="bevel" font-style="normal" font-weight="400" stroke-opacity="1" stroke-width="1"
            stroke-linecap="square" fill="none" font-size="34.5833" font-family="MS Shell Dlg 2" stroke="#000000"
            transform="matrix(0.999751,0,0,0.999751,0,0)" />
        <g stroke-linejoin="bevel" font-style="normal" font-weight="400" stroke-opacity="1" stroke-width="1"
            stroke-linecap="square" fill="none" font-size="34.5833" font-family="MS Shell Dlg 2" stroke="#000000"
            transform="matrix(0.999751,0,0,0.999751,0,0)" />
        <g stroke-linejoin="bevel" font-style="normal" font-weight="400" stroke-opacity="1" stroke-width="1"
            stroke-linecap="square" fill="none" font-size="34.5833" font-family="MS Shell Dlg 2" stroke="#000000"
            transform="matrix(11.8081,0,0,11.8081,0,0)" />
        <g stroke-linejoin="bevel" font-style="normal" font-weight="400" stroke-opacity="1" stroke-width="1"
            stroke-linecap="square" fill="none" font-size="34.5833" font-family="MS Shell Dlg 2" stroke="#000000"
            transform="matrix(11.8081,0,0,11.8081,0,0)" />
        <g stroke-linejoin="bevel" font-style="normal" font-weight="400" stroke-opacity="1" stroke-width="1"
            stroke-linecap="square" fill="none" font-size="34.5833" font-family="MS Shell Dlg 2" stroke="#000000"
            transform="matrix(1,0,0,1,0,0)" />
    </g>
    <defs />
    <g stroke-linejoin="bevel" inkscape:label="Карта 1: building" fill-rule="evenodd" id="Карта 1: building"
        inkscape:groupmode="layer" stroke-width="1" stroke-linecap="square" fill="none" stroke="black">
        <g stroke-linejoin="bevel" font-style="normal" font-weight="400" stroke-opacity="1" stroke-width="1"
            stroke-linecap="square" fill="none" font-size="34.5833" font-family="MS Shell Dlg 2" stroke="#000000"
            transform="matrix(1,0,0,1,0,0)" />
        <g stroke-linejoin="bevel" font-style="normal" font-weight="400" stroke-opacity="1" stroke-width="1"
            stroke-linecap="square" fill="none" font-size="34.5833" font-family="MS Shell Dlg 2" stroke="#000000"
            transform="matrix(1,0,0,1,0,0)" />
        <g stroke-linejoin="bevel" font-style="normal" font-weight="400" stroke-opacity="1" stroke-width="1"
            stroke-linecap="square" fill="none" font-size="34.5833" font-family="MS Shell Dlg 2" stroke="#000000"
            transform="matrix(11.8081,0,0,11.8081,0,-1.62559e-13)" />
        <g stroke-linejoin="bevel" font-style="normal" font-weight="400" stroke-opacity="1" stroke-width="1"
            stroke-linecap="square" fill="none" font-size="34.5833" font-family="MS Shell Dlg 2" stroke="#000000"
            transform="matrix(11.8081,0,0,11.8081,0,-1.62559e-13)" />
        <g font-style="normal" font-weight="400" fill-opacity="0" fill="#000000" font-size="34.5833"
            font-family="MS Shell Dlg 2" stroke="none" transform="matrix(0.999751,0,0,0.999751,0,-1.62559e-13)">

        </g>
        <g stroke-linejoin="bevel" font-style="normal" font-weight="400" stroke-opacity="1" stroke-width="1"
            stroke-linecap="square" fill="none" font-size="34.5833" font-family="MS Shell Dlg 2" stroke="#000000"
            transform="matrix(0.999751,0,0,0.999751,0,-1.62559e-13)" />
        <g stroke-linejoin="bevel" font-style="normal" font-weight="400" stroke-opacity="1" fill-opacity="1"
            stroke-width="3.07087" stroke-linecap="square" fill="#f3a6b2" font-size="34.5833"
            font-family="MS Shell Dlg 2" stroke="#232323" transform="matrix(0.999751,0,0,0.999751,0,-1.62559e-13)">
            <path vector-effect="none" fill-rule="evenodd"
                d="M977.287,1139.2 L1025.33,1141.28 L1024.55,1220.97 L976.489,1220.12 L977.287,1139.2" />
            <path vector-effect="none" fill-rule="evenodd"
                d="M776.063,982.04 L866.337,977.947 L867.513,999.667 L776.529,1002.79 L776.063,982.04" />
            <path vector-effect="none" fill-rule="evenodd"
                d="M878.855,981.184 L1027.26,971.979 L1027.87,1085.8 L876.962,1088.54 L878.855,981.184" />
            <path vector-effect="none" fill-rule="evenodd"
                d="M772.457,1075.59 L794.498,1075.81 L794.126,1394.03 L781.917,1394.35 L781.013,1426.94 L759.978,1427.4 L760.206,1384.85 L773.404,1385.32 L772.457,1075.59" />
            <path vector-effect="none" fill-rule="evenodd"
                d="M821.877,1059.6 L841.428,1059.6 L840.382,1437.77 L817.364,1439.46 L821.877,1059.6" />
            <path vector-effect="none" fill-rule="evenodd"
                d="M773.527,1490.64 L799.129,1490.56 L795.926,2048.61 L771.104,2048.55 L773.527,1490.64" />
            <path vector-effect="none" fill-rule="evenodd"
                d="M778.12,2772.38 L820.442,2756.69 L828.278,2773.78 L784.895,2789.93 L778.12,2772.38" />
            <path vector-effect="none" fill-rule="evenodd"
                d="M826.918,2699.07 L913.579,2697.61 L915.539,2733.77 L825.074,2739.1 L826.918,2699.07" />
            <path vector-effect="none" fill-rule="evenodd"
                d="M923.67,2692.92 L990.546,2692.34 L991.284,2730.25 L922.729,2730.1 L923.67,2692.92" />
            <path vector-effect="none" fill-rule="evenodd"
                d="M928.324,2638.91 L990.796,2638.85 L989.576,2677.95 L928.296,2678.15 L928.324,2638.91" />
            <path vector-effect="none" fill-rule="evenodd"
                d="M949.314,2541.65 L987.755,2540.78 L988.421,2628.68 L946.739,2627.79 L949.314,2541.65" />
            <path vector-effect="none" fill-rule="evenodd"
                d="M947.516,2529.65 L989.479,2531.12 L988.058,2247.61 L950.003,2248.29 L947.516,2529.65" />
            <path vector-effect="none" fill-rule="evenodd"
                d="M946.016,2069.51 L985.119,2069.51 L984.405,2219.59 L943.381,2220.05 L946.016,2069.51" />
            <path vector-effect="none" fill-rule="evenodd"
                d="M947.683,1910.14 L986.969,1911.01 L986.802,2044.61 L947.798,2044.32 L947.683,1910.14" />
            <path vector-effect="none" fill-rule="evenodd"
                d="M948.14,1892.99 L968.067,1893.76 L968.056,1698.17 L949.387,1698.54 L948.14,1892.99" />
            <path vector-effect="none" fill-rule="evenodd"
                d="M886.808,1571.7 L908.558,1572.3 L906.595,1712.97 L886.095,1712.01 L886.808,1571.7" />
            <path vector-effect="none" fill-rule="evenodd"
                d="M887.958,1728.77 L907.684,1728.89 L903.589,1894.62 L884.295,1894.56 L887.958,1728.77" />
            <path vector-effect="none" fill-rule="evenodd"
                d="M883.772,1908.65 L923.673,1908.97 L921.016,2048.56 L880.955,2048.55 L883.772,1908.65" />
            <path vector-effect="none" fill-rule="evenodd"
                d="M880.029,2064.73 L922.669,2065.63 L921.715,2229.68 L877.919,2230.04 L880.029,2064.73" />
            <path vector-effect="none" fill-rule="evenodd"
                d="M881.073,2244.44 L927.619,2243.95 L929.522,2391.08 L883.617,2390.82 L881.073,2244.44" />
            <path vector-effect="none" fill-rule="evenodd"
                d="M886.498,2399.02 L925.402,2398.43 L924.878,2531.63 L885.775,2531.63 L886.498,2399.02" />
            <path vector-effect="none" fill-rule="evenodd"
                d="M883.964,2538.57 L923.058,2539.79 L922.115,2627.16 L881.438,2625.57 L883.964,2538.57" />
            <path vector-effect="none" fill-rule="evenodd"
                d="M854.276,2638.29 L916.338,2638.63 L915.221,2679.11 L853.426,2679.8 L854.276,2638.29" />
            <path vector-effect="none" fill-rule="evenodd"
                d="M860.193,2744.62 L992.844,2743.82 L991.753,2776.78 L859.877,2776.73 L860.193,2744.62" />
            <path vector-effect="none" fill-rule="evenodd"
                d="M781.407,2793.78 L1027.18,2787.78 L1028.54,2810.18 L781.42,2811.89 L781.407,2793.78" />
            <path vector-effect="none" fill-rule="evenodd"
                d="M763.566,2785.55 L773.804,2782.75 L776.731,2795.99 L766.407,2798.71 L763.566,2785.55" />
            <path vector-effect="none" fill-rule="evenodd"
                d="M814.811,1505.72 L839.971,1505.35 L841.064,1549.86 L862.875,1549.52 L859.868,1718.36 L819.023,1718.99 L814.811,1505.72" />
            <path vector-effect="none" fill-rule="evenodd"
                d="M818.171,1728.68 L859.181,1729.66 L859.651,2051.31 L815.559,2051.83 L818.171,1728.68" />
            <path vector-effect="none" fill-rule="evenodd"
                d="M812.759,2063.69 L863.747,2063.62 L861.191,2225.56 L812.881,2226.23 L812.759,2063.69" />
            <path vector-effect="none" fill-rule="evenodd"
                d="M776.597,2060.24 L798.845,2059.54 L801.246,2208.25 L777.382,2208.2 L776.597,2060.24" />
            <path vector-effect="none" fill-rule="evenodd"
                d="M777.705,2224.02 L804.75,2222.27 L803.223,2746.36 L777.48,2747.35 L777.705,2224.02" />
            <path vector-effect="none" fill-rule="evenodd"
                d="M815.137,2685 L839.1,2684.76 L838.342,2625.52 L863.188,2623.18 L863.295,2233.3 L815.652,2234.36 L815.137,2685" />
            <path vector-effect="none" fill-rule="evenodd"
                d="M1001.57,2779.8 L1027.26,2779.19 L1027.02,1868.35 L1005.25,1868.61 L1001.57,2779.8" />
        </g>
        <g stroke-linejoin="bevel" font-style="normal" font-weight="400" stroke-opacity="1" stroke-width="1"
            stroke-linecap="square" fill="none" font-size="34.5833" font-family="MS Shell Dlg 2" stroke="#000000"
            transform="matrix(0.999751,0,0,0.999751,0,-1.62559e-13)" />
        <g stroke-linejoin="bevel" font-style="normal" font-weight="400" stroke-opacity="1" stroke-width="1"
            stroke-linecap="square" fill="none" font-size="34.5833" font-family="MS Shell Dlg 2" stroke="#000000"
            transform="matrix(11.8081,0,0,11.8081,0,-1.62559e-13)" />
        <g stroke-linejoin="bevel" font-style="normal" font-weight="400" stroke-opacity="1" stroke-width="1"
            stroke-linecap="square" fill="none" font-size="34.5833" font-family="MS Shell Dlg 2" stroke="#000000"
            transform="matrix(11.8081,0,0,11.8081,0,-1.62559e-13)" />
        <g stroke-linejoin="bevel" font-style="normal" font-weight="400" stroke-opacity="1" stroke-width="1"
            stroke-linecap="square" fill="none" font-size="34.5833" font-family="MS Shell Dlg 2" stroke="#000000"
            transform="matrix(11.8081,0,0,11.8081,0,-1.62559e-13)" />
        <g stroke-linejoin="bevel" font-style="normal" font-weight="400" stroke-opacity="1" stroke-width="1"
            stroke-linecap="square" fill="none" font-size="34.5833" font-family="MS Shell Dlg 2" stroke="#000000"
            transform="matrix(1,0,0,1,0,0)" />
        <g stroke-linejoin="bevel" font-style="normal" font-weight="400" stroke-opacity="1" stroke-width="1"
            stroke-linecap="square" fill="none" font-size="34.5833" font-family="MS Shell Dlg 2" stroke="#000000"
            transform="matrix(11.8081,0,0,11.8081,0,-1.62559e-13)" />
        <g stroke-linejoin="bevel" font-style="normal" font-weight="400" stroke-opacity="1" stroke-width="1"
            stroke-linecap="square" fill="none" font-size="34.5833" font-family="MS Shell Dlg 2" stroke="#000000"
            transform="matrix(11.8081,0,0,11.8081,0,-1.62559e-13)" />
        <g stroke-linejoin="bevel" font-style="normal" font-weight="400" stroke-opacity="1" stroke-width="1"
            stroke-linecap="square" fill="none" font-size="34.5833" font-family="MS Shell Dlg 2" stroke="#000000"
            transform="matrix(1,0,0,1,0,0)" />
    </g>
    <defs />
    <g stroke-linejoin="bevel" inkscape:label="Карта 1: parks" fill-rule="evenodd" id="Карта 1: parks"
        inkscape:groupmode="layer" stroke-width="1" stroke-linecap="square" fill="none" stroke="black">
        <g stroke-linejoin="bevel" font-style="normal" font-weight="400" stroke-opacity="1" stroke-width="1"
            stroke-linecap="square" fill="none" font-size="34.5833" font-family="MS Shell Dlg 2" stroke="#000000"
            transform="matrix(1,0,0,1,0,0)" />
        <g stroke-linejoin="bevel" font-style="normal" font-weight="400" stroke-opacity="1" stroke-width="1"
            stroke-linecap="square" fill="none" font-size="34.5833" font-family="MS Shell Dlg 2" stroke="#000000"
            transform="matrix(1,0,0,1,0,0)" />
        <g stroke-linejoin="bevel" font-style="normal" font-weight="400" stroke-opacity="1" stroke-width="1"
            stroke-linecap="square" fill="none" font-size="34.5833" font-family="MS Shell Dlg 2" stroke="#000000"
            transform="matrix(11.8081,0,0,11.8081,0,-1.62559e-13)" />
        <g stroke-linejoin="bevel" font-style="normal" font-weight="400" stroke-opacity="1" stroke-width="1"
            stroke-linecap="square" fill="none" font-size="34.5833" font-family="MS Shell Dlg 2" stroke="#000000"
            transform="matrix(11.8081,0,0,11.8081,0,-1.62559e-13)" />
        <g font-style="normal" font-weight="400" fill-opacity="0" fill="#000000" font-size="34.5833"
            font-family="MS Shell Dlg 2" stroke="none" transform="matrix(0.999751,0,0,0.999751,0,-1.62559e-13)">

        </g>
        <g stroke-linejoin="bevel" font-style="normal" font-weight="400" stroke-opacity="1" stroke-width="1"
            stroke-linecap="square" fill="none" font-size="34.5833" font-family="MS Shell Dlg 2" stroke="#000000"
            transform="matrix(0.999751,0,0,0.999751,0,-1.62559e-13)" />
        <g stroke-linejoin="bevel" font-style="normal" font-weight="400" stroke-opacity="1" fill-opacity="1"
            stroke-width="3.07087" stroke-linecap="square" fill="#377eb8" font-size="34.5833"
            font-family="MS Shell Dlg 2" stroke="#265980" transform="matrix(0.999751,0,0,0.999751,0,-1.62559e-13)">
            <path vector-effect="none" fill-rule="evenodd"
                d="M971.456,1113.83 L843.398,1112.66 L841.148,1437.27 L1027.76,1435.9 L1028.18,1225.41 L970.841,1223.18 L971.456,1113.83" />
            <path vector-effect="none" fill-rule="evenodd"
                d="M867.902,1464.99 L910.8,1468.86 L912.68,1453.16 L975.496,1458.77 L974.753,1475.82 L1024.92,1480.91 L1025.48,1530.95 L1027.08,1806.5 L1008.86,1807.28 L1008.34,1645.88 L974.771,1648.91 L973.355,1602.98 L949.313,1601.6 L948.051,1564.3 L939.412,1526.79 L936.29,1493.5 L867.179,1484.77 L867.902,1464.99" />
        </g>
        <g stroke-linejoin="bevel" font-style="normal" font-weight="400" stroke-opacity="1" stroke-width="1"
            stroke-linecap="square" fill="none" font-size="34.5833" font-family="MS Shell Dlg 2" stroke="#000000"
            transform="matrix(0.999751,0,0,0.999751,0,-1.62559e-13)" />
        <g stroke-linejoin="bevel" font-style="normal" font-weight="400" stroke-opacity="1" stroke-width="1"
            stroke-linecap="square" fill="none" font-size="34.5833" font-family="MS Shell Dlg 2" stroke="#000000"
            transform="matrix(11.8081,0,0,11.8081,0,-1.62559e-13)" />
        <g stroke-linejoin="bevel" font-style="normal" font-weight="400" stroke-opacity="1" stroke-width="1"
            stroke-linecap="square" fill="none" font-size="34.5833" font-family="MS Shell Dlg 2" stroke="#000000"
            transform="matrix(11.8081,0,0,11.8081,0,-1.62559e-13)" />
        <g stroke-linejoin="bevel" font-style="normal" font-weight="400" stroke-opacity="1" stroke-width="1"
            stroke-linecap="square" fill="none" font-size="34.5833" font-family="MS Shell Dlg 2" stroke="#000000"
            transform="matrix(11.8081,0,0,11.8081,0,-1.62559e-13)" />
        <g stroke-linejoin="bevel" font-style="normal" font-weight="400" stroke-opacity="1" stroke-width="1"
            stroke-linecap="square" fill="none" font-size="34.5833" font-family="MS Shell Dlg 2" stroke="#000000"
            transform="matrix(1,0,0,1,0,0)" />
        <g stroke-linejoin="bevel" font-style="normal" font-weight="400" stroke-opacity="1" stroke-width="1"
            stroke-linecap="square" fill="none" font-size="34.5833" font-family="MS Shell Dlg 2" stroke="#000000"
            transform="matrix(11.8081,0,0,11.8081,0,-1.62559e-13)" />
        <g stroke-linejoin="bevel" font-style="normal" font-weight="400" stroke-opacity="1" stroke-width="1"
            stroke-linecap="square" fill="none" font-size="34.5833" font-family="MS Shell Dlg 2" stroke="#000000"
            transform="matrix(11.8081,0,0,11.8081,0,-1.62559e-13)" />
        <g stroke-linejoin="bevel" font-style="normal" font-weight="400" stroke-opacity="1" stroke-width="1"
            stroke-linecap="square" fill="none" font-size="34.5833" font-family="MS Shell Dlg 2" stroke="#000000"
            transform="matrix(1,0,0,1,0,0)" />
    </g>
    <defs />
    <g stroke-linejoin="bevel" inkscape:label="Карта 1: road" fill-rule="evenodd" id="Карта 1: road"
        inkscape:groupmode="layer" stroke-width="1" stroke-linecap="square" fill="none" stroke="black">
        <g stroke-linejoin="bevel" font-style="normal" font-weight="400" stroke-opacity="1" stroke-width="1"
            stroke-linecap="square" fill="none" font-size="34.5833" font-family="MS Shell Dlg 2" stroke="#000000"
            transform="matrix(1,0,0,1,0,0)" />
        <g stroke-linejoin="bevel" font-style="normal" font-weight="400" stroke-opacity="1" stroke-width="1"
            stroke-linecap="square" fill="none" font-size="34.5833" font-family="MS Shell Dlg 2" stroke="#000000"
            transform="matrix(1,0,0,1,0,0)" />
        <g stroke-linejoin="bevel" font-style="normal" font-weight="400" stroke-opacity="1" stroke-width="1"
            stroke-linecap="square" fill="none" font-size="34.5833" font-family="MS Shell Dlg 2" stroke="#000000"
            transform="matrix(11.8081,0,0,11.8081,0,-1.62559e-13)" />
        <g stroke-linejoin="bevel" font-style="normal" font-weight="400" stroke-opacity="1" stroke-width="1"
            stroke-linecap="square" fill="none" font-size="34.5833" font-family="MS Shell Dlg 2" stroke="#000000"
            transform="matrix(11.8081,0,0,11.8081,0,-1.62559e-13)" />
        <g font-style="normal" font-weight="400" fill-opacity="0" fill="#000000" font-size="34.5833"
            font-family="MS Shell Dlg 2" stroke="none" transform="matrix(0.999751,0,0,0.999751,0,-1.62559e-13)">

        </g>
        <g stroke-linejoin="bevel" font-style="normal" font-weight="400" stroke-opacity="1" stroke-width="1"
            stroke-linecap="square" fill="none" font-size="34.5833" font-family="MS Shell Dlg 2" stroke="#000000"
            transform="matrix(0.999751,0,0,0.999751,0,-1.62559e-13)" />
        <g stroke-linejoin="bevel" font-style="normal" font-weight="400" stroke-opacity="1" fill-opacity="1"
            stroke-width="3.07087" stroke-linecap="square" fill="#969696" font-size="34.5833"
            font-family="MS Shell Dlg 2" stroke="#f7f7f7" transform="matrix(0.999751,0,0,0.999751,0,-1.62559e-13)">
            <path vector-effect="none" fill-rule="evenodd"
                d="M986.482,1860.41 L978.067,1683.63 L905.476,1551.61 L802.003,1476.34 L743.56,1469.51 L743.55,1473.34 L743.319,1630.74 L739.767,2057.94 L734.305,2838.44 L713.41,2839.15 L716.93,2234.83 L718.791,2048.76 L720.109,1891.84 L722.577,1640.38 L722.961,1395.29 L723.156,1166.78 L723.671,1055.33 L719.62,954.638 L740.109,952.658 L744.611,1056.59 L744.7,1059.16 L744.622,1059.32 L835.47,1025.2 L841.788,1037.77 L744.568,1073.46 L743.6,1453.62 L785.021,1457.99 L866.287,1438.94 L1053.02,1445.54 L1053.12,1445.46 L1053.17,967.934 L741.315,980.503 L740.747,967.401 L1088.81,948.464 L1089.41,964.86 L1073.31,966.074 L1072.41,1861.08 L1028.79,1861.19 L1028.8,1861.18 L1028.75,1861.13 L986.482,1860.41 M1028.34,1848.42 L1028.34,1848.39 L1053.01,1848.79 L1053.08,1457.96 L867.243,1450.23 L812.571,1466.52 L912.614,1539.03 L992.291,1681.1 L999.718,1847.88 L1028.34,1848.42" />
        </g>
        <g stroke-linejoin="bevel" font-style="normal" font-weight="400" stroke-opacity="1" stroke-width="1"
            stroke-linecap="square" fill="none" font-size="34.5833" font-family="MS Shell Dlg 2" stroke="#000000"
            transform="matrix(0.999751,0,0,0.999751,0,-1.62559e-13)" />
        <g stroke-linejoin="bevel" font-style="normal" font-weight="400" stroke-opacity="1" stroke-width="1"
            stroke-linecap="square" fill="none" font-size="34.5833" font-family="MS Shell Dlg 2" stroke="#000000"
            transform="matrix(11.8081,0,0,11.8081,0,-1.62559e-13)" />
        <g stroke-linejoin="bevel" font-style="normal" font-weight="400" stroke-opacity="1" stroke-width="1"
            stroke-linecap="square" fill="none" font-size="34.5833" font-family="MS Shell Dlg 2" stroke="#000000"
            transform="matrix(11.8081,0,0,11.8081,0,-1.62559e-13)" />
        <g stroke-linejoin="bevel" font-style="normal" font-weight="400" stroke-opacity="1" stroke-width="1"
            stroke-linecap="square" fill="none" font-size="34.5833" font-family="MS Shell Dlg 2" stroke="#000000"
            transform="matrix(11.8081,0,0,11.8081,0,-1.62559e-13)" />
        <g stroke-linejoin="bevel" font-style="normal" font-weight="400" stroke-opacity="1" stroke-width="1"
            stroke-linecap="square" fill="none" font-size="34.5833" font-family="MS Shell Dlg 2" stroke="#000000"
            transform="matrix(1,0,0,1,0,0)" />
        <g stroke-linejoin="bevel" font-style="normal" font-weight="400" stroke-opacity="1" stroke-width="1"
            stroke-linecap="square" fill="none" font-size="34.5833" font-family="MS Shell Dlg 2" stroke="#000000"
            transform="matrix(11.8081,0,0,11.8081,0,-1.62559e-13)" />
        <g stroke-linejoin="bevel" font-style="normal" font-weight="400" stroke-opacity="1" stroke-width="1"
            stroke-linecap="square" fill="none" font-size="34.5833" font-family="MS Shell Dlg 2" stroke="#000000"
            transform="matrix(11.8081,0,0,11.8081,0,-1.62559e-13)" />
        <g stroke-linejoin="bevel" font-style="normal" font-weight="400" stroke-opacity="1" stroke-width="1"
            stroke-linecap="square" fill="none" font-size="34.5833" font-family="MS Shell Dlg 2" stroke="#000000"
            transform="matrix(1,0,0,1,0,0)" />
    </g>
    <defs />
    <g stroke-linejoin="bevel" inkscape:label="Карта 1: Аннотации" fill-rule="evenodd" id="Карта 1: Аннотации"
        inkscape:groupmode="layer" stroke-width="1" stroke-linecap="square" fill="none" stroke="black">
        <g stroke-linejoin="bevel" font-style="normal" font-weight="400" stroke-opacity="1" stroke-width="1"
            stroke-linecap="square" fill="none" font-size="34.5833" font-family="MS Shell Dlg 2" stroke="#000000"
            transform="matrix(1,0,0,1,0,0)" />
        <g stroke-linejoin="bevel" font-style="normal" font-weight="400" stroke-opacity="1" stroke-width="1"
            stroke-linecap="square" fill="none" font-size="34.5833" font-family="MS Shell Dlg 2" stroke="#000000"
            transform="matrix(1,0,0,1,0,0)" />
        <g stroke-linejoin="bevel" font-style="normal" font-weight="400" stroke-opacity="1" stroke-width="1"
            stroke-linecap="square" fill="none" font-size="34.5833" font-family="MS Shell Dlg 2" stroke="#000000"
            transform="matrix(11.8081,0,0,11.8081,0,-1.62559e-13)" />
        <g stroke-linejoin="bevel" font-style="normal" font-weight="400" stroke-opacity="1" stroke-width="1"
            stroke-linecap="square" fill="none" font-size="34.5833" font-family="MS Shell Dlg 2" stroke="#000000"
            transform="matrix(11.8081,0,0,11.8081,0,-1.62559e-13)" />
        <g font-style="normal" font-weight="400" fill-opacity="0" fill="#000000" font-size="34.5833"
            font-family="MS Shell Dlg 2" stroke="none" transform="matrix(0.999751,0,0,0.999751,0,-1.62559e-13)">

        </g>
        <g stroke-linejoin="bevel" font-style="normal" font-weight="400" stroke-opacity="1" stroke-width="1"
            stroke-linecap="square" fill="none" font-size="34.5833" font-family="MS Shell Dlg 2" stroke="#000000"
            transform="matrix(11.8081,0,0,11.8081,0,-1.62559e-13)" />
        <g stroke-linejoin="bevel" font-style="normal" font-weight="400" stroke-opacity="1" stroke-width="1"
            stroke-linecap="square" fill="none" font-size="34.5833" font-family="MS Shell Dlg 2" stroke="#000000"
            transform="matrix(11.8081,0,0,11.8081,0,-1.62559e-13)" />
        <g stroke-linejoin="bevel" font-style="normal" font-weight="400" stroke-opacity="1" stroke-width="1"
            stroke-linecap="square" fill="none" font-size="34.5833" font-family="MS Shell Dlg 2" stroke="#000000"
            transform="matrix(11.8081,0,0,11.8081,0,-1.62559e-13)" />
        <g stroke-linejoin="bevel" font-style="normal" font-weight="400" stroke-opacity="1" stroke-width="1"
            stroke-linecap="square" fill="none" font-size="34.5833" font-family="MS Shell Dlg 2" stroke="#000000"
            transform="matrix(1,0,0,1,0,0)" />
        <g stroke-linejoin="bevel" font-style="normal" font-weight="400" stroke-opacity="1" stroke-width="1"
            stroke-linecap="square" fill="none" font-size="34.5833" font-family="MS Shell Dlg 2" stroke="#000000"
            transform="matrix(11.8081,0,0,11.8081,0,-1.62559e-13)" />
        <g stroke-linejoin="bevel" font-style="normal" font-weight="400" stroke-opacity="1" stroke-width="1"
            stroke-linecap="square" fill="none" font-size="34.5833" font-family="MS Shell Dlg 2" stroke="#000000"
            transform="matrix(11.8081,0,0,11.8081,0,-1.62559e-13)" />
        <g stroke-linejoin="bevel" font-style="normal" font-weight="400" stroke-opacity="1" stroke-width="1"
            stroke-linecap="square" fill="none" font-size="34.5833" font-family="MS Shell Dlg 2" stroke="#000000"
            transform="matrix(1,0,0,1,0,0)" />
    </g>
    <metadata>
        <rdf:RDF xmlns:dc="http://purl.org/dc/elements/1.1/" xmlns:rdfs="http://www.w3.org/2000/01/rdf-schema#"
            xmlns:rdf="http://www.w3.org/1999/02/22-rdf-syntax-ns#">
            <rdf:Description dc:description="" dc:format="image/svg+xml" dc:identifier="" dc:date="2025-11-21T18:20:51"
                dc:title="">
                <dc:creator>
                    <rdf:Bag>
                        <rdf:li>1</rdf:li>
                    </rdf:Bag>
                </dc:creator>
                <dc:publisher>
                    <rdf:Bag>
                        <rdf:li>QGIS 3.44.4-Solothurn</rdf:li>
                    </rdf:Bag>
                </dc:publisher>
                <dc:subject>
                    <rdf:Bag />
                </dc:subject>
            </rdf:Description>
            <cc:Work rdf:about="">
                <dc:format>image/svg+xml</dc:format>
                <dc:title></dc:title>
                <dc:date>2025-11-21T18:20:51</dc:date>
                <dc:identifier></dc:identifier>
                <dc:description></dc:description>
                <dc:creator>
                    <cc:Agent>
                        <dc:title>1</dc:title>
                    </cc:Agent>
                </dc:creator>
                <dc:publisher>
                    <cc:Agent>
                        <dc:title>QGIS 3.44.4-Solothurn</dc:title>
                    </cc:Agent>
                </dc:publisher>
            </cc:Work>
        </rdf:RDF>
    </metadata>
</svg>