<svg width="1330" height="160" viewBox="0 0 1330 160" fill="none" xmlns="http://www.w3.org/2000/svg" font-family="Arial, sans-serif">

  <!--
    Масштаб: 1м = 20px
    Высокие (6м = 120px): К-95, К-438, 461, 460  →  y=20, h=120
    Низкие  (4.8м = 96px): П-191..П-190  →  y=44, h=96
    Все выровнены снизу: нижний край = 140px
    Ширина каждой: 2.5м = 50px
  -->

  <rect width="1330" height="160" fill="#DAE5DF"/>

  <!-- ══════════════════ ВЫСОКИЕ 6м=120px  y=20 ══════════════════ -->

  <rect x="5"   y="20" width="50" height="120" fill="#FAE9C8" stroke="#c8b898" stroke-width="1.5"/>
  <text x="30"  y="80" font-size="12" fill="#29332D" text-anchor="middle" dominant-baseline="middle" transform="rotate(-90 30 80)">К-95</text>

  <rect x="55"  y="20" width="50" height="120" fill="#FAE9C8" stroke="#c8b898" stroke-width="1.5"/>
  <text x="80"  y="80" font-size="12" fill="#29332D" text-anchor="middle" dominant-baseline="middle" transform="rotate(-90 80 80)">К-438</text>

  <rect x="105" y="20" width="50" height="120" fill="#FAE9C8" stroke="#c8b898" stroke-width="1.5"/>
  <text x="130" y="80" font-size="12" fill="#29332D" text-anchor="middle" dominant-baseline="middle" transform="rotate(-90 130 80)">461</text>

  <rect x="155" y="20" width="50" height="120" fill="#FAE9C8" stroke="#c8b898" stroke-width="1.5"/>
  <text x="180" y="80" font-size="12" fill="#29332D" text-anchor="middle" dominant-baseline="middle" transform="rotate(-90 180 80)">460</text>

  <!-- ══════════════════ НИЗКИЕ 4.8м=96px  y=44 ══════════════════ -->

  <rect x="205" y="44" width="50" height="96" fill="#FAE9C8" stroke="#c8b898" stroke-width="1.5"/>
  <text x="230" y="92" font-size="12" fill="#29332D" text-anchor="middle" dominant-baseline="middle" transform="rotate(-90 230 92)">П-191</text>

  <rect x="255" y="44" width="50" height="96" fill="#FAE9C8" stroke="#c8b898" stroke-width="1.5"/>
  <text x="280" y="92" font-size="12" fill="#29332D" text-anchor="middle" dominant-baseline="middle" transform="rotate(-90 280 92)">П-125</text>

  <rect x="305" y="44" width="50" height="96" fill="#FAE9C8" stroke="#c8b898" stroke-width="1.5"/>
  <text x="330" y="92" font-size="12" fill="#29332D" text-anchor="middle" dominant-baseline="middle" transform="rotate(-90 330 92)">П-126</text>

  <rect x="355" y="44" width="50" height="96" fill="#FAE9C8" stroke="#c8b898" stroke-width="1.5"/>
  <text x="380" y="92" font-size="12" fill="#29332D" text-anchor="middle" dominant-baseline="middle" transform="rotate(-90 380 92)">П-127</text>

  <rect x="405" y="44" width="50" height="96" fill="#FAE9C8" stroke="#c8b898" stroke-width="1.5"/>
  <text x="430" y="92" font-size="12" fill="#29332D" text-anchor="middle" dominant-baseline="middle" transform="rotate(-90 430 92)">П-128</text>

  <rect x="455" y="44" width="50" height="96" fill="#FAE9C8" stroke="#c8b898" stroke-width="1.5"/>
  <text x="480" y="92" font-size="12" fill="#29332D" text-anchor="middle" dominant-baseline="middle" transform="rotate(-90 480 92)">П-129</text>

  <rect x="505" y="44" width="50" height="96" fill="#FAE9C8" stroke="#c8b898" stroke-width="1.5"/>
  <text x="530" y="92" font-size="12" fill="#29332D" text-anchor="middle" dominant-baseline="middle" transform="rotate(-90 530 92)">П-130</text>

  <rect x="555" y="44" width="50" height="96" fill="#FAE9C8" stroke="#c8b898" stroke-width="1.5"/>
  <text x="580" y="92" font-size="12" fill="#29332D" text-anchor="middle" dominant-baseline="middle" transform="rotate(-90 580 92)">П-131</text>

  <rect x="605" y="44" width="50" height="96" fill="#FAE9C8" stroke="#c8b898" stroke-width="1.5"/>
  <text x="630" y="92" font-size="12" fill="#29332D" text-anchor="middle" dominant-baseline="middle" transform="rotate(-90 630 92)">132</text>

  <rect x="655" y="44" width="50" height="96" fill="#FAE9C8" stroke="#c8b898" stroke-width="1.5"/>
  <text x="680" y="92" font-size="12" fill="#29332D" text-anchor="middle" dominant-baseline="middle" transform="rotate(-90 680 92)">133</text>

  <rect x="705" y="44" width="50" height="96" fill="#FAE9C8" stroke="#c8b898" stroke-width="1.5"/>
  <text x="730" y="92" font-size="12" fill="#29332D" text-anchor="middle" dominant-baseline="middle" transform="rotate(-90 730 92)">П-134</text>

  <rect x="755" y="44" width="50" height="96" fill="#FAE9C8" stroke="#c8b898" stroke-width="1.5"/>
  <text x="780" y="92" font-size="12" fill="#29332D" text-anchor="middle" dominant-baseline="middle" transform="rotate(-90 780 92)">135</text>

  <rect x="805" y="44" width="50" height="96" fill="#FAE9C8" stroke="#c8b898" stroke-width="1.5"/>
  <text x="830" y="92" font-size="12" fill="#29332D" text-anchor="middle" dominant-baseline="middle" transform="rotate(-90 830 92)">136</text>

  <rect x="855" y="44" width="50" height="96" fill="#FAE9C8" stroke="#c8b898" stroke-width="1.5"/>
  <text x="880" y="92" font-size="12" fill="#29332D" text-anchor="middle" dominant-baseline="middle" transform="rotate(-90 880 92)">П-137</text>

  <rect x="905" y="44" width="50" height="96" fill="#FAE9C8" stroke="#c8b898" stroke-width="1.5"/>
  <text x="930" y="92" font-size="12" fill="#29332D" text-anchor="middle" dominant-baseline="middle" transform="rotate(-90 930 92)">П-189</text>

  <rect x="955" y="44" width="50" height="96" fill="#FAE9C8" stroke="#c8b898" stroke-width="1.5"/>
  <text x="980" y="92" font-size="12" fill="#29332D" text-anchor="middle" dominant-baseline="middle" transform="rotate(-90 980 92)">П-138</text>

  <rect x="1005" y="44" width="50" height="96" fill="#FAE9C8" stroke="#c8b898" stroke-width="1.5"/>
  <text x="1030" y="92" font-size="12" fill="#29332D" text-anchor="middle" dominant-baseline="middle" transform="rotate(-90 1030 92)">П-139</text>

  <rect x="1055" y="44" width="50" height="96" fill="#FAE9C8" stroke="#c8b898" stroke-width="1.5"/>
  <text x="1080" y="92" font-size="12" fill="#29332D" text-anchor="middle" dominant-baseline="middle" transform="rotate(-90 1080 92)">140</text>

  <rect x="1105" y="44" width="50" height="96" fill="#FAE9C8" stroke="#c8b898" stroke-width="1.5"/>
  <text x="1130" y="92" font-size="12" fill="#29332D" text-anchor="middle" dominant-baseline="middle" transform="rotate(-90 1130 92)">141</text>

  <rect x="1155" y="44" width="50" height="96" fill="#FAE9C8" stroke="#c8b898" stroke-width="1.5"/>
  <text x="1180" y="92" font-size="12" fill="#29332D" text-anchor="middle" dominant-baseline="middle" transform="rotate(-90 1180 92)">142</text>

  <rect x="1205" y="44" width="50" height="96" fill="#FAE9C8" stroke="#c8b898" stroke-width="1.5"/>
  <text x="1230" y="92" font-size="12" fill="#29332D" text-anchor="middle" dominant-baseline="middle" transform="rotate(-90 1230 92)">П-190</text>

</svg>