<svg width="757" height="510" viewBox="0 0 757 510" fill="none" xmlns="http://www.w3.org/2000/svg">
    <path d="M511 469L511 273L579.371 273L617 325.123L617 469L511 469Z" stroke="#DAE5DF" stroke-width="2"></path>
    <path d="M537 489V475" stroke="#93A39A" stroke-width="1.5" stroke-linecap="round" stroke-linejoin="round"></path>
    <path d="M530 482L537 475L544 482" stroke="#93A39A" stroke-width="1.5" stroke-linecap="round"
        stroke-linejoin="round"></path>
    <path d="M591 489V475" stroke="#93A39A" stroke-width="1.5" stroke-linecap="round" stroke-linejoin="round"></path>
    <path d="M584 482L591 475L598 482" stroke="#93A39A" stroke-width="1.5" stroke-linecap="round"
        stroke-linejoin="round"></path>
    <path
        d="M536.845 506H538.869L536.273 502.018L538.792 498.3H536.911L534.887 501.413H533.611V498.3H531.84V506H533.611V502.898H534.843L536.845 506ZM544.346 506.132C546.766 506.132 548.559 504.449 548.559 502.15C548.559 499.851 546.766 498.168 544.346 498.168C541.915 498.168 540.133 499.862 540.133 502.15C540.133 504.438 541.915 506.132 544.346 506.132ZM544.346 504.614C542.971 504.614 541.937 503.613 541.937 502.15C541.937 500.687 542.971 499.686 544.346 499.686C545.721 499.686 546.755 500.687 546.755 502.15C546.755 503.613 545.721 504.614 544.346 504.614ZM554.265 498.3H550.932V506H552.714V503.877H554.265C556.322 503.877 557.609 502.81 557.609 501.094C557.609 499.367 556.322 498.3 554.265 498.3ZM554.166 502.425H552.714V499.752H554.166C555.255 499.752 555.805 500.247 555.805 501.094C555.805 501.93 555.255 502.425 554.166 502.425ZM559.784 498.3V506H561.555V499.752H565.031V506H566.802V498.3H559.784ZM574.914 498.3L572.802 502.436L570.756 498.3H568.853L571.889 503.954L571.823 504.042C571.526 504.504 571.185 504.702 570.745 504.702C570.514 504.702 570.261 504.647 569.975 504.559L569.546 505.912C569.975 506.088 570.393 506.176 570.8 506.176C571.834 506.176 572.747 505.582 573.385 504.394L576.663 498.3H574.914ZM582.054 506.132C583.396 506.132 584.507 505.648 585.233 504.757L584.089 503.701C583.572 504.306 582.923 504.614 582.153 504.614C580.712 504.614 579.689 503.602 579.689 502.15C579.689 500.698 580.712 499.686 582.153 499.686C582.923 499.686 583.572 499.994 584.089 500.588L585.233 499.532C584.507 498.652 583.396 498.168 582.065 498.168C579.667 498.168 577.885 499.829 577.885 502.15C577.885 504.471 579.667 506.132 582.054 506.132ZM593.622 501.193H592.995L593.116 499.73H596.328V498.3H591.631L591.235 502.634H593.204C594.601 502.634 594.997 503.03 594.997 503.635C594.997 504.262 594.447 504.636 593.556 504.636C592.753 504.636 591.95 504.383 591.367 503.943L590.663 505.307C591.411 505.835 592.533 506.132 593.6 506.132C595.8 506.132 596.801 504.944 596.801 503.58C596.801 502.216 595.899 501.193 593.622 501.193Z"
        fill="#93A39A"></path>
    <path d="M480 470L480 272L397.412 272L372 298.4L372 470L480 470Z" fill="#DAE5DF"></path>
    <path d="M426 253V267" stroke="#93A39A" stroke-width="1.5" stroke-linecap="round" stroke-linejoin="round"></path>
    <path d="M433 260L426 267L419 260" stroke="#93A39A" stroke-width="1.5" stroke-linecap="round"
        stroke-linejoin="round"></path>
    <path d="M426 489V475" stroke="#93A39A" stroke-width="1.5" stroke-linecap="round" stroke-linejoin="round"></path>
    <path d="M419 482L426 475L433 482" stroke="#93A39A" stroke-width="1.5" stroke-linecap="round"
        stroke-linejoin="round"></path>
    <path
        d="M398.614 506H400.638L398.042 502.018L400.561 498.3H398.68L396.656 501.413H395.38V498.3H393.609V506H395.38V502.898H396.612L398.614 506ZM406.115 506.132C408.535 506.132 410.328 504.449 410.328 502.15C410.328 499.851 408.535 498.168 406.115 498.168C403.684 498.168 401.902 499.862 401.902 502.15C401.902 504.438 403.684 506.132 406.115 506.132ZM406.115 504.614C404.74 504.614 403.706 503.613 403.706 502.15C403.706 500.687 404.74 499.686 406.115 499.686C407.49 499.686 408.524 500.687 408.524 502.15C408.524 503.613 407.49 504.614 406.115 504.614ZM416.034 498.3H412.701V506H414.483V503.877H416.034C418.091 503.877 419.378 502.81 419.378 501.094C419.378 499.367 418.091 498.3 416.034 498.3ZM415.935 502.425H414.483V499.752H415.935C417.024 499.752 417.574 500.247 417.574 501.094C417.574 501.93 417.024 502.425 415.935 502.425ZM421.553 498.3V506H423.324V499.752H426.8V506H428.571V498.3H421.553ZM436.683 498.3L434.571 502.436L432.525 498.3H430.622L433.658 503.954L433.592 504.042C433.295 504.504 432.954 504.702 432.514 504.702C432.283 504.702 432.03 504.647 431.744 504.559L431.315 505.912C431.744 506.088 432.162 506.176 432.569 506.176C433.603 506.176 434.516 505.582 435.154 504.394L438.432 498.3H436.683ZM443.823 506.132C445.165 506.132 446.276 505.648 447.002 504.757L445.858 503.701C445.341 504.306 444.692 504.614 443.922 504.614C442.481 504.614 441.458 503.602 441.458 502.15C441.458 500.698 442.481 499.686 443.922 499.686C444.692 499.686 445.341 499.994 445.858 500.588L447.002 499.532C446.276 498.652 445.165 498.168 443.834 498.168C441.436 498.168 439.654 499.829 439.654 502.15C439.654 504.471 441.436 506.132 443.823 506.132ZM456.458 501.171C455.655 501.171 455.006 501.402 454.555 501.853C454.61 500.379 455.435 499.62 456.722 499.62C457.239 499.62 457.734 499.719 458.163 500.005L458.823 498.696C458.284 498.355 457.492 498.168 456.678 498.168C454.357 498.168 452.751 499.653 452.751 502.315C452.751 504.801 454.071 506.132 456.194 506.132C457.822 506.132 459.109 505.142 459.109 503.569C459.109 502.117 457.943 501.171 456.458 501.171ZM456.095 504.801C455.237 504.801 454.742 504.317 454.742 503.657C454.742 502.986 455.292 502.502 456.073 502.502C456.865 502.502 457.382 502.953 457.382 503.657C457.382 504.361 456.854 504.801 456.095 504.801Z"
        fill="#93A39A"></path>
    <path d="M234 470L234 272L316.588 272L342 298.4L342 470L234 470Z" fill="#DAE5DF"></path>
    <path d="M288 253V267" stroke="#93A39A" stroke-width="1.5" stroke-linecap="round" stroke-linejoin="round"></path>
    <path d="M295 260L288 267L281 260" stroke="#93A39A" stroke-width="1.5" stroke-linecap="round"
        stroke-linejoin="round"></path>
    <path d="M288 489V475" stroke="#93A39A" stroke-width="1.5" stroke-linecap="round" stroke-linejoin="round"></path>
    <path d="M281 482L288 475L295 482" stroke="#93A39A" stroke-width="1.5" stroke-linecap="round"
        stroke-linejoin="round"></path>
    <path
        d="M260.706 506H262.73L260.134 502.018L262.653 498.3H260.772L258.748 501.413H257.472V498.3H255.701V506H257.472V502.898H258.704L260.706 506ZM268.206 506.132C270.626 506.132 272.419 504.449 272.419 502.15C272.419 499.851 270.626 498.168 268.206 498.168C265.775 498.168 263.993 499.862 263.993 502.15C263.993 504.438 265.775 506.132 268.206 506.132ZM268.206 504.614C266.831 504.614 265.797 503.613 265.797 502.15C265.797 500.687 266.831 499.686 268.206 499.686C269.581 499.686 270.615 500.687 270.615 502.15C270.615 503.613 269.581 504.614 268.206 504.614ZM278.125 498.3H274.792V506H276.574V503.877H278.125C280.182 503.877 281.469 502.81 281.469 501.094C281.469 499.367 280.182 498.3 278.125 498.3ZM278.026 502.425H276.574V499.752H278.026C279.115 499.752 279.665 500.247 279.665 501.094C279.665 501.93 279.115 502.425 278.026 502.425ZM283.645 498.3V506H285.416V499.752H288.892V506H290.663V498.3H283.645ZM298.774 498.3L296.662 502.436L294.616 498.3H292.713L295.749 503.954L295.683 504.042C295.386 504.504 295.045 504.702 294.605 504.702C294.374 504.702 294.121 504.647 293.835 504.559L293.406 505.912C293.835 506.088 294.253 506.176 294.66 506.176C295.694 506.176 296.607 505.582 297.245 504.394L300.523 498.3H298.774ZM305.914 506.132C307.256 506.132 308.367 505.648 309.093 504.757L307.949 503.701C307.432 504.306 306.783 504.614 306.013 504.614C304.572 504.614 303.549 503.602 303.549 502.15C303.549 500.698 304.572 499.686 306.013 499.686C306.783 499.686 307.432 499.994 307.949 500.588L309.093 499.532C308.367 498.652 307.256 498.168 305.925 498.168C303.527 498.168 301.745 499.829 301.745 502.15C301.745 504.471 303.527 506.132 305.914 506.132ZM314.699 498.3V501.006H316.283V499.752H318.835L316.074 506H318.01L320.87 499.455V498.3H314.699Z"
        fill="#93A39A"></path>
    <path d="M96 272L96 470L204 470L204 272L96 272Z" fill="#DAE5DF"></path>
    <path d="M150 253V267" stroke="#93A39A" stroke-width="1.5" stroke-linecap="round" stroke-linejoin="round"></path>
    <path d="M157 260L150 267L143 260" stroke="#93A39A" stroke-width="1.5" stroke-linecap="round"
        stroke-linejoin="round"></path>
    <path
        d="M122.485 506H124.509L121.913 502.018L124.432 498.3H122.551L120.527 501.413H119.251V498.3H117.48V506H119.251V502.898H120.483L122.485 506ZM129.986 506.132C132.406 506.132 134.199 504.449 134.199 502.15C134.199 499.851 132.406 498.168 129.986 498.168C127.555 498.168 125.773 499.862 125.773 502.15C125.773 504.438 127.555 506.132 129.986 506.132ZM129.986 504.614C128.611 504.614 127.577 503.613 127.577 502.15C127.577 500.687 128.611 499.686 129.986 499.686C131.361 499.686 132.395 500.687 132.395 502.15C132.395 503.613 131.361 504.614 129.986 504.614ZM139.905 498.3H136.572V506H138.354V503.877H139.905C141.962 503.877 143.249 502.81 143.249 501.094C143.249 499.367 141.962 498.3 139.905 498.3ZM139.806 502.425H138.354V499.752H139.806C140.895 499.752 141.445 500.247 141.445 501.094C141.445 501.93 140.895 502.425 139.806 502.425ZM145.424 498.3V506H147.195V499.752H150.671V506H152.442V498.3H145.424ZM160.554 498.3L158.442 502.436L156.396 498.3H154.493L157.529 503.954L157.463 504.042C157.166 504.504 156.825 504.702 156.385 504.702C156.154 504.702 155.901 504.647 155.615 504.559L155.186 505.912C155.615 506.088 156.033 506.176 156.44 506.176C157.474 506.176 158.387 505.582 159.025 504.394L162.303 498.3H160.554ZM167.694 506.132C169.036 506.132 170.147 505.648 170.873 504.757L169.729 503.701C169.212 504.306 168.563 504.614 167.793 504.614C166.352 504.614 165.329 503.602 165.329 502.15C165.329 500.698 166.352 499.686 167.793 499.686C168.563 499.686 169.212 499.994 169.729 500.588L170.873 499.532C170.147 498.652 169.036 498.168 167.705 498.168C165.307 498.168 163.525 499.829 163.525 502.15C163.525 504.471 165.307 506.132 167.694 506.132ZM181.891 501.952C182.463 501.6 182.793 501.061 182.793 500.368C182.793 499.015 181.583 498.168 179.812 498.168C178.063 498.168 176.853 499.015 176.853 500.368C176.853 501.061 177.172 501.6 177.744 501.952C177.007 502.326 176.578 502.942 176.578 503.767C176.578 505.219 177.865 506.132 179.812 506.132C181.77 506.132 183.068 505.219 183.068 503.767C183.068 502.942 182.639 502.326 181.891 501.952ZM179.812 499.477C180.538 499.477 181.022 499.84 181.022 500.445C181.022 501.028 180.549 501.391 179.812 501.391C179.086 501.391 178.624 501.028 178.624 500.445C178.624 499.84 179.097 499.477 179.812 499.477ZM179.812 504.823C178.932 504.823 178.382 504.394 178.382 503.712C178.382 503.03 178.932 502.612 179.812 502.612C180.703 502.612 181.264 503.03 181.264 503.712C181.264 504.394 180.703 504.823 179.812 504.823Z"
        fill="#93A39A"></path>
    <path d="M150 489V475" stroke="#93A39A" stroke-width="1.5" stroke-linecap="round" stroke-linejoin="round"></path>
    <path d="M143 482L150 475L157 482" stroke="#93A39A" stroke-width="1.5" stroke-linecap="round"
        stroke-linejoin="round"></path>
    <path d="M479 198L397.837 198L373 172.197L373 2L390.594 2L479 106.965L479 198Z" stroke="#DAE5DF" stroke-width="2">
    </path>
    <path
        d="M398.614 217H400.638L398.042 213.018L400.561 209.3H398.68L396.656 212.413H395.38V209.3H393.609V217H395.38V213.898H396.612L398.614 217ZM406.115 217.132C408.535 217.132 410.328 215.449 410.328 213.15C410.328 210.851 408.535 209.168 406.115 209.168C403.684 209.168 401.902 210.862 401.902 213.15C401.902 215.438 403.684 217.132 406.115 217.132ZM406.115 215.614C404.74 215.614 403.706 214.613 403.706 213.15C403.706 211.687 404.74 210.686 406.115 210.686C407.49 210.686 408.524 211.687 408.524 213.15C408.524 214.613 407.49 215.614 406.115 215.614ZM416.034 209.3H412.701V217H414.483V214.877H416.034C418.091 214.877 419.378 213.81 419.378 212.094C419.378 210.367 418.091 209.3 416.034 209.3ZM415.935 213.425H414.483V210.752H415.935C417.024 210.752 417.574 211.247 417.574 212.094C417.574 212.93 417.024 213.425 415.935 213.425ZM421.553 209.3V217H423.324V210.752H426.8V217H428.571V209.3H421.553ZM436.683 209.3L434.571 213.436L432.525 209.3H430.622L433.658 214.954L433.592 215.042C433.295 215.504 432.954 215.702 432.514 215.702C432.283 215.702 432.03 215.647 431.744 215.559L431.315 216.912C431.744 217.088 432.162 217.176 432.569 217.176C433.603 217.176 434.516 216.582 435.154 215.394L438.432 209.3H436.683ZM443.823 217.132C445.165 217.132 446.276 216.648 447.002 215.757L445.858 214.701C445.341 215.306 444.692 215.614 443.922 215.614C442.481 215.614 441.458 214.602 441.458 213.15C441.458 211.698 442.481 210.686 443.922 210.686C444.692 210.686 445.341 210.994 445.858 211.588L447.002 210.532C446.276 209.652 445.165 209.168 443.834 209.168C441.436 209.168 439.654 210.829 439.654 213.15C439.654 215.471 441.436 217.132 443.823 217.132ZM455.457 209.168C453.829 209.168 452.542 210.158 452.542 211.731C452.542 213.183 453.708 214.129 455.193 214.129C455.996 214.129 456.656 213.887 457.107 213.436C457.052 214.921 456.216 215.68 454.94 215.68C454.412 215.68 453.917 215.581 453.499 215.295L452.839 216.604C453.378 216.945 454.159 217.132 454.973 217.132C457.305 217.132 458.9 215.647 458.9 212.985C458.9 210.499 457.591 209.168 455.457 209.168ZM455.589 212.798C454.797 212.798 454.28 212.347 454.28 211.643C454.28 210.939 454.808 210.499 455.567 210.499C456.414 210.499 456.909 210.983 456.909 211.643C456.909 212.314 456.37 212.798 455.589 212.798Z"
        fill="#93A39A"></path>
    <path d="M316.159 198L235 198L235 2L341 2L341 171.9L316.159 198Z" fill="#F0F5F2" stroke="#DAE5DF" stroke-width="2">
    </path>
    <path
        d="M257.73 217H259.754L257.158 213.018L259.677 209.3H257.796L255.772 212.413H254.496V209.3H252.725V217H254.496V213.898H255.728L257.73 217ZM265.23 217.132C267.65 217.132 269.443 215.449 269.443 213.15C269.443 210.851 267.65 209.168 265.23 209.168C262.799 209.168 261.017 210.862 261.017 213.15C261.017 215.438 262.799 217.132 265.23 217.132ZM265.23 215.614C263.855 215.614 262.821 214.613 262.821 213.15C262.821 211.687 263.855 210.686 265.23 210.686C266.605 210.686 267.639 211.687 267.639 213.15C267.639 214.613 266.605 215.614 265.23 215.614ZM275.149 209.3H271.816V217H273.598V214.877H275.149C277.206 214.877 278.493 213.81 278.493 212.094C278.493 210.367 277.206 209.3 275.149 209.3ZM275.05 213.425H273.598V210.752H275.05C276.139 210.752 276.689 211.247 276.689 212.094C276.689 212.93 276.139 213.425 275.05 213.425ZM280.668 209.3V217H282.439V210.752H285.915V217H287.686V209.3H280.668ZM295.798 209.3L293.686 213.436L291.64 209.3H289.737L292.773 214.954L292.707 215.042C292.41 215.504 292.069 215.702 291.629 215.702C291.398 215.702 291.145 215.647 290.859 215.559L290.43 216.912C290.859 217.088 291.277 217.176 291.684 217.176C292.718 217.176 293.631 216.582 294.269 215.394L297.547 209.3H295.798ZM302.938 217.132C304.28 217.132 305.391 216.648 306.117 215.757L304.973 214.701C304.456 215.306 303.807 215.614 303.037 215.614C301.596 215.614 300.573 214.602 300.573 213.15C300.573 211.698 301.596 210.686 303.037 210.686C303.807 210.686 304.456 210.994 304.973 211.588L306.117 210.532C305.391 209.652 304.28 209.168 302.949 209.168C300.551 209.168 298.769 210.829 298.769 213.15C298.769 215.471 300.551 217.132 302.938 217.132ZM311.514 209.3V210.73H313.054V217H314.836V209.3H311.514ZM320.474 217.132C322.377 217.132 323.774 215.691 323.774 213.15C323.774 210.609 322.377 209.168 320.474 209.168C318.582 209.168 317.174 210.609 317.174 213.15C317.174 215.691 318.582 217.132 320.474 217.132ZM320.474 215.625C319.594 215.625 318.978 214.899 318.978 213.15C318.978 211.401 319.594 210.675 320.474 210.675C321.365 210.675 321.981 211.401 321.981 213.15C321.981 214.899 321.365 215.625 320.474 215.625Z"
        fill="#93A39A"></path>
    <path
        d="M121.309 217H123.333L120.737 213.018L123.256 209.3H121.375L119.351 212.413H118.075V209.3H116.304V217H118.075V213.898H119.307L121.309 217ZM128.809 217.132C131.229 217.132 133.022 215.449 133.022 213.15C133.022 210.851 131.229 209.168 128.809 209.168C126.378 209.168 124.596 210.862 124.596 213.15C124.596 215.438 126.378 217.132 128.809 217.132ZM128.809 215.614C127.434 215.614 126.4 214.613 126.4 213.15C126.4 211.687 127.434 210.686 128.809 210.686C130.184 210.686 131.218 211.687 131.218 213.15C131.218 214.613 130.184 215.614 128.809 215.614ZM138.728 209.3H135.395V217H137.177V214.877H138.728C140.785 214.877 142.072 213.81 142.072 212.094C142.072 210.367 140.785 209.3 138.728 209.3ZM138.629 213.425H137.177V210.752H138.629C139.718 210.752 140.268 211.247 140.268 212.094C140.268 212.93 139.718 213.425 138.629 213.425ZM144.248 209.3V217H146.019V210.752H149.495V217H151.266V209.3H144.248ZM159.377 209.3L157.265 213.436L155.219 209.3H153.316L156.352 214.954L156.286 215.042C155.989 215.504 155.648 215.702 155.208 215.702C154.977 215.702 154.724 215.647 154.438 215.559L154.009 216.912C154.438 217.088 154.856 217.176 155.263 217.176C156.297 217.176 157.21 216.582 157.848 215.394L161.126 209.3H159.377ZM166.517 217.132C167.859 217.132 168.97 216.648 169.696 215.757L168.552 214.701C168.035 215.306 167.386 215.614 166.616 215.614C165.175 215.614 164.152 214.602 164.152 213.15C164.152 211.698 165.175 210.686 166.616 210.686C167.386 210.686 168.035 210.994 168.552 211.588L169.696 210.532C168.97 209.652 167.859 209.168 166.528 209.168C164.13 209.168 162.348 210.829 162.348 213.15C162.348 215.471 164.13 217.132 166.517 217.132ZM175.093 209.3V210.73H176.633V217H178.415V209.3H175.093ZM180.401 209.3V210.73H181.941V217H183.723V209.3H180.401Z"
        fill="#93A39A"></path>
    <path d="M78 40H90" stroke="#93A39A" stroke-width="1.5" stroke-linecap="round" stroke-linejoin="round"></path>
    <path d="M84 34L90 40L84 46" stroke="#93A39A" stroke-width="1.5" stroke-linecap="round" stroke-linejoin="round">
    </path>
    <g data-disabled="false" data-free="false" aria-expanded="false">
        <path d="M511 468L511 274L563 274L563 468L511 468Z" fill="#FAF2C8" stroke="#DAE5DF" stroke-width="2"></path>
        <path d="M535.423 367.3V368.73H536.963V375H538.745V367.3H535.423Z" fill="#29332D"></path>
    </g>
    <g data-disabled="false" data-free="false" aria-expanded="false">
        <path d="M565 468L565 274L579.492 274L617 325.326V468L565 468Z" fill="#FAF2C8" stroke="#DAE5DF"
            stroke-width="2"></path>
        <path
            d="M591.127 373.548L592.898 371.876C593.976 370.875 594.185 370.193 594.185 369.445C594.185 368.048 593.041 367.168 591.325 367.168C589.939 367.168 588.861 367.729 588.267 368.598L589.565 369.434C589.939 368.917 590.5 368.664 591.16 368.664C591.974 368.664 592.392 369.016 592.392 369.621C592.392 369.995 592.271 370.391 591.589 371.04L588.619 373.845V375H594.438V373.548H591.127Z"
            fill="#29332D"></path>
    </g>
    <g data-free="true" aria-expanded="false">
        <path d="M373 468L373 442L415 442V468L373 468Z" fill="#FAF2C8" stroke="#DAE5DF" stroke-width="2"></path>
        <path d="M392.423 451.3V452.73H393.963V459H395.745V451.3H392.423Z" fill="#29332D"></path>
    </g>
    <g data-free="true" aria-expanded="false">
        <path d="M373 440L373 414L415 414V440L373 440Z" fill="#FAF2C8" stroke="#DAE5DF" stroke-width="2"></path>
        <path
            d="M394.127 429.548L395.898 427.876C396.976 426.875 397.185 426.193 397.185 425.445C397.185 424.048 396.041 423.168 394.325 423.168C392.939 423.168 391.861 423.729 391.267 424.598L392.565 425.434C392.939 424.917 393.5 424.664 394.16 424.664C394.974 424.664 395.392 425.016 395.392 425.621C395.392 425.995 395.271 426.391 394.589 427.04L391.619 429.845V431H397.438V429.548H394.127Z"
            fill="#29332D"></path>
    </g>
    <g data-free="true" aria-expanded="false">
        <path d="M373 412L373 386L415 386V412L373 412Z" fill="#FAF2C8" stroke="#DAE5DF" stroke-width="2"></path>
        <path
            d="M395.271 398.435L397.009 396.455V395.3H391.619V396.73H394.897L393.313 398.523V399.7H394.127C395.139 399.7 395.568 400.063 395.568 400.646C395.568 401.273 395.018 401.636 394.127 401.636C393.324 401.636 392.51 401.383 391.927 400.943L391.234 402.307C391.982 402.835 393.093 403.132 394.171 403.132C396.36 403.132 397.361 401.944 397.361 400.646C397.361 399.513 396.657 398.655 395.271 398.435Z"
            fill="#29332D"></path>
    </g>
    <g data-free="true" aria-expanded="false">
        <path d="M373 384L373 358L415 358V384L373 384Z" fill="#FAF2C8" stroke="#DAE5DF" stroke-width="2"></path>
        <path
            d="M397.688 371.931H396.434V370.49H394.751V371.931H392.683L396.049 367.3H394.179L390.549 372.184V373.383H394.696V375H396.434V373.383H397.688V371.931Z"
            fill="#29332D"></path>
    </g>
    <g data-free="true" aria-expanded="false">
        <path d="M373 356L373 330L415 330V356L373 356Z" fill="#FAF2C8" stroke="#DAE5DF" stroke-width="2"></path>
        <path
            d="M394.298 342.193H393.671L393.792 340.73H397.004V339.3H392.307L391.911 343.634H393.88C395.277 343.634 395.673 344.03 395.673 344.635C395.673 345.262 395.123 345.636 394.232 345.636C393.429 345.636 392.626 345.383 392.043 344.943L391.339 346.307C392.087 346.835 393.209 347.132 394.276 347.132C396.476 347.132 397.477 345.944 397.477 344.58C397.477 343.216 396.575 342.193 394.298 342.193Z"
            fill="#29332D"></path>
    </g>
    <g data-free="true" aria-expanded="false">
        <path d="M373 328L373 302L415 302V328L373 328Z" fill="#FAF2C8" stroke="#DAE5DF" stroke-width="2"></path>
        <path
            d="M394.634 314.171C393.831 314.171 393.182 314.402 392.731 314.853C392.786 313.379 393.611 312.62 394.898 312.62C395.415 312.62 395.91 312.719 396.339 313.005L396.999 311.696C396.46 311.355 395.668 311.168 394.854 311.168C392.533 311.168 390.927 312.653 390.927 315.315C390.927 317.801 392.247 319.132 394.37 319.132C395.998 319.132 397.285 318.142 397.285 316.569C397.285 315.117 396.119 314.171 394.634 314.171ZM394.271 317.801C393.413 317.801 392.918 317.317 392.918 316.657C392.918 315.986 393.468 315.502 394.249 315.502C395.041 315.502 395.558 315.953 395.558 316.657C395.558 317.361 395.03 317.801 394.271 317.801Z"
            fill="#29332D"></path>
    </g>
    <g data-free="true" aria-expanded="false">
        <path d="M398.414 274H415V300L373 300L373 299.414L398.414 274Z" fill="#FAF2C8" stroke="#DAE5DF"
            stroke-width="2"></path>
        <path d="M391.375 283.3V286.006H392.959V284.752H395.511L392.75 291H394.686L397.546 284.455V283.3H391.375Z"
            fill="#29332D"></path>
    </g>
    <g data-free="true" aria-expanded="false">
        <path d="M437 300L437 274L479 274V300L437 300Z" fill="#FAF2C8" stroke="#DAE5DF" stroke-width="2"></path>
        <path
            d="M460.067 286.952C460.639 286.6 460.969 286.061 460.969 285.368C460.969 284.015 459.759 283.168 457.988 283.168C456.239 283.168 455.029 284.015 455.029 285.368C455.029 286.061 455.348 286.6 455.92 286.952C455.183 287.326 454.754 287.942 454.754 288.767C454.754 290.219 456.041 291.132 457.988 291.132C459.946 291.132 461.244 290.219 461.244 288.767C461.244 287.942 460.815 287.326 460.067 286.952ZM457.988 284.477C458.714 284.477 459.198 284.84 459.198 285.445C459.198 286.028 458.725 286.391 457.988 286.391C457.262 286.391 456.8 286.028 456.8 285.445C456.8 284.84 457.273 284.477 457.988 284.477ZM457.988 289.823C457.108 289.823 456.558 289.394 456.558 288.712C456.558 288.03 457.108 287.612 457.988 287.612C458.879 287.612 459.44 288.03 459.44 288.712C459.44 289.394 458.879 289.823 457.988 289.823Z"
            fill="#29332D"></path>
    </g>
    <g data-free="true" aria-expanded="false">
        <path d="M437 328L437 302L479 302V328L437 328Z" fill="#FAF2C8" stroke="#DAE5DF" stroke-width="2"></path>
        <path
            d="M457.633 311.168C456.005 311.168 454.718 312.158 454.718 313.731C454.718 315.183 455.884 316.129 457.369 316.129C458.172 316.129 458.832 315.887 459.283 315.436C459.228 316.921 458.392 317.68 457.116 317.68C456.588 317.68 456.093 317.581 455.675 317.295L455.015 318.604C455.554 318.945 456.335 319.132 457.149 319.132C459.481 319.132 461.076 317.647 461.076 314.985C461.076 312.499 459.767 311.168 457.633 311.168ZM457.765 314.798C456.973 314.798 456.456 314.347 456.456 313.643C456.456 312.939 456.984 312.499 457.743 312.499C458.59 312.499 459.085 312.983 459.085 313.643C459.085 314.314 458.546 314.798 457.765 314.798Z"
            fill="#29332D"></path>
    </g>
    <g data-free="true" aria-expanded="false">
        <path d="M437 356L437 330L479 330V356L437 356Z" fill="#FAF2C8" stroke="#DAE5DF" stroke-width="2"></path>
        <path
            d="M452.19 339.3V340.73H453.73V347H455.512V339.3H452.19ZM461.15 347.132C463.053 347.132 464.45 345.691 464.45 343.15C464.45 340.609 463.053 339.168 461.15 339.168C459.258 339.168 457.85 340.609 457.85 343.15C457.85 345.691 459.258 347.132 461.15 347.132ZM461.15 345.625C460.27 345.625 459.654 344.899 459.654 343.15C459.654 341.401 460.27 340.675 461.15 340.675C462.041 340.675 462.657 341.401 462.657 343.15C462.657 344.899 462.041 345.625 461.15 345.625Z"
            fill="#29332D"></path>
    </g>
    <g data-free="true" aria-expanded="false">
        <path d="M437 384L437 358L479 358V384L437 384Z" fill="#FAF2C8" stroke="#DAE5DF" stroke-width="2"></path>
        <path
            d="M453.269 367.3V368.73H454.809V375H456.591V367.3H453.269ZM458.577 367.3V368.73H460.117V375H461.899V367.3H458.577Z"
            fill="#29332D"></path>
    </g>
    <g data-free="true" aria-expanded="false">
        <path d="M437 412L437 386L479 386V412L437 412Z" fill="#FAF2C8" stroke="#DAE5DF" stroke-width="2"></path>
        <path
            d="M452.179 395.3V396.73H453.719V403H455.501V395.3H452.179ZM460.281 401.548L462.052 399.876C463.13 398.875 463.339 398.193 463.339 397.445C463.339 396.048 462.195 395.168 460.479 395.168C459.093 395.168 458.015 395.729 457.421 396.598L458.719 397.434C459.093 396.917 459.654 396.664 460.314 396.664C461.128 396.664 461.546 397.016 461.546 397.621C461.546 397.995 461.425 398.391 460.743 399.04L457.773 401.845V403H463.592V401.548H460.281Z"
            fill="#29332D"></path>
    </g>
    <g data-free="true" aria-expanded="false">
        <path d="M437 440L437 414L479 414V440L437 440Z" fill="#FAF2C8" stroke="#DAE5DF" stroke-width="2"></path>
        <path
            d="M452.168 423.3V424.73H453.708V431H455.49V423.3H452.168ZM461.425 426.435L463.163 424.455V423.3H457.773V424.73H461.051L459.467 426.523V427.7H460.281C461.293 427.7 461.722 428.063 461.722 428.646C461.722 429.273 461.172 429.636 460.281 429.636C459.478 429.636 458.664 429.383 458.081 428.943L457.388 430.307C458.136 430.835 459.247 431.132 460.325 431.132C462.514 431.132 463.515 429.944 463.515 428.646C463.515 427.513 462.811 426.655 461.425 426.435Z"
            fill="#29332D"></path>
    </g>
    <g data-free="true" aria-expanded="false">
        <path d="M437 468L437 442L479 442V468L437 468Z" fill="#FAF2C8" stroke="#DAE5DF" stroke-width="2"></path>
        <path
            d="M452.131 451.3V452.73H453.671V459H455.453V451.3H452.131ZM464.842 455.931H463.588V454.49H461.905V455.931H459.837L463.203 451.3H461.333L457.703 456.184V457.383H461.85V459H463.588V457.383H464.842V455.931Z"
            fill="#29332D"></path>
    </g>
    <g data-disabled="false" data-free="false" aria-expanded="false">
        <path d="M235 468L235 442L277 442V468L235 468Z" fill="#FAF2C8" stroke="#DAE5DF" stroke-width="2"></path>
        <path d="M254.423 451.3V452.73H255.963V459H257.745V451.3H254.423Z" fill="#29332D"></path>
    </g>
    <g data-disabled="false" data-free="false" aria-expanded="false">
        <path d="M235 440L235 414L276.214 414L276.214 440L235 440Z" fill="#FAF2C8" stroke="#DAE5DF" stroke-width="2">
        </path>
        <path
            d="M256.127 429.548L257.898 427.876C258.976 426.875 259.185 426.193 259.185 425.445C259.185 424.048 258.041 423.168 256.325 423.168C254.939 423.168 253.861 423.729 253.267 424.598L254.565 425.434C254.939 424.917 255.5 424.664 256.16 424.664C256.974 424.664 257.392 425.016 257.392 425.621C257.392 425.995 257.271 426.391 256.589 427.04L253.619 429.845V431H259.438V429.548H256.127Z"
            fill="#29332D"></path>
    </g>
    <g data-disabled="false" data-free="false" aria-expanded="false">
        <path d="M235 412L235 386L276.214 386L276.214 412L235 412Z" fill="#FAF2C8" stroke="#DAE5DF" stroke-width="2">
        </path>
        <path
            d="M257.271 398.435L259.009 396.455V395.3H253.619V396.73H256.897L255.313 398.523V399.7H256.127C257.139 399.7 257.568 400.063 257.568 400.646C257.568 401.273 257.018 401.636 256.127 401.636C255.324 401.636 254.51 401.383 253.927 400.943L253.234 402.307C253.982 402.835 255.093 403.132 256.171 403.132C258.36 403.132 259.361 401.944 259.361 400.646C259.361 399.513 258.657 398.655 257.271 398.435Z"
            fill="#29332D"></path>
    </g>
    <g data-free="true" aria-expanded="false">
        <path d="M235 384L235 358L277 358V384L235 384Z" fill="#FAF2C8" stroke="#DAE5DF" stroke-width="2"></path>
        <path
            d="M259.688 371.931H258.434V370.49H256.751V371.931H254.683L258.049 367.3H256.179L252.549 372.184V373.383H256.696V375H258.434V373.383H259.688V371.931Z"
            fill="#29332D"></path>
    </g>
    <g data-disabled="false" data-free="false" aria-expanded="false">
        <path d="M235 356L235 330L277 330V356L235 356Z" fill="#FAF2C8" stroke="#DAE5DF" stroke-width="2"></path>
        <path
            d="M256.298 342.193H255.671L255.792 340.73H259.004V339.3H254.307L253.911 343.634H255.88C257.277 343.634 257.673 344.03 257.673 344.635C257.673 345.262 257.123 345.636 256.232 345.636C255.429 345.636 254.626 345.383 254.043 344.943L253.339 346.307C254.087 346.835 255.209 347.132 256.276 347.132C258.476 347.132 259.477 345.944 259.477 344.58C259.477 343.216 258.575 342.193 256.298 342.193Z"
            fill="#29332D"></path>
    </g>
    <g data-free="true" aria-expanded="false">
        <path d="M235 328L235 302L277 302V328L235 328Z" fill="#FAF2C8" stroke="#DAE5DF" stroke-width="2"></path>
        <path
            d="M256.634 314.171C255.831 314.171 255.182 314.402 254.731 314.853C254.786 313.379 255.611 312.62 256.898 312.62C257.415 312.62 257.91 312.719 258.339 313.005L258.999 311.696C258.46 311.355 257.668 311.168 256.854 311.168C254.533 311.168 252.927 312.653 252.927 315.315C252.927 317.801 254.247 319.132 256.37 319.132C257.998 319.132 259.285 318.142 259.285 316.569C259.285 315.117 258.119 314.171 256.634 314.171ZM256.271 317.801C255.413 317.801 254.918 317.317 254.918 316.657C254.918 315.986 255.468 315.502 256.249 315.502C257.041 315.502 257.558 315.953 257.558 316.657C257.558 317.361 257.03 317.801 256.271 317.801Z"
            fill="#29332D"></path>
    </g>
    <g data-free="true" aria-expanded="false">
        <path d="M235 300L235 274L277 274V300L235 300Z" fill="#FAF2C8" stroke="#DAE5DF" stroke-width="2"></path>
        <path d="M253.375 283.3V286.006H254.959V284.752H257.511L254.75 291H256.686L259.546 284.455V283.3H253.375Z"
            fill="#29332D"></path>
    </g>
    <g data-disabled="false" data-free="false" aria-expanded="false">
        <path d="M315.586 274L341 299.414V300L299 300V274H315.586Z" fill="#FAF2C8" stroke="#DAE5DF" stroke-width="2">
        </path>
        <path
            d="M322.067 286.952C322.639 286.6 322.969 286.061 322.969 285.368C322.969 284.015 321.759 283.168 319.988 283.168C318.239 283.168 317.029 284.015 317.029 285.368C317.029 286.061 317.348 286.6 317.92 286.952C317.183 287.326 316.754 287.942 316.754 288.767C316.754 290.219 318.041 291.132 319.988 291.132C321.946 291.132 323.244 290.219 323.244 288.767C323.244 287.942 322.815 287.326 322.067 286.952ZM319.988 284.477C320.714 284.477 321.198 284.84 321.198 285.445C321.198 286.028 320.725 286.391 319.988 286.391C319.262 286.391 318.8 286.028 318.8 285.445C318.8 284.84 319.273 284.477 319.988 284.477ZM319.988 289.823C319.108 289.823 318.558 289.394 318.558 288.712C318.558 288.03 319.108 287.612 319.988 287.612C320.879 287.612 321.44 288.03 321.44 288.712C321.44 289.394 320.879 289.823 319.988 289.823Z"
            fill="#29332D"></path>
    </g>
    <g data-disabled="false" data-free="false" aria-expanded="false">
        <path d="M299 328L299 302L341 302V328L299 328Z" fill="#FAF2C8" stroke="#DAE5DF" stroke-width="2"></path>
        <path
            d="M319.633 311.168C318.005 311.168 316.718 312.158 316.718 313.731C316.718 315.183 317.884 316.129 319.369 316.129C320.172 316.129 320.832 315.887 321.283 315.436C321.228 316.921 320.392 317.68 319.116 317.68C318.588 317.68 318.093 317.581 317.675 317.295L317.015 318.604C317.554 318.945 318.335 319.132 319.149 319.132C321.481 319.132 323.076 317.647 323.076 314.985C323.076 312.499 321.767 311.168 319.633 311.168ZM319.765 314.798C318.973 314.798 318.456 314.347 318.456 313.643C318.456 312.939 318.984 312.499 319.743 312.499C320.59 312.499 321.085 312.983 321.085 313.643C321.085 314.314 320.546 314.798 319.765 314.798Z"
            fill="#29332D"></path>
    </g>
    <g data-disabled="false" data-free="false" aria-expanded="false">
        <path d="M299 356L299 330L341 330V356L299 356Z" fill="#FAF2C8" stroke="#DAE5DF" stroke-width="2"></path>
        <path
            d="M314.19 339.3V340.73H315.73V347H317.512V339.3H314.19ZM323.15 347.132C325.053 347.132 326.45 345.691 326.45 343.15C326.45 340.609 325.053 339.168 323.15 339.168C321.258 339.168 319.85 340.609 319.85 343.15C319.85 345.691 321.258 347.132 323.15 347.132ZM323.15 345.625C322.27 345.625 321.654 344.899 321.654 343.15C321.654 341.401 322.27 340.675 323.15 340.675C324.041 340.675 324.657 341.401 324.657 343.15C324.657 344.899 324.041 345.625 323.15 345.625Z"
            fill="#29332D"></path>
    </g>
    <g data-disabled="false" data-free="false" aria-expanded="false">
        <path d="M299 384L299 358L341 358V384L299 384Z" fill="#FAF2C8" stroke="#DAE5DF" stroke-width="2"></path>
        <path
            d="M315.269 367.3V368.73H316.809V375H318.591V367.3H315.269ZM320.577 367.3V368.73H322.117V375H323.899V367.3H320.577Z"
            fill="#29332D"></path>
    </g>
    <g data-disabled="false" data-free="false" aria-expanded="false">
        <path d="M299 412L299 386L341 386V412L299 412Z" fill="#FAF2C8" stroke="#DAE5DF" stroke-width="2"></path>
        <path
            d="M314.179 395.3V396.73H315.719V403H317.501V395.3H314.179ZM322.281 401.548L324.052 399.876C325.13 398.875 325.339 398.193 325.339 397.445C325.339 396.048 324.195 395.168 322.479 395.168C321.093 395.168 320.015 395.729 319.421 396.598L320.719 397.434C321.093 396.917 321.654 396.664 322.314 396.664C323.128 396.664 323.546 397.016 323.546 397.621C323.546 397.995 323.425 398.391 322.743 399.04L319.773 401.845V403H325.592V401.548H322.281Z"
            fill="#29332D"></path>
    </g>
    <g data-disabled="false" data-free="false" aria-expanded="false">
        <path d="M299 440L299 414L341 414V440L299 440Z" fill="#FAF2C8" stroke="#DAE5DF" stroke-width="2"></path>
        <path
            d="M314.168 423.3V424.73H315.708V431H317.49V423.3H314.168ZM323.425 426.435L325.163 424.455V423.3H319.773V424.73H323.051L321.467 426.523V427.7H322.281C323.293 427.7 323.722 428.063 323.722 428.646C323.722 429.273 323.172 429.636 322.281 429.636C321.478 429.636 320.664 429.383 320.081 428.943L319.388 430.307C320.136 430.835 321.247 431.132 322.325 431.132C324.514 431.132 325.515 429.944 325.515 428.646C325.515 427.513 324.811 426.655 323.425 426.435Z"
            fill="#29332D"></path>
    </g>
    <g data-disabled="false" data-free="false" aria-expanded="false">
        <path d="M299 468L299 442L341 442V468L299 468Z" fill="#FAF2C8" stroke="#DAE5DF" stroke-width="2"></path>
        <path
            d="M314.131 451.3V452.73H315.671V459H317.453V451.3H314.131ZM326.842 455.931H325.588V454.49H323.905V455.931H321.837L325.203 451.3H323.333L319.703 456.184V457.383H323.85V459H325.588V457.383H326.842V455.931Z"
            fill="#29332D"></path>
    </g>
    <g data-disabled="false" data-free="false" aria-expanded="false">
        <path d="M97 468L97 442L139 442V468L97 468Z" fill="#FAF2C8" stroke="#DAE5DF" stroke-width="2"></path>
        <path d="M116.423 451.3V452.73H117.963V459H119.745V451.3H116.423Z" fill="#29332D"></path>
    </g>
    <g data-disabled="false" data-free="false" aria-expanded="false">
        <path d="M97 440L97 414L139 414V440L97 440Z" fill="#FAF2C8" stroke="#DAE5DF" stroke-width="2"></path>
        <path
            d="M118.127 429.548L119.898 427.876C120.976 426.875 121.185 426.193 121.185 425.445C121.185 424.048 120.041 423.168 118.325 423.168C116.939 423.168 115.861 423.729 115.267 424.598L116.565 425.434C116.939 424.917 117.5 424.664 118.16 424.664C118.974 424.664 119.392 425.016 119.392 425.621C119.392 425.995 119.271 426.391 118.589 427.04L115.619 429.845V431H121.438V429.548H118.127Z"
            fill="#29332D"></path>
    </g>
    <g data-disabled="false" data-free="false" aria-expanded="false">
        <path d="M97 412L97 386L139 386V412L97 412Z" fill="#FAF2C8" stroke="#DAE5DF" stroke-width="2"></path>
        <path
            d="M119.271 398.435L121.009 396.455V395.3H115.619V396.73H118.897L117.313 398.523V399.7H118.127C119.139 399.7 119.568 400.063 119.568 400.646C119.568 401.273 119.018 401.636 118.127 401.636C117.324 401.636 116.51 401.383 115.927 400.943L115.234 402.307C115.982 402.835 117.093 403.132 118.171 403.132C120.36 403.132 121.361 401.944 121.361 400.646C121.361 399.513 120.657 398.655 119.271 398.435Z"
            fill="#29332D"></path>
    </g>
    <g data-disabled="false" data-free="false" aria-expanded="false">
        <path d="M97 384L97 358L139 358V384L97 384Z" fill="#FAF2C8" stroke="#DAE5DF" stroke-width="2"></path>
        <path
            d="M121.688 371.931H120.434V370.49H118.751V371.931H116.683L120.049 367.3H118.179L114.549 372.184V373.383H118.696V375H120.434V373.383H121.688V371.931Z"
            fill="#29332D"></path>
    </g>
    <g data-disabled="false" data-free="false" aria-expanded="false">
        <path d="M97 356L97 330L139 330V356L97 356Z" fill="#FAF2C8" stroke="#DAE5DF" stroke-width="2"></path>
        <path
            d="M118.298 342.193H117.671L117.792 340.73H121.004V339.3H116.307L115.911 343.634H117.88C119.277 343.634 119.673 344.03 119.673 344.635C119.673 345.262 119.123 345.636 118.232 345.636C117.429 345.636 116.626 345.383 116.043 344.943L115.339 346.307C116.087 346.835 117.209 347.132 118.276 347.132C120.476 347.132 121.477 345.944 121.477 344.58C121.477 343.216 120.575 342.193 118.298 342.193Z"
            fill="#29332D"></path>
    </g>
    <g data-disabled="false" data-free="false" aria-expanded="false">
        <path d="M97 328L97 302L139 302V328L97 328Z" fill="#FAF2C8" stroke="#DAE5DF" stroke-width="2"></path>
        <path
            d="M118.634 314.171C117.831 314.171 117.182 314.402 116.731 314.853C116.786 313.379 117.611 312.62 118.898 312.62C119.415 312.62 119.91 312.719 120.339 313.005L120.999 311.696C120.46 311.355 119.668 311.168 118.854 311.168C116.533 311.168 114.927 312.653 114.927 315.315C114.927 317.801 116.247 319.132 118.37 319.132C119.998 319.132 121.285 318.142 121.285 316.569C121.285 315.117 120.119 314.171 118.634 314.171ZM118.271 317.801C117.413 317.801 116.918 317.317 116.918 316.657C116.918 315.986 117.468 315.502 118.249 315.502C119.041 315.502 119.558 315.953 119.558 316.657C119.558 317.361 119.03 317.801 118.271 317.801Z"
            fill="#29332D"></path>
    </g>
    <g data-disabled="false" data-free="false" aria-expanded="false">
        <path d="M97 300L97 274L139 274V300L97 300Z" fill="#FAF2C8" stroke="#DAE5DF" stroke-width="2"></path>
        <path d="M115.375 283.3V286.006H116.959V284.752H119.511L116.75 291H118.686L121.546 284.455V283.3H115.375Z"
            fill="#29332D"></path>
    </g>
    <g data-free="true" aria-expanded="false">
        <path d="M161 300L161 274L203 274V300L161 300Z" fill="#FAF2C8" stroke="#DAE5DF" stroke-width="2"></path>
        <path
            d="M184.067 286.952C184.639 286.6 184.969 286.061 184.969 285.368C184.969 284.015 183.759 283.168 181.988 283.168C180.239 283.168 179.029 284.015 179.029 285.368C179.029 286.061 179.348 286.6 179.92 286.952C179.183 287.326 178.754 287.942 178.754 288.767C178.754 290.219 180.041 291.132 181.988 291.132C183.946 291.132 185.244 290.219 185.244 288.767C185.244 287.942 184.815 287.326 184.067 286.952ZM181.988 284.477C182.714 284.477 183.198 284.84 183.198 285.445C183.198 286.028 182.725 286.391 181.988 286.391C181.262 286.391 180.8 286.028 180.8 285.445C180.8 284.84 181.273 284.477 181.988 284.477ZM181.988 289.823C181.108 289.823 180.558 289.394 180.558 288.712C180.558 288.03 181.108 287.612 181.988 287.612C182.879 287.612 183.44 288.03 183.44 288.712C183.44 289.394 182.879 289.823 181.988 289.823Z"
            fill="#29332D"></path>
    </g>
    <g data-free="true" aria-expanded="false">
        <path d="M161 328L161 302L203 302V328L161 328Z" fill="#FAF2C8" stroke="#DAE5DF" stroke-width="2"></path>
        <path
            d="M181.633 311.168C180.005 311.168 178.718 312.158 178.718 313.731C178.718 315.183 179.884 316.129 181.369 316.129C182.172 316.129 182.832 315.887 183.283 315.436C183.228 316.921 182.392 317.68 181.116 317.68C180.588 317.68 180.093 317.581 179.675 317.295L179.015 318.604C179.554 318.945 180.335 319.132 181.149 319.132C183.481 319.132 185.076 317.647 185.076 314.985C185.076 312.499 183.767 311.168 181.633 311.168ZM181.765 314.798C180.973 314.798 180.456 314.347 180.456 313.643C180.456 312.939 180.984 312.499 181.743 312.499C182.59 312.499 183.085 312.983 183.085 313.643C183.085 314.314 182.546 314.798 181.765 314.798Z"
            fill="#29332D"></path>
    </g>
    <g data-free="true" aria-expanded="false">
        <path d="M161 356L161 330L203 330V356L161 356Z" fill="#FAF2C8" stroke="#DAE5DF" stroke-width="2"></path>
        <path
            d="M176.19 339.3V340.73H177.73V347H179.512V339.3H176.19ZM185.15 347.132C187.053 347.132 188.45 345.691 188.45 343.15C188.45 340.609 187.053 339.168 185.15 339.168C183.258 339.168 181.85 340.609 181.85 343.15C181.85 345.691 183.258 347.132 185.15 347.132ZM185.15 345.625C184.27 345.625 183.654 344.899 183.654 343.15C183.654 341.401 184.27 340.675 185.15 340.675C186.041 340.675 186.657 341.401 186.657 343.15C186.657 344.899 186.041 345.625 185.15 345.625Z"
            fill="#29332D"></path>
    </g>
    <g data-free="true" aria-expanded="false">
        <path d="M161 384L161 358L203 358V384L161 384Z" fill="#FAF2C8" stroke="#DAE5DF" stroke-width="2"></path>
        <path
            d="M177.269 367.3V368.73H178.809V375H180.591V367.3H177.269ZM182.577 367.3V368.73H184.117V375H185.899V367.3H182.577Z"
            fill="#29332D"></path>
    </g>
    <g data-free="true" aria-expanded="false">
        <path d="M161 412L161 386L203 386V412L161 412Z" fill="#FAF2C8" stroke="#DAE5DF" stroke-width="2"></path>
        <path
            d="M176.179 395.3V396.73H177.719V403H179.501V395.3H176.179ZM184.281 401.548L186.052 399.876C187.13 398.875 187.339 398.193 187.339 397.445C187.339 396.048 186.195 395.168 184.479 395.168C183.093 395.168 182.015 395.729 181.421 396.598L182.719 397.434C183.093 396.917 183.654 396.664 184.314 396.664C185.128 396.664 185.546 397.016 185.546 397.621C185.546 397.995 185.425 398.391 184.743 399.04L181.773 401.845V403H187.592V401.548H184.281Z"
            fill="#29332D"></path>
    </g>
    <g data-free="true" aria-expanded="false">
        <path d="M161 440L161 414L203 414V440L161 440Z" fill="#FAF2C8" stroke="#DAE5DF" stroke-width="2"></path>
        <path
            d="M176.168 423.3V424.73H177.708V431H179.49V423.3H176.168ZM185.425 426.435L187.163 424.455V423.3H181.773V424.73H185.051L183.467 426.523V427.7H184.281C185.293 427.7 185.722 428.063 185.722 428.646C185.722 429.273 185.172 429.636 184.281 429.636C183.478 429.636 182.664 429.383 182.081 428.943L181.388 430.307C182.136 430.835 183.247 431.132 184.325 431.132C186.514 431.132 187.515 429.944 187.515 428.646C187.515 427.513 186.811 426.655 185.425 426.435Z"
            fill="#29332D"></path>
    </g>
    <g data-disabled="false" data-free="false" aria-expanded="false">
        <path d="M161 468L161 442L203 442V468L161 468Z" fill="#FAF2C8" stroke="#DAE5DF" stroke-width="2"></path>
        <path
            d="M176.131 451.3V452.73H177.671V459H179.453V451.3H176.131ZM188.842 455.931H187.588V454.49H185.905V455.931H183.837L187.203 451.3H185.333L181.703 456.184V457.383H185.85V459H187.588V457.383H188.842V455.931Z"
            fill="#29332D"></path>
    </g>
    <g data-disabled="false" data-free="false" aria-expanded="false">
        <path d="M373 39L373 3H391.161L421.834 39H373Z" fill="#FAF2C8" stroke="#DAE5DF" stroke-width="2"></path>
        <path
            d="M379.585 17.3H381.642L383.237 19.632L384.832 17.3H386.922L384.359 20.985L387.131 25H385.03L383.237 22.448L381.466 25H379.409L382.159 21.062L379.585 17.3ZM389.679 25.088C389.385 25.088 389.132 24.989 388.92 24.791C388.714 24.5857 388.612 24.3253 388.612 24.01C388.612 23.6947 388.714 23.4417 388.92 23.251C389.132 23.053 389.385 22.954 389.679 22.954C389.979 22.954 390.232 23.053 390.438 23.251C390.643 23.4417 390.746 23.6947 390.746 24.01C390.746 24.3253 390.643 24.5857 390.438 24.791C390.232 24.989 389.979 25.088 389.679 25.088ZM392.458 23.383V22.184L396.088 17.3H397.958L394.405 22.184L393.536 21.931H399.597V23.383H392.458ZM396.605 25V23.383L396.66 21.931V20.49H398.343V25H396.605Z"
            fill="#29332D"></path>
    </g>
    <g data-disabled="false" data-free="false" aria-expanded="false">
        <path d="M2 458L2 508L52 508L52 458L2 458Z" fill="#FAF2C8" stroke="#DAE5DF" stroke-width="2"></path>
    </g>
    <g data-disabled="false" data-free="false" aria-expanded="false">
        <path d="M648 470L756 470V461.667L715.135 410L648 410L648 470Z" fill="#FAF2C8" stroke="#DAE5DF"
            stroke-width="2"></path>
    </g>
    <g data-disabled="false" data-free="false" aria-expanded="false">
        <path d="M316.159 198L235 198L235 2L341 2L341 171.9L316.159 198Z" fill="#FAF2C8" stroke="#DAE5DF"
            stroke-width="2"></path>
        <g>
            <rect x="276.5" y="89.5" width="23" height="23" rx="11.5" fill="white"></rect>
            <rect x="276.5" y="89.5" width="23" height="23" rx="11.5" stroke="#DAE5DF"></rect>
            <rect width="13.5" height="13.5" transform="translate(281.25 94.25)" fill="white"></rect>
            <path
                d="M292.371 101.925C292.371 101.925 287.901 100.913 287.901 100.913C286.569 100.612 285.733 99.2875 286.035 97.9552C286.336 96.6229 287.661 95.7874 288.993 96.0888C290.325 96.3903 291.161 97.7147 290.859 99.0468C290.708 99.7138 290.301 100.256 289.764 100.594C289.764 100.594 289.763 100.595 289.763 100.595C289.747 100.606 289.737 100.625 289.737 100.645C289.737 100.674 289.757 100.699 289.784 100.705C289.784 100.705 291.772 101.155 291.772 101.155C291.82 101.166 291.869 101.148 291.898 101.109C291.898 101.109 291.898 101.109 291.898 101.109C292.446 100.384 292.775 99.4799 292.775 98.5017C292.775 96.1982 290.975 94.3156 288.705 94.1819C288.685 94.1808 288.562 94.176 288.52 94.1754C287.515 94.1596 286.496 94.4478 285.61 95.0684C283.372 96.6354 282.828 99.7197 284.395 101.958L288.371 107.637C288.388 107.66 288.416 107.675 288.446 107.675C288.477 107.675 288.505 107.66 288.522 107.636C288.522 107.636 292.427 102.068 292.427 102.067C292.437 102.052 292.443 102.034 292.443 102.015C292.443 101.971 292.412 101.934 292.371 101.925Z"
                fill="#FABC26"></path>
        </g>
    </g>
    <g data-disabled="false" data-free="false" aria-expanded="false">
        <path d="M203 198L97 198L97 2L203 2L203 198Z" fill="#FAF2C8" stroke="#DAE5DF" stroke-width="2"></path>
        <g>
            <rect x="138.5" y="88.5" width="23" height="23" rx="11.5" fill="white"></rect>
            <path fill-rule="evenodd" clip-rule="evenodd"
                d="M150.086 93.25H149.914L149.751 93.3194L147.25 95.8264C147.142 95.9695 147.179 96.0779 147.357 96.0779L148.464 96.0779C148.644 96.0779 148.786 96.2211 148.786 96.4011V98.2618C148.786 98.4418 148.93 98.5849 149.108 98.5849H150.928C151.143 98.5849 151.287 98.4418 151.287 98.2618V96.4011C151.287 96.2211 151.429 96.0779 151.607 96.0779H152.643C152.821 96.0779 152.858 95.9695 152.75 95.8264L150.251 93.3194L150.086 93.25ZM154.216 97.3316C154.162 97.26 154.108 97.234 154.068 97.247C154.027 97.26 154.001 97.3143 154.001 97.4032L154.001 102.523C154.001 102.614 154.027 102.677 154.068 102.699C154.108 102.721 154.162 102.703 154.216 102.632L156.644 100.196C156.786 100.09 156.786 99.8733 156.644 99.7302L154.216 97.3316ZM145.999 97.1926C146.044 97.2142 146.072 97.2771 146.072 97.3682L146.072 102.595C146.072 102.686 146.044 102.74 145.999 102.757C145.956 102.775 145.894 102.757 145.821 102.703L143.356 100.196C143.215 100.09 143.215 99.873 143.356 99.7299L145.821 97.2598C145.894 97.1882 145.956 97.1709 145.999 97.1926ZM150.928 101.307H149.108C148.93 101.307 148.786 101.45 148.786 101.63L148.786 103.599C148.786 103.814 148.644 103.957 148.464 103.957L147.428 103.957C147.25 103.957 147.179 104.063 147.323 104.171L149.751 106.642C149.821 106.713 149.912 106.75 150 106.75C150.09 106.75 150.178 106.713 150.251 106.642L152.679 104.171C152.821 104.063 152.75 103.957 152.572 103.957H151.607C151.429 103.957 151.287 103.814 151.287 103.599L151.287 101.63C151.287 101.45 151.143 101.307 150.928 101.307Z"
                fill="#ED1C24"></path>
            <rect x="138.5" y="88.5" width="23" height="23" rx="11.5" stroke="#DAE5DF"></rect>
        </g>
    </g>
    <g data-disabled="false" data-free="false" aria-expanded="false">
        <path d="M0 1.98158e-06L3.85689e-06 80L50 80L50 0L0 1.98158e-06Z" fill="#FAF2C8"></path>
        <g>
            <rect x="13.5" y="28.5" width="23" height="23" rx="11.5" fill="white"></rect>
            <path
                d="M21.25 34L21.25 46M19 34L19 37.9648C19 38.2992 19.1671 38.6114 19.4453 38.7969L21.25 40L23.0547 38.7969C23.3329 38.6114 23.5 38.2992 23.5 37.9648L23.5 34"
                stroke="#29332D" stroke-linecap="round" stroke-linejoin="round"></path>
            <path
                d="M28.75 40C29.9926 40 31 38.6569 31 37C31 35.3431 29.9926 34 28.75 34C27.5074 34 26.5 35.3431 26.5 37C26.5 38.6569 27.5074 40 28.75 40ZM28.75 40L28.75 46"
                stroke="#29332D" stroke-linecap="round"></path>
            <rect x="13.5" y="28.5" width="23" height="23" rx="11.5" stroke="#DAE5DF"></rect>
        </g>
    </g>
    <g>
        <g>
            <path d="M426 197H397.426L373 171.597L373 79L426 79L426 197Z" fill="#FAF2C8" fill-opacity="0.5"
                stroke="#DAE5DF" stroke-width="2"></path>
            <path d="M373 77L373 41H423.304L453.84 77H373Z" fill="#FAF2C8" fill-opacity="0.5" stroke="#DAE5DF"
                stroke-width="2"></path>
            <path d="M428 197L428 79L455.036 79L479 107.366V197L428 197Z" fill="#FAF2C8" fill-opacity="0.5"
                stroke="#DAE5DF" stroke-width="2"></path>
        </g>
    </g>
</svg>