<svg width="230" height="840" viewBox="0 0 230 840" fill="none" xmlns="http://www.w3.org/2000/svg" font-family="Arial, sans-serif">

  <rect width="230" height="840" fill="#DAE5DF"/>

  <!-- Строка 1: П-408 | П-415 -->
  <rect x="30"  y="20"  width="100" height="50" fill="#FAE9C8" stroke="#c8b898" stroke-width="1.5"/>
  <text x="80"  y="45"  font-size="11" fill="#29332D" text-anchor="middle" dominant-baseline="middle">П-408</text>
  <rect x="130" y="20"  width="75"  height="50" fill="#FAE9C8" stroke="#c8b898" stroke-width="1.5"/>
  <text x="167" y="45"  font-size="11" fill="#29332D" text-anchor="middle" dominant-baseline="middle">П-415</text>

  <!-- Строка 2: П-409 | П-416 -->
  <rect x="30"  y="70"  width="100" height="50" fill="#FAE9C8" stroke="#c8b898" stroke-width="1.5"/>
  <text x="80"  y="95"  font-size="11" fill="#29332D" text-anchor="middle" dominant-baseline="middle">П-409</text>
  <rect x="130" y="70"  width="75"  height="50" fill="#FAE9C8" stroke="#c8b898" stroke-width="1.5"/>
  <text x="167" y="95"  font-size="11" fill="#29332D" text-anchor="middle" dominant-baseline="middle">П-416</text>

  <!-- Строки 3-4: П-410, П-411 | П-418(h=100) -->
  <rect x="30"  y="120" width="100" height="50" fill="#FAE9C8" stroke="#c8b898" stroke-width="1.5"/>
  <text x="80"  y="145" font-size="11" fill="#29332D" text-anchor="middle" dominant-baseline="middle">П-410</text>
  <rect x="30"  y="170" width="100" height="50" fill="#FAE9C8" stroke="#c8b898" stroke-width="1.5"/>
  <text x="80"  y="195" font-size="11" fill="#29332D" text-anchor="middle" dominant-baseline="middle">П-411</text>
  <rect x="130" y="120" width="75"  height="100" fill="#FAE9C8" stroke="#c8b898" stroke-width="1.5"/>
  <text x="167" y="170" font-size="11" fill="#29332D" text-anchor="middle" dominant-baseline="middle" transform="rotate(-90 167 170)">П-418</text>

  <!-- Строки 5-6: П-412(h=100) | П-419(h=100) -->
  <rect x="30"  y="220" width="100" height="100" fill="#FAE9C8" stroke="#c8b898" stroke-width="1.5"/>
  <text x="80"  y="270" font-size="11" fill="#29332D" text-anchor="middle" dominant-baseline="middle" transform="rotate(-90 80 270)">П-412</text>
  <rect x="130" y="220" width="75"  height="100" fill="#FAE9C8" stroke="#c8b898" stroke-width="1.5"/>
  <text x="167" y="270" font-size="11" fill="#29332D" text-anchor="middle" dominant-baseline="middle" transform="rotate(-90 167 270)">П-419</text>

  <!-- Строка 7: П-413 | П-420 -->
  <rect x="30"  y="320" width="100" height="50" fill="#FAE9C8" stroke="#c8b898" stroke-width="1.5"/>
  <text x="80"  y="345" font-size="11" fill="#29332D" text-anchor="middle" dominant-baseline="middle">П-413</text>
  <rect x="130" y="320" width="75"  height="50" fill="#FAE9C8" stroke="#c8b898" stroke-width="1.5"/>
  <text x="167" y="345" font-size="11" fill="#29332D" text-anchor="middle" dominant-baseline="middle">П-420</text>

  <!-- Строки 8-9: П-414(h=100) | П-421, П-436 -->
  <rect x="30"  y="370" width="100" height="100" fill="#FAE9C8" stroke="#c8b898" stroke-width="1.5"/>
  <text x="80"  y="420" font-size="11" fill="#29332D" text-anchor="middle" dominant-baseline="middle" transform="rotate(-90 80 420)">П-414</text>
  <rect x="130" y="370" width="75"  height="50" fill="#FAE9C8" stroke="#c8b898" stroke-width="1.5"/>
  <text x="167" y="395" font-size="11" fill="#29332D" text-anchor="middle" dominant-baseline="middle">П-421</text>
  <rect x="130" y="420" width="75"  height="50" fill="#FAE9C8" stroke="#c8b898" stroke-width="1.5"/>
  <text x="167" y="445" font-size="11" fill="#29332D" text-anchor="middle" dominant-baseline="middle">П-436</text>

  <!-- Строки 10-11: П-440(h=100) | П-437(h=100) -->
  <rect x="30"  y="470" width="100" height="100" fill="#FAE9C8" stroke="#c8b898" stroke-width="1.5"/>
  <text x="80"  y="520" font-size="11" fill="#29332D" text-anchor="middle" dominant-baseline="middle" transform="rotate(-90 80 520)">П-440</text>
  <rect x="130" y="470" width="75"  height="100" fill="#FAE9C8" stroke="#c8b898" stroke-width="1.5"/>
  <text x="167" y="520" font-size="11" fill="#29332D" text-anchor="middle" dominant-baseline="middle" transform="rotate(-90 167 520)">П-437</text>

  <!-- Строка 12: П-441 | П-438 -->
  <rect x="30"  y="570" width="100" height="50" fill="#FAE9C8" stroke="#c8b898" stroke-width="1.5"/>
  <text x="80"  y="595" font-size="11" fill="#29332D" text-anchor="middle" dominant-baseline="middle">П-441</text>
  <rect x="130" y="570" width="75"  height="50" fill="#FAE9C8" stroke="#c8b898" stroke-width="1.5"/>
  <text x="167" y="595" font-size="11" fill="#29332D" text-anchor="middle" dominant-baseline="middle">П-438</text>

  <!-- Строки 13-14: П-442, П-443 | П-439(h=100) -->
  <rect x="30"  y="620" width="100" height="50" fill="#FAE9C8" stroke="#c8b898" stroke-width="1.5"/>
  <text x="80"  y="645" font-size="11" fill="#29332D" text-anchor="middle" dominant-baseline="middle">П-442</text>
  <rect x="30"  y="670" width="100" height="50" fill="#FAE9C8" stroke="#c8b898" stroke-width="1.5"/>
  <text x="80"  y="695" font-size="11" fill="#29332D" text-anchor="middle" dominant-baseline="middle">П-443</text>
  <rect x="130" y="620" width="75"  height="100" fill="#FAE9C8" stroke="#c8b898" stroke-width="1.5"/>
  <text x="167" y="670" font-size="11" fill="#29332D" text-anchor="middle" dominant-baseline="middle" transform="rotate(-90 167 670)">П-439</text>

  <!-- ══════════════════════════════════
       НИЖНИЙ БЛОК y=720
       122 (x=5, w=25, h=100) — охват 2 строки
       К-22  (x=30,  w=100, h=50)
       116   (x=130, w=75,  h=50)
       П-344 (x=30,  w=100, h=50)
       96    (x=130, w=75,  h=50)
  ══════════════════════════════════ -->

  <rect x="5"   y="720" width="25"  height="100" fill="#FAE9C8" stroke="#c8b898" stroke-width="1.5"/>
  <text x="17"  y="770" font-size="10" fill="#29332D" text-anchor="middle" dominant-baseline="middle">122</text>

  <rect x="30"  y="720" width="100" height="50" fill="#FAE9C8" stroke="#c8b898" stroke-width="1.5"/>
  <text x="80"  y="745" font-size="11" fill="#29332D" text-anchor="middle" dominant-baseline="middle">К-22</text>

  <rect x="130" y="720" width="75"  height="50" fill="#FAE9C8" stroke="#c8b898" stroke-width="1.5"/>
  <text x="167" y="745" font-size="11" fill="#29332D" text-anchor="middle" dominant-baseline="middle">116</text>

  <rect x="30"  y="770" width="100" height="50" fill="#FAE9C8" stroke="#c8b898" stroke-width="1.5"/>
  <text x="80"  y="795" font-size="11" fill="#29332D" text-anchor="middle" dominant-baseline="middle">П-344</text>

  <rect x="130" y="770" width="75"  height="50" fill="#FAE9C8" stroke="#c8b898" stroke-width="1.5"/>
  <text x="167" y="795" font-size="11" fill="#29332D" text-anchor="middle" dominant-baseline="middle">96</text>

</svg>