<!DOCTYPE svg PUBLIC "-//W3C//DTD SVG 1.1//EN" "http://www.w3.org/Graphics/SVG/1.1/DTD/svg11.dtd">
<!-- Uploaded to: SVG Repo, www.svgrepo.com, Transformed by: SVG Repo Mixer Tools -->
<svg fill="#05428E" version="1.1" id="Layer_1" xmlns="http://www.w3.org/2000/svg" xmlns:xlink="http://www.w3.org/1999/xlink" viewBox="0 0 496 496" xml:space="preserve" width="64px" height="64px">
<g id="SVGRepo_bgCarrier" stroke-width="0"/>
<g id="SVGRepo_tracerCarrier" stroke-linecap="round" stroke-linejoin="round"/>
<g id="SVGRepo_iconCarrier"> <g> <g> <g> <path d="M112,0v8c0,200.576,63.376,263.136,80,276.104V440c0,30.88,25.128,56,56,56s56-25.12,56-56V284.104 c16.624-12.96,80-75.52,80-276.104V0H112z M288,440c0,22.056-17.944,40-40,40c-22.056,0-40-17.944-40-40V288h80V440z M367.648,32 H344v16h23.04c-7.864,165.816-63.488,216.2-73.6,224h-90.88c-10.112-7.8-65.736-58.184-73.608-224H328V32H128.352 c-0.144-5.248-0.272-10.536-0.32-16h239.936C367.92,21.464,367.792,26.752,367.648,32z"/> <path d="M248,464c13.232,0,24-10.768,24-24s-10.768-24-24-24s-24,10.768-24,24S234.768,464,248,464z M248,432 c4.416,0,8,3.592,8,8c0,4.408-3.584,8-8,8c-4.416,0-8-3.592-8-8C240,435.592,243.584,432,248,432z"/> <rect x="240" y="304" width="16" height="16"/> <rect x="240" y="336" width="16" height="16"/> <rect x="240" y="368" width="16" height="16"/> </g> </g> </g> </g>
</svg>