<svg xmlns="http://www.w3.org/2000/svg" viewBox="-2574.233 -416.82 2113.393 216.82" font-family="Arial, sans-serif">

  <rect x="-2557.1" y="-380" width="50" height="125" fill="rgb(240,245,242)" stroke="#DAE5DF" stroke-width="2"/>
  <text x="30" y="82" font-size="11" fill="#29332D" text-anchor="middle" dominant-baseline="middle" transform="matrix(0, -1, 1, 0, -2614.176758, -288.000061)">П-500</text>

  <rect x="-2507.1" y="-380" width="50" height="125" fill="rgb(240,245,242)" stroke="#DAE5DF" stroke-width="2"/>
  <text x="80" y="82" font-size="11" fill="#29332D" text-anchor="middle" dominant-baseline="middle" transform="matrix(0, -1, 1, 0, -2564.176758, -238.000046)">П-197</text>

  <rect x="-2457.1" y="-380" width="50" height="125" fill="rgb(240,245,242)" stroke="#DAE5DF" stroke-width="2"/>
  <text x="130" y="82" font-size="11" fill="#29332D" text-anchor="middle" dominant-baseline="middle" transform="matrix(0, -1, 1, 0, -2514.176758, -188.000046)">П-92</text>

  <rect x="-2407.1" y="-380" width="50" height="125" fill="rgb(240,245,242)" stroke="#DAE5DF" stroke-width="2"/>
  <text x="180" y="82" font-size="11" fill="#29332D" text-anchor="middle" dominant-baseline="middle" transform="matrix(0, -1, 1, 0, -2464.176758, -138.000046)">П-93</text>

  <rect x="-2357.1" y="-380" width="50" height="125" fill="rgb(240,245,242)" stroke="#DAE5DF" stroke-width="2"/>
  <text x="230" y="82" font-size="11" fill="#29332D" text-anchor="middle" dominant-baseline="middle" transform="matrix(0, -1, 1, 0, -2414.176758, -88.000046)">П-94</text>

  <rect x="-2307.1" y="-380" width="50" height="125" fill="rgb(240,245,242)" stroke="#DAE5DF" stroke-width="2"/>
  <text x="280" y="82" font-size="11" fill="#29332D" text-anchor="middle" dominant-baseline="middle" transform="matrix(0, -1, 1, 0, -2364.176758, -38.00005)">П-95</text>

  <rect x="-2257.1" y="-380" width="50" height="125" fill="rgb(240,245,242)" stroke="#DAE5DF" stroke-width="2"/>
  <text x="330" y="82" font-size="11" fill="#29332D" text-anchor="middle" dominant-baseline="middle" transform="matrix(0, -1, 1, 0, -2314.176758, 11.999951)">П-96</text>

  <rect x="-2207.1" y="-380" width="50" height="125" fill="rgb(240,245,242)" stroke="#DAE5DF" stroke-width="2"/>
  <text x="380" y="82" font-size="11" fill="#29332D" text-anchor="middle" dominant-baseline="middle" transform="matrix(0, -1, 1, 0, -2264.176758, 61.99995)">П-211</text>

  <rect x="-2157.1" y="-380" width="100" height="125" fill="rgb(240,245,242)" stroke="#DAE5DF" stroke-width="2"/>
  <text x="-2107.1" y="-318" font-size="11" fill="#29332D" text-anchor="middle" dominant-baseline="middle">П-97</text>

  <rect x="-2057.1" y="-380" width="50" height="125" fill="rgb(240,245,242)" stroke="#DAE5DF" stroke-width="2"/>
  <text x="-2031.5" y="-317.2" font-size="11" fill="#29332D" text-anchor="middle" dominant-baseline="middle">П-98</text>

  <rect x="-2006.8" y="-380" width="100" height="125" fill="rgb(240,245,242)" stroke="#DAE5DF" stroke-width="2"/>
  <text x="-1956.8" y="-318" font-size="11" fill="#29332D" text-anchor="middle" dominant-baseline="middle">П-99</text>

  <rect x="-1906.8" y="-380" width="100" height="125" fill="rgb(240,245,242)" stroke="#DAE5DF" stroke-width="2"/>
  <text x="-1856.8" y="-318" font-size="11" fill="#29332D" text-anchor="middle" dominant-baseline="middle">П-100</text>

  <rect x="-1806.8" y="-380" width="50" height="125" fill="rgb(240,245,242)" stroke="#DAE5DF" stroke-width="2"/>
  <text x="830" y="82" font-size="11" fill="#29332D" text-anchor="middle" dominant-baseline="middle" transform="matrix(0, -1, 1, 0, -1863.87207, 511.999969)">П-101</text>

  <rect x="-1756.8" y="-380" width="100" height="125" fill="rgb(240,245,242)" stroke="#DAE5DF" stroke-width="2"/>
  <text x="-1706.8" y="-318" font-size="11" fill="#29332D" text-anchor="middle" dominant-baseline="middle">П-102</text>

  <rect x="-1656.8" y="-380" width="100" height="125" fill="rgb(240,245,242)" stroke="#DAE5DF" stroke-width="2"/>
  <text x="-1606.8" y="-318" font-size="11" fill="#29332D" text-anchor="middle" dominant-baseline="middle">П-103</text>

  <rect x="-1556.8" y="-380" width="100" height="125" fill="rgb(240,245,242)" stroke="#DAE5DF" stroke-width="2"/>
  <text x="-1506.8" y="-318" font-size="11" fill="#29332D" text-anchor="middle" dominant-baseline="middle">П-104</text>

  <rect x="-1456.8" y="-380" width="50" height="125" fill="rgb(240,245,242)" stroke="#DAE5DF" stroke-width="2"/>
  <text x="1180" y="82" font-size="11" fill="#29332D" text-anchor="middle" dominant-baseline="middle" transform="matrix(0, -1, 1, 0, -1513.872192, 861.999939)">П-560</text>

  <rect x="-1406.8" y="-380" width="50" height="125" fill="rgb(240,245,242)" stroke="#DAE5DF" stroke-width="2"/>
  <text x="1230" y="82" font-size="11" fill="#29332D" text-anchor="middle" dominant-baseline="middle" transform="matrix(0, -1, 1, 0, -1463.872192, 911.999878)">П-554</text>

  <rect x="-1356.8" y="-380" width="50" height="125" fill="rgb(240,245,242)" stroke="#DAE5DF" stroke-width="2"/>
  <text x="1280" y="82" font-size="11" fill="#29332D" text-anchor="middle" dominant-baseline="middle" transform="matrix(0, -1, 1, 0, -1413.872192, 961.999878)">П-553</text>

  <rect x="-1306.8" y="-380" width="50" height="125" fill="rgb(240,245,242)" stroke="#DAE5DF" stroke-width="2"/>
  <text x="1330" y="82" font-size="11" fill="#29332D" text-anchor="middle" dominant-baseline="middle" transform="matrix(0, -1, 1, 0, -1363.872192, 1011.999878)">П-552</text>

  <rect x="-1256.8" y="-380" width="50" height="125" fill="rgb(240,245,242)" stroke="#DAE5DF" stroke-width="2"/>
  <text x="1380" y="82" font-size="11" fill="#29332D" text-anchor="middle" dominant-baseline="middle" transform="matrix(0, -1, 1, 0, -1313.872192, 1061.999878)">П-551</text>

  <rect x="-1206.8" y="-380" width="50" height="125" fill="rgb(240,245,242)" stroke="#DAE5DF" stroke-width="2"/>
  <text x="1430" y="82" font-size="11" fill="#29332D" text-anchor="middle" dominant-baseline="middle" transform="matrix(0, -1, 1, 0, -1263.872192, 1111.999878)">П-550</text>

  <rect x="-1156.8" y="-380" width="50" height="125" fill="rgb(240,245,242)" stroke="#DAE5DF" stroke-width="2"/>
  <text x="1480" y="82" font-size="11" fill="#29332D" text-anchor="middle" dominant-baseline="middle" transform="matrix(0, -1, 1, 0, -1213.872192, 1161.999878)">П-549</text>

  <rect x="-1106.8" y="-380" width="50" height="125" fill="rgb(240,245,242)" stroke="#DAE5DF" stroke-width="2"/>
  <text x="1530" y="82" font-size="11" fill="#29332D" text-anchor="middle" dominant-baseline="middle" transform="matrix(0, -1, 1, 0, -1163.872192, 1211.999878)">П-105</text>

  <rect x="-1056.8" y="-380" width="50" height="125" fill="rgb(240,245,242)" stroke="#DAE5DF" stroke-width="2"/>
  <text x="1580" y="82" font-size="11" fill="#29332D" text-anchor="middle" dominant-baseline="middle" transform="matrix(0, -1, 1, 0, -1113.872192, 1261.999878)">П-106</text>

  <rect x="-1006.8" y="-380" width="50" height="125" fill="rgb(240,245,242)" stroke="#DAE5DF" stroke-width="2"/>
  <text x="1630" y="82" font-size="11" fill="#29332D" text-anchor="middle" dominant-baseline="middle" transform="matrix(0, -1, 1, 0, -1063.872192, 1311.999878)">П-107</text>

  <rect x="-956.84" y="-380" width="100" height="125" fill="rgb(240,245,242)" stroke="#DAE5DF" stroke-width="2"/>
  <text x="-906.84" y="-318" font-size="11" fill="#29332D" text-anchor="middle" dominant-baseline="middle">П-108</text>

  <rect x="-856.84" y="-380" width="50" height="125" fill="rgb(240,245,242)" stroke="#DAE5DF" stroke-width="2"/>
  <text x="1780" y="82" font-size="11" fill="#29332D" text-anchor="middle" dominant-baseline="middle" transform="matrix(0, -1, 1, 0, -913.872192, 1461.999878)">П-109</text>

  <rect x="-806.84" y="-380" width="50" height="125" fill="rgb(240,245,242)" stroke="#DAE5DF" stroke-width="2"/>
  <text x="1830" y="82" font-size="11" fill="#29332D" text-anchor="middle" dominant-baseline="middle" transform="matrix(0, -1, 1, 0, -863.872192, 1511.999878)">П-110</text>

  <rect x="-756.84" y="-380" width="50" height="125" fill="rgb(240,245,242)" stroke="#DAE5DF" stroke-width="2"/>
  <text x="1880" y="82" font-size="11" fill="#29332D" text-anchor="middle" dominant-baseline="middle" transform="matrix(0, -1, 1, 0, -813.872192, 1561.999878)">П-111</text>

  <rect x="-706.84" y="-380" width="150" height="125" fill="rgb(240,245,242)" stroke="#DAE5DF" stroke-width="2"/>
  <text x="-630.03" y="-315.46" font-size="11" fill="#29332D" text-anchor="middle" dominant-baseline="middle">П-112</text>

  <!-- Малые ячейки -->
  <rect x="-556.72" y="-404.7" width="50" height="25" fill="rgb(240,245,242)" stroke="#DAE5DF" stroke-width="2"/>
  <text x="-531.72" y="-392.7" font-size="10" fill="#29332D" text-anchor="middle" dominant-baseline="middle">98</text>

  <rect x="-556.73" y="-380.01" width="50" height="25" fill="rgb(240,245,242)" stroke="#DAE5DF" stroke-width="2"/>
  <text x="-530.96" y="-366.81" font-size="10" fill="#29332D" text-anchor="middle" dominant-baseline="middle">9</text>

  <rect x="-556.78" y="-355.25" width="50" height="50" fill="rgb(240,245,242)" stroke="#DAE5DF" stroke-width="2"/>
  <text x="-530.61" y="-328.91" font-size="10" fill="#29332D" text-anchor="middle" dominant-baseline="middle">8</text>

  <rect x="-556.82" y="-305.38" width="50" height="50" fill="rgb(240,245,242)" stroke="#DAE5DF" stroke-width="2"/>
  <text x="-531.88" y="-279.28" font-size="10" fill="#29332D" text-anchor="middle" dominant-baseline="middle">7</text>

  <rect x="-665.64" y="-254.68" width="133.934" height="28.042" fill="rgb(240,245,242)" stroke="#DAE5DF" stroke-width="2"/>
  <text x="-594.44" y="-242.14" font-size="10" fill="#29332D" text-anchor="middle" dominant-baseline="middle">28</text>

</svg>