<svg xmlns="http://www.w3.org/2000/svg" viewBox="660.223 2659.654 314.722 928.896">
  <defs></defs>
  <rect x="522.45" y="3274.58" width="99.999" height="50" fill="rgb(240,245,242)" stroke="#DAE5DF" stroke-width="2" style="stroke-width: 2; transform-origin: 947.614px 3384.58px;" transform="matrix(0, 1, -1, 0, -137.613009, -259.416397)"></rect>
  <text x="572.453" y="3299.56" font-size="12" fill="#29332D" text-anchor="middle" dominant-baseline="middle" style="white-space: pre; stroke-width: 1; font-size: 12px; transform-origin: 947.617px 3384.56px;" transform="matrix(0, 0.999993, -1.000007, 0, -137.618564, -259.40006)">П-293</text>
  <rect x="522.45" y="3324.58" width="99.999" height="50" fill="rgb(240,245,242)" stroke="#DAE5DF" stroke-width="2" style="stroke-width: 2; transform-origin: 947.614px 3384.58px;" transform="matrix(0, 1, -1, 0, -137.613009, -259.416397)"></rect>
  <text x="572.453" y="3349.56" font-size="12" fill="#29332D" text-anchor="middle" dominant-baseline="middle" style="white-space: pre; stroke-width: 1; font-size: 12px; transform-origin: 947.617px 3384.56px;" transform="matrix(0, 0.999993, -1.000007, 0, -137.618564, -259.40006)">П-294</text>
  <rect x="622.449" y="3274.58" width="50" height="100.001" fill="rgb(240,245,242)" stroke="#DAE5DF" stroke-width="2" style="stroke-width: 2; transform-origin: 947.614px 3384.58px;" transform="matrix(0, 1, -1, 0, -137.613009, -259.416397)"></rect>
  <text x="130" y="70" font-size="12" fill="#29332D" text-anchor="middle" dominant-baseline="middle" transform="matrix(1.000007, 0, 0, 0.999993, 740.001542, 2754.991758)" style="white-space: pre; stroke-width: 1; font-size: 12px; transform-origin: 69.9969px 370.168px;">П-292</text>
  <rect x="672.449" y="3274.58" width="50" height="100.001" fill="rgb(240,245,242)" stroke="#DAE5DF" stroke-width="2" style="stroke-width: 2; transform-origin: 947.614px 3384.58px;" transform="matrix(0, 1, -1, 0, -137.613009, -259.416397)"></rect>
  <text x="180" y="70" font-size="12" fill="#29332D" text-anchor="middle" dominant-baseline="middle" transform="matrix(1.000007, 0, 0, 0.999993, 690.001602, 2804.992003)" style="white-space: pre; stroke-width: 1; font-size: 12px; transform-origin: 119.997px 320.168px;">П-291</text>
  <rect x="722.444" y="3274.58" width="50" height="100.001" fill="rgb(240,245,242)" stroke="#DAE5DF" stroke-width="2" style="stroke-width: 2; transform-origin: 947.614px 3384.58px;" transform="matrix(0, 1, -1, 0, -137.613009, -259.416397)"></rect>
  <text x="230" y="70" font-size="12" fill="#29332D" text-anchor="middle" dominant-baseline="middle" transform="matrix(1.000007, 0, 0, 0.999993, 640.001539, 2854.992004)" style="white-space: pre; stroke-width: 1; font-size: 12px; transform-origin: 169.997px 270.168px;">П-290</text>
  <rect x="772.444" y="3274.58" width="50" height="100.001" fill="rgb(240,245,242)" stroke="#DAE5DF" stroke-width="2" style="stroke-width: 2; transform-origin: 947.614px 3384.58px;" transform="matrix(0, 1, -1, 0, -137.613009, -259.416397)"></rect>
  <text x="280" y="70" font-size="12" fill="#29332D" text-anchor="middle" dominant-baseline="middle" transform="matrix(1.000007, 0, 0, 0.999993, 590.001538, 2904.992005)" style="white-space: pre; stroke-width: 1; font-size: 12px; transform-origin: 219.997px 220.168px;">П-289</text>
  <rect x="822.444" y="3274.58" width="50" height="100.001" fill="rgb(240,245,242)" stroke="#DAE5DF" stroke-width="2" style="stroke-width: 2; transform-origin: 947.614px 3384.58px;" transform="matrix(0, 1, -1, 0, -137.613009, -259.416397)"></rect>
  <text x="330" y="70" font-size="12" fill="#29332D" text-anchor="middle" dominant-baseline="middle" transform="matrix(1.000007, 0, 0, 0.999993, 540.001537, 2954.992006)" style="white-space: pre; stroke-width: 1; font-size: 12px; transform-origin: 269.997px 170.168px;">П-288</text>
  <rect x="872.443" y="3274.58" width="50" height="100.001" fill="rgb(240,245,242)" stroke="#DAE5DF" stroke-width="2" style="stroke-width: 2; transform-origin: 947.614px 3384.58px;" transform="matrix(0, 1, -1, 0, -137.613009, -259.416397)"></rect>
  <text x="380" y="70" font-size="12" fill="#29332D" text-anchor="middle" dominant-baseline="middle" transform="matrix(1.000007, 0, 0, 0.999993, 490.001567, 3004.992007)" style="white-space: pre; stroke-width: 1; font-size: 12px; transform-origin: 319.997px 120.168px;">П-287</text>
  <rect x="922.443" y="3274.58" width="50" height="100.001" fill="rgb(240,245,242)" stroke="#DAE5DF" stroke-width="2" style="stroke-width: 2; transform-origin: 947.614px 3384.58px;" transform="matrix(0, 1, -1, 0, -137.613009, -259.416397)"></rect>
  <text x="430" y="70" font-size="12" fill="#29332D" text-anchor="middle" dominant-baseline="middle" transform="matrix(1.000007, 0, 0, 0.999993, 440.001566, 3054.992008)" style="white-space: pre; stroke-width: 1; font-size: 12px; transform-origin: 369.997px 70.168px;">П-286</text>
  <rect x="972.443" y="3274.58" width="50" height="100.001" fill="rgb(240,245,242)" stroke="#DAE5DF" stroke-width="2" style="stroke-width: 2; transform-origin: 947.614px 3384.58px;" transform="matrix(0, 1, -1, 0, -137.613009, -259.416397)"></rect>
  <text x="480" y="70" font-size="12" fill="#29332D" text-anchor="middle" dominant-baseline="middle" transform="matrix(1.000007, 0, 0, 0.999993, 390.001687, 3104.991765)" style="white-space: pre; stroke-width: 1; font-size: 12px; transform-origin: 419.997px 20.1679px;">П-285</text>
  <rect x="1022.44" y="3274.58" width="50" height="100.001" fill="rgb(240,245,242)" stroke="#DAE5DF" stroke-width="2" style="stroke-width: 2; transform-origin: 947.614px 3384.58px;" transform="matrix(0, 1, -1, 0, -137.613009, -259.416397)"></rect>
  <text x="530" y="70" font-size="12" fill="#29332D" text-anchor="middle" dominant-baseline="middle" transform="matrix(1.000007, 0, 0, 0.999993, 340.001686, 3154.991766)" style="white-space: pre; stroke-width: 1; font-size: 12px; transform-origin: 469.997px -29.8321px;">П-284</text>
  <rect x="1072.44" y="3274.58" width="50" height="100.001" fill="rgb(240,245,242)" stroke="#DAE5DF" stroke-width="2" style="stroke-width: 2; transform-origin: 947.614px 3384.58px;" transform="matrix(0, 1, -1, 0, -137.613009, -259.416397)"></rect>
  <text x="580" y="70" font-size="12" fill="#29332D" text-anchor="middle" dominant-baseline="middle" transform="matrix(1.000007, 0, 0, 0.999993, 290.001563, 3204.991767)" style="white-space: pre; stroke-width: 1; font-size: 12px; transform-origin: 519.997px -79.832px;">П-283</text>
  <rect x="1122.44" y="3274.58" width="50" height="100.001" fill="rgb(240,245,242)" stroke="#DAE5DF" stroke-width="2" style="stroke-width: 2; transform-origin: 947.614px 3384.58px;" transform="matrix(0, 1, -1, 0, -137.613009, -259.416397)"></rect>
  <text x="630" y="70" font-size="12" fill="#29332D" text-anchor="middle" dominant-baseline="middle" transform="matrix(1.000007, 0, 0, 0.999993, 240.001546, 3254.991768)" style="white-space: pre; stroke-width: 1; font-size: 12px; transform-origin: 569.997px -129.832px;">П-282</text>
  <rect x="1172.44" y="3274.58" width="99.999" height="100.001" fill="rgb(240,245,242)" stroke="#DAE5DF" stroke-width="2" style="stroke-width: 2; transform-origin: 947.614px 3384.58px;" transform="matrix(0, 1, -1, 0, -137.613009, -259.416397)"></rect>
  <text x="1222.45" y="3324.56" font-size="12" fill="#29332D" text-anchor="middle" dominant-baseline="middle" style="white-space: pre; stroke-width: 1; font-size: 12px; transform-origin: 947.617px 3384.56px;" transform="matrix(0, 0.999993, -1.000007, 0, -137.618564, -259.40006)">П-281</text>
  <rect x="1272.44" y="3274.58" width="99.999" height="50" fill="rgb(240,245,242)" stroke="#DAE5DF" stroke-width="2" style="stroke-width: 2; transform-origin: 947.614px 3384.58px;" transform="matrix(0, 1, -1, 0, -137.613009, -259.416397)"></rect>
  <text x="1322.45" y="3299.56" font-size="12" fill="#29332D" text-anchor="middle" dominant-baseline="middle" style="white-space: pre; stroke-width: 1; font-size: 12px; transform-origin: 947.617px 3384.56px;" transform="matrix(0, 0.999993, -1.000007, 0, -137.618564, -259.40006)">П-351</text>
  <rect x="1272.44" y="3324.58" width="99.999" height="50" fill="rgb(240,245,242)" stroke="#DAE5DF" stroke-width="2" style="stroke-width: 2; transform-origin: 947.614px 3384.58px;" transform="matrix(0, 1, -1, 0, -137.613009, -259.416397)"></rect>
  <text x="1322.45" y="3349.56" font-size="12" fill="#29332D" text-anchor="middle" dominant-baseline="middle" style="white-space: pre; stroke-width: 1; font-size: 12px; transform-origin: 947.617px 3384.56px;" transform="matrix(0, 0.999993, -1.000007, 0, -137.618564, -259.40006)">П-352</text>
  <rect x="522.45" y="3394.58" width="99.999" height="100.001" fill="rgb(240,245,242)" stroke="#DAE5DF" stroke-width="2" style="stroke-width: 2; transform-origin: 947.614px 3384.58px;" transform="matrix(0, 1, -1, 0, -137.613009, -259.416397)"></rect>
  <text x="572.453" y="3444.56" font-size="12" fill="#29332D" text-anchor="middle" dominant-baseline="middle" style="white-space: pre; stroke-width: 1; font-size: 12px; transform-origin: 947.617px 3384.56px;" transform="matrix(0, 0.999993, -1.000007, 0, -137.618564, -259.40006)">П-361</text>
  <rect x="622.449" y="3394.58" width="99.999" height="100.001" fill="rgb(240,245,242)" stroke="#DAE5DF" stroke-width="2" style="stroke-width: 2; transform-origin: 947.614px 3384.58px;" transform="matrix(0, 1, -1, 0, -137.613009, -259.416397)"></rect>
  <text x="672.453" y="3444.56" font-size="12" fill="#29332D" text-anchor="middle" dominant-baseline="middle" style="white-space: pre; stroke-width: 1; font-size: 12px; transform-origin: 947.617px 3384.56px;" transform="matrix(0, 0.999993, -1.000007, 0, -137.618564, -259.40006)">П-360</text>
  <rect x="722.444" y="3394.58" width="50" height="100.001" fill="rgb(240,245,242)" stroke="#DAE5DF" stroke-width="2" style="stroke-width: 2; transform-origin: 947.614px 3384.58px;" transform="matrix(0, 1, -1, 0, -137.613009, -259.416397)"></rect>
  <text x="230" y="190" font-size="12" fill="#29332D" text-anchor="middle" dominant-baseline="middle" transform="matrix(1.000007, 0, 0, 0.999993, 520.001598, 2734.992001)" style="white-space: pre; stroke-width: 1; font-size: 12px; transform-origin: 289.997px 390.168px;">П-359</text>
  <rect x="772.444" y="3394.58" width="50" height="100.001" fill="rgb(240,245,242)" stroke="#DAE5DF" stroke-width="2" style="stroke-width: 2; transform-origin: 947.614px 3384.58px;" transform="matrix(0, 1, -1, 0, -137.613009, -259.416397)"></rect>
  <text x="280" y="190" font-size="12" fill="#29332D" text-anchor="middle" dominant-baseline="middle" transform="matrix(1.000007, 0, 0, 0.999993, 470.001566, 2784.992002)" style="white-space: pre; stroke-width: 1; font-size: 12px; transform-origin: 339.997px 340.168px;">П-358</text>
  <rect x="822.444" y="3394.58" width="99.999" height="100.001" fill="rgb(240,245,242)" stroke="#DAE5DF" stroke-width="2" style="stroke-width: 2; transform-origin: 947.614px 3384.58px;" transform="matrix(0, 1, -1, 0, -137.613009, -259.416397)"></rect>
  <text x="872.449" y="3444.56" font-size="12" fill="#29332D" text-anchor="middle" dominant-baseline="middle" style="white-space: pre; stroke-width: 1; font-size: 12px; transform-origin: 947.617px 3384.56px;" transform="matrix(0, 0.999993, -1.000007, 0, -137.618564, -259.40006)">П-357</text>
  <rect x="922.443" y="3394.58" width="99.999" height="100.001" fill="rgb(240,245,242)" stroke="#DAE5DF" stroke-width="2" style="stroke-width: 2; transform-origin: 947.614px 3384.58px;" transform="matrix(0, 1, -1, 0, -137.613009, -259.416397)"></rect>
  <text x="972.449" y="3444.56" font-size="12" fill="#29332D" text-anchor="middle" dominant-baseline="middle" style="white-space: pre; stroke-width: 1; font-size: 12px; transform-origin: 947.617px 3384.56px;" transform="matrix(0, 0.999993, -1.000007, 0, -137.618564, -259.40006)">П-356</text>
  <rect x="1022.44" y="3394.58" width="99.999" height="100.001" fill="rgb(240,245,242)" stroke="#DAE5DF" stroke-width="2" style="stroke-width: 2; transform-origin: 947.614px 3384.58px;" transform="matrix(0, 1, -1, 0, -137.613009, -259.416397)"></rect>
  <text x="1072.45" y="3444.56" font-size="12" fill="#29332D" text-anchor="middle" dominant-baseline="middle" style="white-space: pre; stroke-width: 1; font-size: 12px; transform-origin: 947.617px 3384.56px;" transform="matrix(0, 0.999993, -1.000007, 0, -137.618564, -259.40006)">П-355</text>
  <rect x="1122.44" y="3394.58" width="149.999" height="100.001" fill="rgb(240,245,242)" stroke="#DAE5DF" stroke-width="2" style="stroke-width: 2; transform-origin: 947.614px 3384.58px;" transform="matrix(0, 1, -1, 0, -137.613009, -259.416397)"></rect>
  <text x="1198.77" y="3444.56" font-size="12" fill="#29332D" text-anchor="middle" dominant-baseline="middle" style="white-space: pre; stroke-width: 1; font-size: 12px; transform-origin: 947.617px 3384.56px;" transform="matrix(0, 0.999993, -1.000007, 0, -137.618564, -259.40006)">П-354</text>
  <rect x="1272.77" y="3394.58" width="99.999" height="100.001" fill="rgb(240,245,242)" stroke="#DAE5DF" stroke-width="2" style="stroke-width: 2; transform-origin: 947.614px 3384.58px;" transform="matrix(0, 1, -1, 0, -137.613009, -259.416397)"></rect>
  <text x="1323.04" y="3444.56" font-size="12" fill="#29332D" text-anchor="middle" dominant-baseline="middle" style="white-space: pre; stroke-width: 1; font-size: 12px; transform-origin: 947.617px 3384.56px;" transform="matrix(0, 0.999993, -1.000007, 0, -137.618564, -259.40006)">П-353</text>
</svg>