<svg width="840" height="290" viewBox="0 0 840 290" fill="none" xmlns="http://www.w3.org/2000/svg" font-family="Arial, sans-serif">

  <!-- Верхний ряд y=20, h=125 -->
  <rect x="5"   y="20" width="25"  height="125" fill="rgb(240,245,242)" stroke="#DAE5DF" stroke-width="2"/>
  <text x="17"  y="82" font-size="11" fill="#29332D" text-anchor="middle" dominant-baseline="middle">П</text>

  <rect x="30"  y="20" width="50"  height="125" fill="rgb(240,245,242)" stroke="#DAE5DF" stroke-width="2"/>
  <text x="55"  y="82" font-size="11" fill="#29332D" text-anchor="middle" dominant-baseline="middle" transform="rotate(-90 55 82)">К-99</text>

  <rect x="80"  y="20" width="50"  height="125" fill="rgb(240,245,242)" stroke="#DAE5DF" stroke-width="2"/>
  <text x="105" y="82" font-size="11" fill="#29332D" text-anchor="middle" dominant-baseline="middle" transform="rotate(-90 105 82)">К-98</text>

  <rect x="130" y="20" width="50"  height="125" fill="rgb(240,245,242)" stroke="#DAE5DF" stroke-width="2"/>
  <text x="155" y="82" font-size="11" fill="#29332D" text-anchor="middle" dominant-baseline="middle" transform="rotate(-90 155 82)">К-97</text>

  <rect x="180" y="20" width="50"  height="125" fill="rgb(240,245,242)" stroke="#DAE5DF" stroke-width="2"/>
  <text x="205" y="82" font-size="11" fill="#29332D" text-anchor="middle" dominant-baseline="middle" transform="rotate(-90 205 82)">К-96</text>

  <rect x="230" y="20" width="100" height="125" fill="rgb(240,245,242)" stroke="#DAE5DF" stroke-width="2"/>
  <text x="280" y="82" font-size="11" fill="#29332D" text-anchor="middle" dominant-baseline="middle">П-502</text>

  <rect x="330" y="20" width="50"  height="125" fill="rgb(240,245,242)" stroke="#DAE5DF" stroke-width="2"/>
  <text x="355" y="82" font-size="11" fill="#29332D" text-anchor="middle" dominant-baseline="middle" transform="rotate(-90 355 82)">К-92</text>

  <rect x="380" y="20" width="50"  height="125" fill="rgb(240,245,242)" stroke="#DAE5DF" stroke-width="2"/>
  <text x="405" y="82" font-size="11" fill="#29332D" text-anchor="middle" dominant-baseline="middle" transform="rotate(-90 405 82)">К-89</text>

  <rect x="430" y="20" width="50"  height="125" fill="rgb(240,245,242)" stroke="#DAE5DF" stroke-width="2"/>
  <text x="455" y="82" font-size="11" fill="#29332D" text-anchor="middle" dominant-baseline="middle" transform="rotate(-90 455 82)">К-91</text>

  <rect x="480" y="20" width="50"  height="125" fill="rgb(240,245,242)" stroke="#DAE5DF" stroke-width="2"/>
  <text x="505" y="82" font-size="11" fill="#29332D" text-anchor="middle" dominant-baseline="middle" transform="rotate(-90 505 82)">К-90</text>

  <rect x="530" y="20" width="100" height="125" fill="rgb(240,245,242)" stroke="#DAE5DF" stroke-width="2"/>
  <text x="580" y="82" font-size="11" fill="#29332D" text-anchor="middle" dominant-baseline="middle">П-501</text>

  <rect x="630" y="20" width="50"  height="125" fill="rgb(240,245,242)" stroke="#DAE5DF" stroke-width="2"/>
  <text x="655" y="82" font-size="11" fill="#29332D" text-anchor="middle" dominant-baseline="middle" transform="rotate(-90 655 82)">К-87</text>

  <rect x="680" y="20" width="50"  height="125" fill="rgb(240,245,242)" stroke="#DAE5DF" stroke-width="2"/>
  <text x="705" y="82" font-size="11" fill="#29332D" text-anchor="middle" dominant-baseline="middle" transform="rotate(-90 705 82)">К-86</text>

  <rect x="730" y="20" width="50"  height="125" fill="rgb(240,245,242)" stroke="#DAE5DF" stroke-width="2"/>
  <text x="755" y="82" font-size="11" fill="#29332D" text-anchor="middle" dominant-baseline="middle" transform="rotate(-90 755 82)">К-85</text>

  <rect x="780" y="20" width="50"  height="125" fill="rgb(240,245,242)" stroke="#DAE5DF" stroke-width="2"/>
  <text x="805" y="82" font-size="11" fill="#29332D" text-anchor="middle" dominant-baseline="middle" transform="rotate(-90 805 82)">К-84</text>

  <!-- Нижний ряд y=145, h=125 -->
  <rect x="5"   y="145" width="25"  height="125" fill="rgb(240,245,242)" stroke="#DAE5DF" stroke-width="2"/>
  <text x="17"  y="207" font-size="11" fill="#29332D" text-anchor="middle" dominant-baseline="middle">3</text>

  <rect x="30"  y="145" width="50" height="125" fill="rgb(240,245,242)" stroke="#DAE5DF" stroke-width="2"/>
  <text x="55"  y="207" font-size="11" fill="#29332D" text-anchor="middle" dominant-baseline="middle" transform="rotate(-90 55 207)">К-259</text>

  <rect x="80"  y="145" width="50" height="125" fill="rgb(240,245,242)" stroke="#DAE5DF" stroke-width="2"/>
  <text x="105" y="207" font-size="11" fill="#29332D" text-anchor="middle" dominant-baseline="middle" transform="rotate(-90 105 207)">К-258</text>

  <rect x="130" y="145" width="50" height="125" fill="rgb(240,245,242)" stroke="#DAE5DF" stroke-width="2"/>
  <text x="155" y="207" font-size="11" fill="#29332D" text-anchor="middle" dominant-baseline="middle" transform="rotate(-90 155 207)">К-257</text>

  <rect x="180" y="145" width="50" height="125" fill="rgb(240,245,242)" stroke="#DAE5DF" stroke-width="2"/>
  <text x="205" y="207" font-size="11" fill="#29332D" text-anchor="middle" dominant-baseline="middle" transform="rotate(-90 205 207)">К-256</text>

  <rect x="230" y="145" width="50" height="125" fill="rgb(240,245,242)" stroke="#DAE5DF" stroke-width="2"/>
  <text x="255" y="207" font-size="11" fill="#29332D" text-anchor="middle" dominant-baseline="middle" transform="rotate(-90 255 207)">К-255</text>

  <rect x="280" y="145" width="50" height="125" fill="rgb(240,245,242)" stroke="#DAE5DF" stroke-width="2"/>
  <text x="305" y="207" font-size="11" fill="#29332D" text-anchor="middle" dominant-baseline="middle" transform="rotate(-90 305 207)">К-254</text>

  <rect x="330" y="145" width="50" height="125" fill="rgb(240,245,242)" stroke="#DAE5DF" stroke-width="2"/>
  <text x="355" y="207" font-size="11" fill="#29332D" text-anchor="middle" dominant-baseline="middle" transform="rotate(-90 355 207)">К-253</text>

  <rect x="380" y="145" width="50" height="125" fill="rgb(240,245,242)" stroke="#DAE5DF" stroke-width="2"/>
  <text x="405" y="207" font-size="11" fill="#29332D" text-anchor="middle" dominant-baseline="middle" transform="rotate(-90 405 207)">К-252</text>

  <rect x="430" y="145" width="50" height="125" fill="rgb(240,245,242)" stroke="#DAE5DF" stroke-width="2"/>
  <text x="455" y="207" font-size="11" fill="#29332D" text-anchor="middle" dominant-baseline="middle" transform="rotate(-90 455 207)">К-251</text>

  <rect x="480" y="145" width="50" height="125" fill="rgb(240,245,242)" stroke="#DAE5DF" stroke-width="2"/>
  <text x="505" y="207" font-size="11" fill="#29332D" text-anchor="middle" dominant-baseline="middle" transform="rotate(-90 505 207)">К-250</text>

  <rect x="530" y="145" width="50" height="125" fill="rgb(240,245,242)" stroke="#DAE5DF" stroke-width="2"/>
  <text x="555" y="207" font-size="11" fill="#29332D" text-anchor="middle" dominant-baseline="middle" transform="rotate(-90 555 207)">К-356</text>

  <rect x="580" y="145" width="50" height="125" fill="rgb(240,245,242)" stroke="#DAE5DF" stroke-width="2"/>
  <text x="605" y="207" font-size="11" fill="#29332D" text-anchor="middle" dominant-baseline="middle" transform="rotate(-90 605 207)">К-357</text>

  <rect x="630" y="145" width="50" height="125" fill="rgb(240,245,242)" stroke="#DAE5DF" stroke-width="2"/>
  <text x="655" y="207" font-size="11" fill="#29332D" text-anchor="middle" dominant-baseline="middle" transform="rotate(-90 655 207)">К-247</text>

  <rect x="680" y="145" width="50" height="125" fill="rgb(240,245,242)" stroke="#DAE5DF" stroke-width="2"/>
  <text x="705" y="207" font-size="11" fill="#29332D" text-anchor="middle" dominant-baseline="middle" transform="rotate(-90 705 207)">К-246</text>

  <rect x="730" y="145" width="50" height="125" fill="rgb(240,245,242)" stroke="#DAE5DF" stroke-width="2"/>
  <text x="755" y="207" font-size="11" fill="#29332D" text-anchor="middle" dominant-baseline="middle" transform="rotate(-90 755 207)">К-245</text>

  <rect x="780" y="145" width="50" height="125" fill="rgb(240,245,242)" stroke="#DAE5DF" stroke-width="2"/>
  <text x="805" y="207" font-size="11" fill="#29332D" text-anchor="middle" dominant-baseline="middle" transform="rotate(-90 805 207)">К-643</text>

</svg>