<svg xmlns="http://www.w3.org/2000/svg" viewBox="619.356 2653.615 380.644 1010.376">
  <defs></defs>
  <rect x="412.082" y="3044.61" width="99.999" height="50" fill="rgb(240,245,242)" stroke="#DAE5DF" stroke-width="2" style="stroke-width: 2; transform-origin: 887.171px 3182.03px;" transform="matrix(0, 1, -1, 0, -76.781532, -25.617506)"></rect>
  <text x="462.115" y="3070.93" font-size="11" fill="#29332D" text-anchor="middle" dominant-baseline="middle" style="white-space: pre; stroke-width: 1; font-size: 11px; transform-origin: 887.177px 3182.01px;" transform="matrix(0, 0.999993, -1.000007, 0, -76.788721, -25.596697)">К-421</text>
  <rect x="412.042" y="3144.3" width="99.999" height="50" fill="rgb(240,245,242)" stroke="#DAE5DF" stroke-width="2" style="stroke-width: 2; transform-origin: 887.171px 3182.03px;" transform="matrix(0, 1, -1, 0, -76.781532, -25.617506)"></rect>
  <rect x="412.062" y="3094.13" width="99.999" height="50" fill="rgb(240,245,242)" stroke="#DAE5DF" stroke-width="2" style="stroke-width: 2; transform-origin: 887.171px 3182.03px;" transform="matrix(0, 1, -1, 0, -76.781532, -25.617506)"></rect>
  <text x="462.355" y="3117.92" font-size="11" fill="#29332D" text-anchor="middle" dominant-baseline="middle" style="white-space: pre; stroke-width: 1; font-size: 11px; transform-origin: 887.177px 3182.01px;" transform="matrix(0, 0.999993, -1.000007, 0, -76.788721, -25.596697)">К-422</text>
  <text x="462.835" y="3167.33" font-size="11" fill="#29332D" text-anchor="middle" dominant-baseline="middle" style="white-space: pre; stroke-width: 1; font-size: 11px; transform-origin: 887.177px 3182.01px;" transform="matrix(0, 0.999993, -1.000007, 0, -76.788721, -25.596697)">К-423</text>
  <rect x="512.322" y="3044.53" width="50" height="125.001" fill="rgb(240,245,242)" stroke="#DAE5DF" stroke-width="2" style="stroke-width: 2; transform-origin: 887.171px 3182.03px;" transform="matrix(0, 1, -1, 0, -76.781532, -25.617506)"></rect>
  <text x="130" y="82" font-size="11" fill="#29332D" text-anchor="middle" dominant-baseline="middle" transform="matrix(1.000007, 0, 0, 0.999993, 755.893449, 2724.564023)" style="white-space: pre; stroke-width: 1; font-size: 11px; transform-origin: 54.4952px 431.849px;">К-407</text>
  <rect x="562.319" y="3044.53" width="99.999" height="125.001" fill="rgb(240,245,242)" stroke="#DAE5DF" stroke-width="2" style="stroke-width: 2; transform-origin: 887.171px 3182.03px;" transform="matrix(0, 1, -1, 0, -76.781532, -25.617506)"></rect>
  <text x="612.323" y="3106.51" font-size="11" fill="#29332D" text-anchor="middle" dominant-baseline="middle" style="white-space: pre; stroke-width: 1; font-size: 11px; transform-origin: 887.177px 3182.01px;" transform="matrix(0, 0.999993, -1.000007, 0, -76.788721, -25.596697)">П-476</text>
  <rect x="662.324" y="3044.53" width="149.999" height="125.001" fill="rgb(240,245,242)" stroke="#DAE5DF" stroke-width="2" style="stroke-width: 2; transform-origin: 887.171px 3182.03px;" transform="matrix(0, 1, -1, 0, -76.781532, -25.617506)"></rect>
  <text x="737.328" y="3106.51" font-size="11" fill="#29332D" text-anchor="middle" dominant-baseline="middle" style="white-space: pre; stroke-width: 1; font-size: 11px; transform-origin: 887.177px 3182.01px;" transform="matrix(0, 0.999993, -1.000007, 0, -76.788721, -25.596697)">П-475</text>
  <rect x="812.323" y="3044.53" width="50" height="125.001" fill="rgb(240,245,242)" stroke="#DAE5DF" stroke-width="2" style="stroke-width: 2; transform-origin: 887.171px 3182.03px;" transform="matrix(0, 1, -1, 0, -76.781532, -25.617506)"></rect>
  <text x="430" y="82" font-size="11" fill="#29332D" text-anchor="middle" dominant-baseline="middle" transform="matrix(1.000007, 0, 0, 0.999993, 455.893259, 3024.564029)" style="white-space: pre; stroke-width: 1; font-size: 11px; transform-origin: 354.495px 131.849px;">К-814</text>
  <rect x="862.322" y="3044.53" width="50" height="125.001" fill="rgb(240,245,242)" stroke="#DAE5DF" stroke-width="2" style="stroke-width: 2; transform-origin: 887.171px 3182.03px;" transform="matrix(0, 1, -1, 0, -76.781532, -25.617506)"></rect>
  <text x="480" y="82" font-size="11" fill="#29332D" text-anchor="middle" dominant-baseline="middle" transform="matrix(1.000007, 0, 0, 0.999993, 405.892831, 3074.564274)" style="white-space: pre; stroke-width: 1; font-size: 11px; transform-origin: 404.495px 81.8494px;">К-374</text>
  <rect x="912.322" y="3044.53" width="99.999" height="125.001" fill="rgb(240,245,242)" stroke="#DAE5DF" stroke-width="2" style="stroke-width: 2; transform-origin: 887.171px 3182.03px;" transform="matrix(0, 1, -1, 0, -76.781532, -25.617506)"></rect>
  <text x="962.328" y="3106.51" font-size="11" fill="#29332D" text-anchor="middle" dominant-baseline="middle" style="white-space: pre; stroke-width: 1; font-size: 11px; transform-origin: 887.177px 3182.01px;" transform="matrix(0, 0.999993, -1.000007, 0, -76.788721, -25.596697)">П-474</text>
  <rect x="1012.32" y="3044.53" width="99.999" height="125.001" fill="rgb(240,245,242)" stroke="#DAE5DF" stroke-width="2" style="stroke-width: 2; transform-origin: 887.171px 3182.03px;" transform="matrix(0, 1, -1, 0, -76.781532, -25.617506)"></rect>
  <text x="1062.33" y="3106.51" font-size="11" fill="#29332D" text-anchor="middle" dominant-baseline="middle" style="white-space: pre; stroke-width: 1; font-size: 11px; transform-origin: 887.177px 3182.01px;" transform="matrix(0, 0.999993, -1.000007, 0, -76.788721, -25.596697)">П-473</text>
  <rect x="1112.32" y="3044.53" width="99.999" height="125.001" fill="rgb(240,245,242)" stroke="#DAE5DF" stroke-width="2" style="stroke-width: 2; transform-origin: 887.171px 3182.03px;" transform="matrix(0, 1, -1, 0, -76.781532, -25.617506)"></rect>
  <text x="1162.33" y="3106.51" font-size="11" fill="#29332D" text-anchor="middle" dominant-baseline="middle" style="white-space: pre; stroke-width: 1; font-size: 11px; transform-origin: 887.177px 3182.01px;" transform="matrix(0, 0.999993, -1.000007, 0, -76.788721, -25.596697)">П-472</text>
  <rect x="1212.32" y="3044.53" width="50" height="125.001" fill="rgb(240,245,242)" stroke="#DAE5DF" stroke-width="2" style="stroke-width: 2; transform-origin: 887.171px 3182.03px;" transform="matrix(0, 1, -1, 0, -76.781532, -25.617506)"></rect>
  <text x="830" y="82" font-size="11" fill="#29332D" text-anchor="middle" dominant-baseline="middle" transform="matrix(1.000007, 0, 0, 0.999993, 55.893159, 3424.563793)" style="white-space: pre; stroke-width: 1; font-size: 11px; transform-origin: 754.495px -268.151px;">К-399</text>
  <rect x="1262.32" y="3044.53" width="99.999" height="101.727" fill="rgb(240,245,242)" stroke="#DAE5DF" stroke-width="2" style="stroke-width: 2; transform-origin: 887.171px 3182.03px;" transform="matrix(0, 1, -1, 0, -76.781532, -25.617506)"></rect>
  <text x="1315.09" y="3097.11" font-size="11" fill="#29332D" text-anchor="middle" dominant-baseline="middle" style="white-space: pre; stroke-width: 1; font-size: 11px; transform-origin: 887.177px 3182.01px;" transform="matrix(0, 0.999993, -1.000007, 0, -76.788721, -25.596697)">П-483</text>
  <rect x="412.022" y="3194.44" width="99.999" height="50" fill="rgb(240,245,242)" stroke="#DAE5DF" stroke-width="2" style="stroke-width: 2; transform-origin: 887.171px 3182.03px;" transform="matrix(0, 1, -1, 0, -76.781532, -25.617506)"></rect>
  <text x="462.605" y="3219.59" font-size="11" fill="#29332D" text-anchor="middle" dominant-baseline="middle" style="white-space: pre; stroke-width: 1; font-size: 11px; transform-origin: 887.177px 3182.01px;" transform="matrix(0, 0.999993, -1.000007, 0, -76.788721, -25.596697)">К-424</text>
  <rect x="412.032" y="3244.54" width="99.999" height="50" fill="rgb(240,245,242)" stroke="#DAE5DF" stroke-width="2" style="stroke-width: 2; transform-origin: 887.171px 3182.03px;" transform="matrix(0, 1, -1, 0, -76.781532, -25.617506)"></rect>
  <text x="461.805" y="3268.33" font-size="11" fill="#29332D" text-anchor="middle" dominant-baseline="middle" style="white-space: pre; stroke-width: 1; font-size: 11px; transform-origin: 887.177px 3182.01px;" transform="matrix(0, 0.999993, -1.000007, 0, -76.788721, -25.596697)">К-425</text>
  <rect x="512.322" y="3169.53" width="50" height="125.001" fill="rgb(240,245,242)" stroke="#DAE5DF" stroke-width="2" style="stroke-width: 2; transform-origin: 887.171px 3182.03px;" transform="matrix(0, 1, -1, 0, -76.781532, -25.617506)"></rect>
  <text x="130" y="207" font-size="11" fill="#29332D" text-anchor="middle" dominant-baseline="middle" transform="matrix(1.000007, 0, 0, 0.999993, 630.893446, 2599.563776)" style="white-space: pre; stroke-width: 1; font-size: 11px; transform-origin: 179.495px 556.849px;">К-409</text>
  <rect x="562.319" y="3169.53" width="50" height="125.001" fill="rgb(240,245,242)" stroke="#DAE5DF" stroke-width="2" style="stroke-width: 2; transform-origin: 887.171px 3182.03px;" transform="matrix(0, 1, -1, 0, -76.781532, -25.617506)"></rect>
  <text x="180" y="207" font-size="11" fill="#29332D" text-anchor="middle" dominant-baseline="middle" transform="matrix(1.000007, 0, 0, 0.999993, 580.893201, 2649.563533)" style="white-space: pre; stroke-width: 1; font-size: 11px; transform-origin: 229.495px 506.849px;">К-492</text>
  <rect x="612.319" y="3169.53" width="50" height="125.001" fill="rgb(240,245,242)" stroke="#DAE5DF" stroke-width="2" style="stroke-width: 2; transform-origin: 887.171px 3182.03px;" transform="matrix(0, 1, -1, 0, -76.781532, -25.617506)"></rect>
  <text x="230" y="207" font-size="11" fill="#29332D" text-anchor="middle" dominant-baseline="middle" transform="matrix(1.000007, 0, 0, 0.999993, 530.8932, 2699.563778)" style="white-space: pre; stroke-width: 1; font-size: 11px; transform-origin: 279.495px 456.849px;">К-412</text>
  <rect x="662.324" y="3169.53" width="50" height="125.001" fill="rgb(240,245,242)" stroke="#DAE5DF" stroke-width="2" style="stroke-width: 2; transform-origin: 887.171px 3182.03px;" transform="matrix(0, 1, -1, 0, -76.781532, -25.617506)"></rect>
  <text x="280" y="207" font-size="11" fill="#29332D" text-anchor="middle" dominant-baseline="middle" transform="matrix(1.000007, 0, 0, 0.999993, 480.89326, 2749.563779)" style="white-space: pre; stroke-width: 1; font-size: 11px; transform-origin: 329.495px 406.849px;">К-394</text>
  <rect x="712.323" y="3169.53" width="50" height="125.001" fill="rgb(240,245,242)" stroke="#DAE5DF" stroke-width="2" style="stroke-width: 2; transform-origin: 887.171px 3182.03px;" transform="matrix(0, 1, -1, 0, -76.781532, -25.617506)"></rect>
  <text x="330" y="207" font-size="11" fill="#29332D" text-anchor="middle" dominant-baseline="middle" transform="matrix(1.000007, 0, 0, 0.999993, 430.893228, 2799.56378)" style="white-space: pre; stroke-width: 1; font-size: 11px; transform-origin: 379.495px 356.849px;">К-395</text>
  <rect x="762.323" y="3169.53" width="50" height="125.001" fill="rgb(240,245,242)" stroke="#DAE5DF" stroke-width="2" style="stroke-width: 2; transform-origin: 887.171px 3182.03px;" transform="matrix(0, 1, -1, 0, -76.781532, -25.617506)"></rect>
  <text x="380" y="207" font-size="11" fill="#29332D" text-anchor="middle" dominant-baseline="middle" transform="matrix(1.000007, 0, 0, 0.999993, 380.893227, 2849.563781)" style="white-space: pre; stroke-width: 1; font-size: 11px; transform-origin: 429.495px 306.849px;">К-396</text>
  <rect x="812.323" y="3169.53" width="50" height="125.001" fill="rgb(240,245,242)" stroke="#DAE5DF" stroke-width="2" style="stroke-width: 2; transform-origin: 887.171px 3182.03px;" transform="matrix(0, 1, -1, 0, -76.781532, -25.617506)"></rect>
  <text x="430" y="207" font-size="11" fill="#29332D" text-anchor="middle" dominant-baseline="middle" transform="matrix(1.000007, 0, 0, 0.999993, 330.893226, 2899.563782)" style="white-space: pre; stroke-width: 1; font-size: 11px; transform-origin: 479.495px 256.849px;">К-398</text>
  <rect x="862.322" y="3169.53" width="50" height="125.001" fill="rgb(240,245,242)" stroke="#DAE5DF" stroke-width="2" style="stroke-width: 2; transform-origin: 887.171px 3182.03px;" transform="matrix(0, 1, -1, 0, -76.781532, -25.617506)"></rect>
  <text x="480" y="207" font-size="11" fill="#29332D" text-anchor="middle" dominant-baseline="middle" transform="matrix(1.000007, 0, 0, 0.999993, 280.893225, 2949.563783)" style="white-space: pre; stroke-width: 1; font-size: 11px; transform-origin: 529.495px 206.849px;">К-354</text>
  <rect x="912.322" y="3169.53" width="50" height="125.001" fill="rgb(240,245,242)" stroke="#DAE5DF" stroke-width="2" style="stroke-width: 2; transform-origin: 887.171px 3182.03px;" transform="matrix(0, 1, -1, 0, -76.781532, -25.617506)"></rect>
  <text x="530" y="207" font-size="11" fill="#29332D" text-anchor="middle" dominant-baseline="middle" transform="matrix(1.000007, 0, 0, 0.999993, 230.893178, 2999.563784)" style="white-space: pre; stroke-width: 1; font-size: 11px; transform-origin: 579.495px 156.849px;">К-355</text>
  <rect x="962.322" y="3169.53" width="50" height="125.001" fill="rgb(240,245,242)" stroke="#DAE5DF" stroke-width="2" style="stroke-width: 2; transform-origin: 887.171px 3182.03px;" transform="matrix(0, 1, -1, 0, -76.781532, -25.617506)"></rect>
  <text x="580" y="207" font-size="11" fill="#29332D" text-anchor="middle" dominant-baseline="middle" transform="matrix(1.000007, 0, 0, 0.999993, 180.893177, 3049.563785)" style="white-space: pre; stroke-width: 1; font-size: 11px; transform-origin: 629.495px 106.849px;">К-351</text>
  <rect x="1012.32" y="3169.53" width="50" height="125.001" fill="rgb(240,245,242)" stroke="#DAE5DF" stroke-width="2" style="stroke-width: 2; transform-origin: 887.171px 3182.03px;" transform="matrix(0, 1, -1, 0, -76.781532, -25.617506)"></rect>
  <text x="630" y="207" font-size="11" fill="#29332D" text-anchor="middle" dominant-baseline="middle" transform="matrix(1.000007, 0, 0, 0.999993, 130.892779, 3099.564275)" style="white-space: pre; stroke-width: 1; font-size: 11px; transform-origin: 679.495px 56.8494px;">К-352</text>
  <rect x="1062.32" y="3169.53" width="50" height="125.001" fill="rgb(240,245,242)" stroke="#DAE5DF" stroke-width="2" style="stroke-width: 2; transform-origin: 887.171px 3182.03px;" transform="matrix(0, 1, -1, 0, -76.781532, -25.617506)"></rect>
  <text x="680" y="207" font-size="11" fill="#29332D" text-anchor="middle" dominant-baseline="middle" transform="matrix(1.000007, 0, 0, 0.999993, 80.892778, 3149.564276)" style="white-space: pre; stroke-width: 1; font-size: 11px; transform-origin: 729.495px 6.84939px;">К-353</text>
  <rect x="1112.32" y="3169.53" width="50" height="125.001" fill="rgb(240,245,242)" stroke="#DAE5DF" stroke-width="2" style="stroke-width: 2; transform-origin: 887.171px 3182.03px;" transform="matrix(0, 1, -1, 0, -76.781532, -25.617506)"></rect>
  <text x="730" y="207" font-size="11" fill="#29332D" text-anchor="middle" dominant-baseline="middle" transform="matrix(1.000007, 0, 0, 0.999993, 30.892661, 3199.564277)" style="white-space: pre; stroke-width: 1; font-size: 11px; transform-origin: 779.495px -43.1505px;">К-337</text>
  <rect x="1162.32" y="3169.53" width="50" height="125.001" fill="rgb(240,245,242)" stroke="#DAE5DF" stroke-width="2" style="stroke-width: 2; transform-origin: 887.171px 3182.03px;" transform="matrix(0, 1, -1, 0, -76.781532, -25.617506)"></rect>
  <text x="780" y="207" font-size="11" fill="#29332D" text-anchor="middle" dominant-baseline="middle" transform="matrix(1.000007, 0, 0, 0.999993, -19.107253, 3249.564278)" style="white-space: pre; stroke-width: 1; font-size: 11px; transform-origin: 829.495px -93.1505px;">К-349</text>
  <rect x="1212.32" y="3169.53" width="50" height="125.001" fill="rgb(240,245,242)" stroke="#DAE5DF" stroke-width="2" style="stroke-width: 2; transform-origin: 887.171px 3182.03px;" transform="matrix(0, 1, -1, 0, -76.781532, -25.617506)"></rect>
  <text x="830" y="207" font-size="11" fill="#29332D" text-anchor="middle" dominant-baseline="middle" transform="matrix(1.000007, 0, 0, 0.999993, -69.106859, 3299.563791)" style="white-space: pre; stroke-width: 1; font-size: 11px; transform-origin: 879.495px -143.151px;">К-347</text>
  <rect x="1262.3" y="3146.36" width="99.999" height="49" fill="rgb(240,245,242)" stroke="#DAE5DF" stroke-width="2" style="stroke-width: 2; transform-origin: 887.171px 3182.03px;" transform="matrix(0, 1, -1, 0, -76.781532, -25.617506)"></rect>
  <text x="1315.62" y="3172.89" font-size="11" fill="#29332D" text-anchor="middle" dominant-baseline="middle" style="white-space: pre; stroke-width: 1; font-size: 11px; transform-origin: 887.177px 3182.01px;" transform="matrix(0, 0.999993, -1.000007, 0, -76.788721, -25.596697)">К-369</text>
  <rect x="1262.28" y="3195.76" width="99.999" height="49" fill="rgb(240,245,242)" stroke="#DAE5DF" stroke-width="2" style="stroke-width: 2; transform-origin: 887.171px 3182.03px;" transform="matrix(0, 1, -1, 0, -76.781532, -25.617506)"></rect>
  <text x="1314.44" y="3219.76" font-size="11" fill="#29332D" text-anchor="middle" dominant-baseline="middle" style="white-space: pre; stroke-width: 1; font-size: 11px; transform-origin: 887.177px 3182.01px;" transform="matrix(0, 0.999993, -1.000007, 0, -76.788721, -25.596697)">К-368</text>
  <rect x="1262.29" y="3245.53" width="99.999" height="49" fill="rgb(240,245,242)" stroke="#DAE5DF" stroke-width="2" style="stroke-width: 2; transform-origin: 887.171px 3182.03px;" transform="matrix(0, 1, -1, 0, -76.781532, -25.617506)"></rect>
  <text x="1314.04" y="3270.5" font-size="11" fill="#29332D" text-anchor="middle" dominant-baseline="middle" style="white-space: pre; stroke-width: 1; font-size: 11px; transform-origin: 887.177px 3182.01px;" transform="matrix(0, 0.999993, -1.000007, 0, -76.788721, -25.596697)">К-367</text>
  <rect x="1304.05" y="3294.53" width="58.264" height="25" fill="rgb(240,245,242)" stroke="#DAE5DF" stroke-width="2" style="stroke-width: 2; transform-origin: 887.171px 3182.03px;" transform="matrix(0, 1, -1, 0, -76.781532, -25.617506)"></rect>
  <text x="1334.68" y="3306.51" font-size="10" fill="#29332D" text-anchor="middle" dominant-baseline="middle" style="white-space: pre; stroke-width: 1; font-size: 10px; transform-origin: 887.177px 3182.01px;" transform="matrix(0, 0.999993, -1.000007, 0, -76.788721, -25.596697)">кп</text>
</svg>