<svg xmlns="http://www.w3.org/2000/svg" viewBox="668.18 3900 354.892 623.486">
  <defs></defs>
  <rect x="525.546" y="3759.59" width="50" height="125.001" fill="rgb(240,245,242)" stroke="#DAE5DF" stroke-width="2" style="stroke-width: 2; transform-origin: 800.696px 3884.6px;" transform="matrix(0, 1, -1, 0, 44.2949, 340.246044)"></rect>
  <text x="30" y="82" font-size="12" fill="#29332D" text-anchor="middle" dominant-baseline="middle" transform="matrix(1.000007, 0, 0, 0.999993, 878.008564, 3892.69686)" style="white-space: pre; stroke-width: 1; font-size: 12px; transform-origin: -33.0127px 332.152px;">П-323</text>
  <rect x="575.545" y="3759.59" width="99.999" height="125.001" fill="rgb(240,245,242)" stroke="#DAE5DF" stroke-width="2" style="stroke-width: 2; transform-origin: 800.696px 3884.6px;" transform="matrix(0, 1, -1, 0, 44.2949, 340.246044)"></rect>
  <text x="625.553" y="3821.56" font-size="12" fill="#29332D" text-anchor="middle" dominant-baseline="middle" style="white-space: pre; stroke-width: 1; font-size: 12px; transform-origin: 800.704px 3884.57px;" transform="matrix(0, 0.999993, -1.000007, 0, 44.290235, 340.279853)">П-324</text>
  <rect x="675.775" y="3759.59" width="50" height="125.001" fill="rgb(240,245,242)" stroke="#DAE5DF" stroke-width="2" style="stroke-width: 2; transform-origin: 800.696px 3884.6px;" transform="matrix(0, 1, -1, 0, 44.2949, 340.246044)"></rect>
  <text x="230" y="82" font-size="12" fill="#29332D" text-anchor="middle" dominant-baseline="middle" transform="matrix(1.000007, 0, 0, 0.999993, 678.008193, 4042.922449)" style="white-space: pre; stroke-width: 1; font-size: 12px; transform-origin: 166.987px 181.926px;">П-325</text>
  <rect x="725.774" y="3759.59" width="50" height="125.001" fill="rgb(240,245,242)" stroke="#DAE5DF" stroke-width="2" style="stroke-width: 2; transform-origin: 800.696px 3884.6px;" transform="matrix(0, 1, -1, 0, 44.2949, 340.246044)"></rect>
  <text x="280" y="82" font-size="12" fill="#29332D" text-anchor="middle" dominant-baseline="middle" transform="matrix(1.000007, 0, 0, 0.999993, 628.008192, 4092.92245)" style="white-space: pre; stroke-width: 1; font-size: 12px; transform-origin: 216.987px 131.926px;">П-326</text>
  <rect x="775.774" y="3759.59" width="50" height="125.001" fill="rgb(240,245,242)" stroke="#DAE5DF" stroke-width="2" style="stroke-width: 2; transform-origin: 800.696px 3884.6px;" transform="matrix(0, 1, -1, 0, 44.2949, 340.246044)"></rect>
  <text x="330" y="82" font-size="12" fill="#29332D" text-anchor="middle" dominant-baseline="middle" transform="matrix(1.000007, 0, 0, 0.999993, 578.007764, 4142.922939)" style="white-space: pre; stroke-width: 1; font-size: 12px; transform-origin: 266.987px 81.9264px;">П-327</text>
  <rect x="825.774" y="3759.59" width="50" height="125.001" fill="rgb(240,245,242)" stroke="#DAE5DF" stroke-width="2" style="stroke-width: 2; transform-origin: 800.696px 3884.6px;" transform="matrix(0, 1, -1, 0, 44.2949, 340.246044)"></rect>
  <text x="380" y="82" font-size="12" fill="#29332D" text-anchor="middle" dominant-baseline="middle" transform="matrix(1.000007, 0, 0, 0.999993, 528.007763, 4192.92294)" style="white-space: pre; stroke-width: 1; font-size: 12px; transform-origin: 316.987px 31.9264px;">П-328</text>
  <rect x="875.773" y="3759.59" width="50" height="125.001" fill="rgb(240,245,242)" stroke="#DAE5DF" stroke-width="2" style="stroke-width: 2; transform-origin: 800.696px 3884.6px;" transform="matrix(0, 1, -1, 0, 44.2949, 340.246044)"></rect>
  <text x="430" y="82" font-size="12" fill="#29332D" text-anchor="middle" dominant-baseline="middle" transform="matrix(1.000007, 0, 0, 0.999993, 478.007701, 4242.922941)" style="white-space: pre; stroke-width: 1; font-size: 12px; transform-origin: 366.987px -18.0736px;">П-329</text>
  <rect x="925.773" y="3759.59" width="50" height="125.001" fill="rgb(240,245,242)" stroke="#DAE5DF" stroke-width="2" style="stroke-width: 2; transform-origin: 800.696px 3884.6px;" transform="matrix(0, 1, -1, 0, 44.2949, 340.246044)"></rect>
  <text x="480" y="82" font-size="12" fill="#29332D" text-anchor="middle" dominant-baseline="middle" transform="matrix(1.000007, 0, 0, 0.999993, 428.0077, 4292.922943)" style="white-space: pre; stroke-width: 1; font-size: 12px; transform-origin: 416.987px -68.0736px;">П-330</text>
  <rect x="975.773" y="3759.59" width="50" height="125.001" fill="rgb(240,245,242)" stroke="#DAE5DF" stroke-width="2" style="stroke-width: 2; transform-origin: 800.696px 3884.6px;" transform="matrix(0, 1, -1, 0, 44.2949, 340.246044)"></rect>
  <text x="530" y="82" font-size="12" fill="#29332D" text-anchor="middle" dominant-baseline="middle" transform="matrix(1.000007, 0, 0, 0.999993, 378.008095, 4342.922455)" style="white-space: pre; stroke-width: 1; font-size: 12px; transform-origin: 466.987px -118.074px;">П-331</text>
  <rect x="1025.77" y="3739.61" width="50" height="145.001" fill="rgb(240,245,242)" stroke="#DAE5DF" stroke-width="2" style="stroke-width: 2; transform-origin: 800.696px 3884.6px;" transform="matrix(0, 1, -1, 0, 44.2949, 340.246044)"></rect>
  <text x="580" y="82" font-size="12" fill="#29332D" text-anchor="middle" dominant-baseline="middle" transform="matrix(1.000007, 0, 0, 0.999993, 346.3899, 4394.241304)" style="white-space: pre; stroke-width: 1; font-size: 12px; transform-origin: 498.605px -169.391px;">К-160</text>
  <rect x="525.546" y="3904.59" width="50" height="125.001" fill="rgb(240,245,242)" stroke="#DAE5DF" stroke-width="2" style="stroke-width: 2; transform-origin: 800.696px 3884.6px;" transform="matrix(0, 1, -1, 0, 44.2949, 340.246044)"></rect>
  <text x="30" y="227" font-size="12" fill="#29332D" text-anchor="middle" dominant-baseline="middle" transform="matrix(1.000007, 0, 0, 0.999993, 733.008255, 3747.696613)" style="white-space: pre; stroke-width: 1; font-size: 12px; transform-origin: 111.987px 477.152px;">П-220</text>
  <rect x="575.545" y="3904.59" width="50" height="125.001" fill="rgb(240,245,242)" stroke="#DAE5DF" stroke-width="2" style="stroke-width: 2; transform-origin: 800.696px 3884.6px;" transform="matrix(0, 1, -1, 0, 44.2949, 340.246044)"></rect>
  <text x="80" y="227" font-size="12" fill="#29332D" text-anchor="middle" dominant-baseline="middle" transform="matrix(1.000007, 0, 0, 0.999993, 683.008254, 3797.696614)" style="white-space: pre; stroke-width: 1; font-size: 12px; transform-origin: 161.987px 427.152px;">П-219</text>
  <rect x="625.549" y="3904.59" width="50" height="125.001" fill="rgb(240,245,242)" stroke="#DAE5DF" stroke-width="2" style="stroke-width: 2; transform-origin: 800.696px 3884.6px;" transform="matrix(0, 1, -1, 0, 44.2949, 340.246044)"></rect>
  <text x="130" y="227" font-size="12" fill="#29332D" text-anchor="middle" dominant-baseline="middle" transform="matrix(1.000007, 0, 0, 0.999993, 633.008253, 3847.696615)" style="white-space: pre; stroke-width: 1; font-size: 12px; transform-origin: 211.987px 377.152px;">П-218</text>
  <rect x="675.549" y="3904.59" width="50" height="125.001" fill="rgb(240,245,242)" stroke="#DAE5DF" stroke-width="2" style="stroke-width: 2; transform-origin: 800.696px 3884.6px;" transform="matrix(0, 1, -1, 0, 44.2949, 340.246044)"></rect>
  <text x="180" y="227" font-size="12" fill="#29332D" text-anchor="middle" dominant-baseline="middle" transform="matrix(1.000007, 0, 0, 0.999993, 583.008252, 3897.696616)" style="white-space: pre; stroke-width: 1; font-size: 12px; transform-origin: 261.987px 327.152px;">П-217</text>
  <rect x="725.548" y="3904.59" width="99.999" height="125.001" fill="rgb(240,245,242)" stroke="#DAE5DF" stroke-width="2" style="stroke-width: 2; transform-origin: 800.696px 3884.6px;" transform="matrix(0, 1, -1, 0, 44.2949, 340.246044)"></rect>
  <text x="775.553" y="3966.56" font-size="12" fill="#29332D" text-anchor="middle" dominant-baseline="middle" style="white-space: pre; stroke-width: 1; font-size: 12px; transform-origin: 800.704px 3884.57px;" transform="matrix(0, 0.999993, -1.000007, 0, 44.290235, 340.279853)">П-216</text>
  <rect x="825.853" y="3904.59" width="50" height="125.001" fill="rgb(240,245,242)" stroke="#DAE5DF" stroke-width="2" style="stroke-width: 2; transform-origin: 800.696px 3884.6px;" transform="matrix(0, 1, -1, 0, 44.2949, 340.246044)"></rect>
  <text x="380" y="227" font-size="12" fill="#29332D" text-anchor="middle" dominant-baseline="middle" transform="matrix(1.000007, 0, 0, 0.999993, 383.008004, 4048.002039)" style="white-space: pre; stroke-width: 1; font-size: 12px; transform-origin: 461.987px 176.847px;">П-215</text>
  <rect x="875.852" y="3904.59" width="50" height="125.001" fill="rgb(240,245,242)" stroke="#DAE5DF" stroke-width="2" style="stroke-width: 2; transform-origin: 800.696px 3884.6px;" transform="matrix(0, 1, -1, 0, 44.2949, 340.246044)"></rect>
  <text x="430" y="227" font-size="12" fill="#29332D" text-anchor="middle" dominant-baseline="middle" transform="matrix(1.000007, 0, 0, 0.999993, 333.007759, 4098.00204)" style="white-space: pre; stroke-width: 1; font-size: 12px; transform-origin: 511.987px 126.847px;">П-214</text>
  <rect x="925.852" y="3904.59" width="50" height="125.001" fill="rgb(240,245,242)" stroke="#DAE5DF" stroke-width="2" style="stroke-width: 2; transform-origin: 800.696px 3884.6px;" transform="matrix(0, 1, -1, 0, 44.2949, 340.246044)"></rect>
  <text x="480" y="227" font-size="12" fill="#29332D" text-anchor="middle" dominant-baseline="middle" transform="matrix(1.000007, 0, 0, 0.999993, 283.007788, 4148.002041)" style="white-space: pre; stroke-width: 1; font-size: 12px; transform-origin: 561.987px 76.8472px;">П-213</text>
  <rect x="975.852" y="3904.59" width="50" height="125.001" fill="rgb(240,245,242)" stroke="#DAE5DF" stroke-width="2" style="stroke-width: 2; transform-origin: 800.696px 3884.6px;" transform="matrix(0, 1, -1, 0, 44.2949, 340.246044)"></rect>
  <text x="530" y="227" font-size="12" fill="#29332D" text-anchor="middle" dominant-baseline="middle" transform="matrix(1.000007, 0, 0, 0.999993, 233.007863, 4198.002042)" style="white-space: pre; stroke-width: 1; font-size: 12px; transform-origin: 611.987px 26.8472px;">П-212</text>
  <rect x="1025.85" y="3884.49" width="50" height="145.099" fill="rgb(240,245,242)" stroke="#DAE5DF" stroke-width="2" style="stroke-width: 2; transform-origin: 800.696px 3884.6px;" transform="matrix(0, 1, -1, 0, 44.2949, 340.246044)"></rect>
  <text x="580" y="227" font-size="12" fill="#29332D" text-anchor="middle" dominant-baseline="middle" transform="matrix(1.000007, 0, 0, 0.999993, 198.992405, 4250.399992)" style="white-space: pre; stroke-width: 1; font-size: 12px; transform-origin: 646.003px -25.5506px;">К-34</text>
</svg>