<svg xmlns="http://www.w3.org/2000/svg" viewBox="-382.335 270.375 1582.335 229.625">
  <rect x="-241" y="351.107" width="50" height="125" fill="rgb(240,245,242)" stroke="#DAE5DF" stroke-width="2" style="stroke-width: 2;"></rect>
  <rect x="-322.03" y="319.577" width="31.025" height="62" fill="rgb(240,245,242)" stroke="#DAE5DF" stroke-width="2" style="stroke-width: 2;"></rect>
  <text x="-305.89" y="352.913" font-size="11" fill="#29332D" text-anchor="middle" dominant-baseline="middle" style="white-space: pre; stroke-width: 1; font-size: 11px;">КП</text>
  <rect x="-344.03" y="381.332" width="53.028" height="94.819" fill="rgb(240,245,242)" stroke="#DAE5DF" stroke-width="2" style="stroke-width: 2;"></rect>
  <text x="-325.98" y="395.621" font-size="9" fill="#29332D" text-anchor="middle" dominant-baseline="middle" transform="matrix(0, -1, 1, 0, -711.54364, 102.3144)" style="white-space: pre; stroke-width: 1; font-size: 9px;">Контролер</text>
  <rect x="-290.52" y="351.104" width="50" height="125" fill="rgb(240,245,242)" stroke="#DAE5DF" stroke-width="2" style="stroke-width: 2;"></rect>
  <text x="80" y="82" font-size="11" fill="#29332D" text-anchor="middle" dominant-baseline="middle" transform="matrix(0, -1, 1, 0, -347.525299, 493.104675)" style="white-space: pre; stroke-width: 1; font-size: 11px;">П-460</text>
  <text x="-224.92" y="382.805" font-size="11" fill="#29332D" text-anchor="middle" dominant-baseline="middle" transform="matrix(0, -1, 1, 0, -597.657898, 186.669022)" style="white-space: pre; stroke-width: 1; font-size: 11px;">П-461</text>
  <rect x="-191" y="351.132" width="50" height="125" fill="rgb(240,245,242)" stroke="#DAE5DF" stroke-width="2" style="stroke-width: 2;"></rect>
  <text x="230" y="82" font-size="11" fill="#29332D" text-anchor="middle" dominant-baseline="middle" transform="matrix(0, -1, 1, 0, -245.69223, 641.353149)" style="white-space: pre; stroke-width: 1; font-size: 11px;">П-450</text>
  <rect x="-140.44" y="351.104" width="100" height="125" fill="rgb(240,245,242)" stroke="#DAE5DF" stroke-width="2" style="stroke-width: 2;"></rect>
  <text x="-88.401" y="413.396" font-size="11" fill="#29332D" text-anchor="middle" dominant-baseline="middle" style="white-space: pre; stroke-width: 1; font-size: 11px;">П-451</text>
  <rect x="-39.861" y="351.104" width="100" height="125" fill="rgb(240,245,242)" stroke="#DAE5DF" stroke-width="2" style="stroke-width: 2;"></rect>
  <text x="13.35" y="412.228" font-size="11" fill="#29332D" text-anchor="middle" dominant-baseline="middle" style="white-space: pre; stroke-width: 1; font-size: 11px;">П-75</text>
  <rect x="60.503" y="351.104" width="148.971" height="125" fill="rgb(240,245,242)" stroke="#DAE5DF" stroke-width="2" style="stroke-width: 2;"></rect>
  <text x="136.579" y="412.545" font-size="11" fill="#29332D" text-anchor="middle" dominant-baseline="middle" style="white-space: pre; stroke-width: 1; font-size: 11px;">П-76</text>
  <rect x="208.997" y="351.123" width="50" height="125" fill="rgb(240,245,242)" stroke="#DAE5DF" stroke-width="2" style="stroke-width: 2;"></rect>
  <text x="235.928" y="411.898" font-size="11" fill="#29332D" text-anchor="middle" dominant-baseline="middle" style="white-space: pre; stroke-width: 1; font-size: 11px;">П-78</text>
  <rect x="259.52" y="351.095" width="100" height="125" fill="rgb(240,245,242)" stroke="#DAE5DF" stroke-width="2" style="stroke-width: 2;"></rect>
  <text x="309.52" y="413.095" font-size="11" fill="#29332D" text-anchor="middle" dominant-baseline="middle" style="white-space: pre; stroke-width: 1; font-size: 11px;">П-79</text>
  <rect x="359.52" y="351.095" width="50" height="125" fill="rgb(240,245,242)" stroke="#DAE5DF" stroke-width="2" style="stroke-width: 2;"></rect>
  <text x="780" y="82" font-size="11" fill="#29332D" text-anchor="middle" dominant-baseline="middle" transform="matrix(0, -1, 1, 0, 302.520264, 1193.095093)" style="white-space: pre; stroke-width: 1; font-size: 11px;">П-80</text>
  <rect x="409.52" y="351.095" width="50" height="125" fill="rgb(240,245,242)" stroke="#DAE5DF" stroke-width="2" style="stroke-width: 2;"></rect>
  <text x="830" y="82" font-size="11" fill="#29332D" text-anchor="middle" dominant-baseline="middle" transform="matrix(0, -1, 1, 0, 352.520264, 1243.095093)" style="white-space: pre; stroke-width: 1; font-size: 11px;">П-81</text>
  <rect x="459.52" y="351.095" width="50" height="125" fill="rgb(240,245,242)" stroke="#DAE5DF" stroke-width="2" style="stroke-width: 2;"></rect>
  <text x="880" y="82" font-size="11" fill="#29332D" text-anchor="middle" dominant-baseline="middle" transform="matrix(0, -1, 1, 0, 402.520264, 1293.095093)" style="white-space: pre; stroke-width: 1; font-size: 11px;">П-82</text>
  <rect x="509.52" y="351.095" width="50" height="125" fill="rgb(240,245,242)" stroke="#DAE5DF" stroke-width="2" style="stroke-width: 2;"></rect>
  <text x="930" y="82" font-size="11" fill="#29332D" text-anchor="middle" dominant-baseline="middle" transform="matrix(0, -1, 1, 0, 452.520264, 1343.095093)" style="white-space: pre; stroke-width: 1; font-size: 11px;">П-83</text>
  <rect x="559.52" y="351.095" width="50" height="125" fill="rgb(240,245,242)" stroke="#DAE5DF" stroke-width="2" style="stroke-width: 2;"></rect>
  <text x="980" y="82" font-size="11" fill="#29332D" text-anchor="middle" dominant-baseline="middle" transform="matrix(0, -1, 1, 0, 502.520294, 1393.095093)" style="white-space: pre; stroke-width: 1; font-size: 11px;">П-84</text>
  <rect x="609.52" y="351.095" width="100" height="125" fill="rgb(240,245,242)" stroke="#DAE5DF" stroke-width="2" style="stroke-width: 2;"></rect>
  <text x="659.52" y="413.095" font-size="11" fill="#29332D" text-anchor="middle" dominant-baseline="middle" style="white-space: pre; stroke-width: 1; font-size: 11px;">П-85</text>
  <rect x="709.52" y="351.095" width="50" height="125" fill="rgb(240,245,242)" stroke="#DAE5DF" stroke-width="2" style="stroke-width: 2;"></rect>
  <text x="1130" y="82" font-size="11" fill="#29332D" text-anchor="middle" dominant-baseline="middle" transform="matrix(0, -1, 1, 0, 652.520264, 1543.095093)" style="white-space: pre; stroke-width: 1; font-size: 11px;">П-86</text>
  <rect x="759.52" y="351.095" width="50" height="125" fill="rgb(240,245,242)" stroke="#DAE5DF" stroke-width="2" style="stroke-width: 2;"></rect>
  <text x="1180" y="82" font-size="11" fill="#29332D" text-anchor="middle" dominant-baseline="middle" transform="matrix(0, -1, 1, 0, 702.520264, 1593.095093)" style="white-space: pre; stroke-width: 1; font-size: 11px;">П-87</text>
  <rect x="809.52" y="351.095" width="50" height="125" fill="rgb(240,245,242)" stroke="#DAE5DF" stroke-width="2" style="stroke-width: 2;"></rect>
  <text x="1230" y="82" font-size="11" fill="#29332D" text-anchor="middle" dominant-baseline="middle" transform="matrix(0, -1, 1, 0, 752.520264, 1643.095093)" style="white-space: pre; stroke-width: 1; font-size: 11px;">П-88</text>
  <rect x="859.52" y="351.095" width="50" height="125" fill="rgb(240,245,242)" stroke="#DAE5DF" stroke-width="2" style="stroke-width: 2;"></rect>
  <text x="1280" y="82" font-size="11" fill="#29332D" text-anchor="middle" dominant-baseline="middle" transform="matrix(0, -1, 1, 0, 802.520264, 1693.095093)" style="white-space: pre; stroke-width: 1; font-size: 11px;">П-196</text>
  <rect x="909.52" y="351.095" width="50" height="125" fill="rgb(240,245,242)" stroke="#DAE5DF" stroke-width="2" style="stroke-width: 2;"></rect>
  <text x="1330" y="82" font-size="11" fill="#29332D" text-anchor="middle" dominant-baseline="middle" transform="matrix(0, -1, 1, 0, 852.520264, 1743.095093)" style="white-space: pre; stroke-width: 1; font-size: 11px;">П-89</text>
  <rect x="959.527" y="351.095" width="50" height="125" fill="rgb(240,245,242)" stroke="#DAE5DF" stroke-width="2" style="stroke-width: 2;"></rect>
  <text x="1380" y="82" font-size="11" fill="#29332D" text-anchor="middle" dominant-baseline="middle" transform="matrix(0, -1, 1, 0, 902.520264, 1793.095093)" style="white-space: pre; stroke-width: 1; font-size: 11px;">П-90</text>
  <rect x="1009.52" y="351.095" width="100" height="125" fill="rgb(240,245,242)" stroke="#DAE5DF" stroke-width="2" style="stroke-width: 2;"></rect>
  <text x="1059.52" y="413.095" font-size="11" fill="#29332D" text-anchor="middle" dominant-baseline="middle" style="white-space: pre; stroke-width: 1; font-size: 11px;">П-91</text>
  <rect x="1109.52" y="351.095" width="50" height="125" fill="rgb(240,245,242)" stroke="#DAE5DF" stroke-width="2" style="stroke-width: 2;"></rect>
  <text x="1530" y="82" font-size="11" fill="#29332D" text-anchor="middle" dominant-baseline="middle" transform="matrix(0, -1, 1, 0, 1052.520386, 1943.094971)" style="white-space: pre; stroke-width: 1; font-size: 11px;">П-499</text>
</svg>