<svg xmlns="http://www.w3.org/2000/svg" viewBox="639.193 1444.982 300.189 897.195">
  <defs></defs>
  <rect x="361.875" width="36" height="31" fill="rgb(240,245,242)" stroke="#DAE5DF" stroke-width="2" style="stroke-width: 2; transform-origin: 780.898px 1889px;" y="1778.1" transform="matrix(0, 1, -1, 0, -0.001526, 0.000549)"></rect>
  <rect x="361.795" y="1808.54" width="36" height="42.507" fill="rgb(240,245,242)" stroke="#DAE5DF" stroke-width="2" style="stroke-width: 2; transform-origin: 780.898px 1889px;" transform="matrix(0, 1, -1, 0, -0.001526, 0.000549)"></rect>
  <text x="380.515" y="1794.07" font-size="10" fill="#29332D" text-anchor="middle" dominant-baseline="middle" style="white-space: pre; stroke-width: 1; font-size: 10px; transform-origin: 780.898px 1889px;" transform="matrix(0, 1, -1, 0, -0.001526, 0.000549)">93</text>
  <text x="381.145" y="1830.38" font-size="10" fill="#29332D" text-anchor="middle" dominant-baseline="middle" style="white-space: pre; stroke-width: 1; font-size: 10px; transform-origin: 780.898px 1889px;" transform="matrix(0, 1, -1, 0, -0.001526, 0.000549)">4</text>
  <rect x="361.975" y="1851.16" width="36" height="56" fill="rgb(240,245,242)" stroke="#DAE5DF" stroke-width="2" style="stroke-width: 2; transform-origin: 780.898px 1889px;" transform="matrix(0, 1, -1, 0, -0.001526, 0.000549)"></rect>
  <rect x="361.975" y="1907.02" width="36" height="56" fill="rgb(240,245,242)" stroke="#DAE5DF" stroke-width="2" style="stroke-width: 2; transform-origin: 780.898px 1889px;" transform="matrix(0, 1, -1, 0, -0.001526, 0.000549)"></rect>
  <text x="381.145" y="1880.64" font-size="10" fill="#29332D" text-anchor="middle" dominant-baseline="middle" style="white-space: pre; stroke-width: 1; font-size: 10px; transform-origin: 780.898px 1889px;" transform="matrix(0, 1, -1, 0, -0.001526, 0.000549)">5</text>
  <text x="381.145" y="1933.42" font-size="10" fill="#29332D" text-anchor="middle" dominant-baseline="middle" style="white-space: pre; stroke-width: 1; font-size: 10px; transform-origin: 780.898px 1889px;" transform="matrix(0, 1, -1, 0, -0.001526, 0.000549)">6</text>
  <rect x="398.115" y="1808" width="125" height="155" fill="rgb(240,245,242)" stroke="#DAE5DF" stroke-width="2" style="stroke-width: 2; transform-origin: 780.898px 1889px;" transform="matrix(0, 1, -1, 0, -0.001526, 0.000549)"></rect>
  <text x="460.115" y="1885" font-size="11" fill="#29332D" text-anchor="middle" dominant-baseline="middle" style="white-space: pre; stroke-width: 1; font-size: 11px; transform-origin: 780.898px 1889px;" transform="matrix(0, 1, -1, 0, -0.001526, 0.000549)">П-29</text>
  <rect x="523.115" y="1808" width="50" height="155" fill="rgb(240,245,242)" stroke="#DAE5DF" stroke-width="2" style="stroke-width: 2; transform-origin: 780.898px 1889px;" transform="matrix(0, 1, -1, 0, -0.001526, 0.000549)"></rect>
  <text x="784.902" y="1656.22" font-size="11" fill="#29332D" text-anchor="middle" dominant-baseline="middle" style="white-space: pre; stroke-width: 1; font-size: 11px; transform-origin: 780.898px 1889px;">П-28</text>
  <rect x="573.115" y="1808" width="100" height="155" fill="rgb(240,245,242)" stroke="#DAE5DF" stroke-width="2" style="stroke-width: 2; transform-origin: 780.898px 1889px;" transform="matrix(0, 1, -1, 0, -0.001526, 0.000549)"></rect>
  <text x="623.115" y="1885" font-size="11" fill="#29332D" text-anchor="middle" dominant-baseline="middle" style="white-space: pre; stroke-width: 1; font-size: 11px; transform-origin: 780.898px 1889px;" transform="matrix(0, 1, -1, 0, -0.001526, 0.000549)">П-27</text>
  <rect x="673.115" y="1808" width="100" height="155" fill="rgb(240,245,242)" stroke="#DAE5DF" stroke-width="2" style="stroke-width: 2; transform-origin: 780.898px 1889px;" transform="matrix(0, 1, -1, 0, -0.001526, 0.000549)"></rect>
  <text x="723.115" y="1885" font-size="11" fill="#29332D" text-anchor="middle" dominant-baseline="middle" style="white-space: pre; stroke-width: 1; font-size: 11px; transform-origin: 780.898px 1889px;" transform="matrix(0, 1, -1, 0, -0.001526, 0.000549)">П-26</text>
  <rect x="773.115" y="1808" width="100" height="155" fill="rgb(240,245,242)" stroke="#DAE5DF" stroke-width="2" style="stroke-width: 2; transform-origin: 780.898px 1889px;" transform="matrix(0, 1, -1, 0, -0.001526, 0.000549)"></rect>
  <text x="823.115" y="1885" font-size="11" fill="#29332D" text-anchor="middle" dominant-baseline="middle" style="white-space: pre; stroke-width: 1; font-size: 11px; transform-origin: 780.898px 1889px;" transform="matrix(0, 1, -1, 0, -0.001526, 0.000549)">П-25</text>
  <rect x="873.116" y="1808" width="100" height="155" fill="rgb(240,245,242)" stroke="#DAE5DF" stroke-width="2" style="stroke-width: 2; transform-origin: 780.898px 1889px;" transform="matrix(0, 1, -1, 0, -0.001526, 0.000549)"></rect>
  <text x="923.116" y="1885" font-size="11" fill="#29332D" text-anchor="middle" dominant-baseline="middle" style="white-space: pre; stroke-width: 1; font-size: 11px; transform-origin: 780.898px 1889px;" transform="matrix(0, 1, -1, 0, -0.001526, 0.000549)">П-24</text>
  <rect x="973.116" y="1808" width="50" height="155" fill="rgb(240,245,242)" stroke="#DAE5DF" stroke-width="2" style="stroke-width: 2; transform-origin: 780.898px 1889px;" transform="matrix(0, 1, -1, 0, -0.001526, 0.000549)"></rect>
  <text x="784.902" y="2106.22" font-size="11" fill="#29332D" text-anchor="middle" dominant-baseline="middle" style="white-space: pre; stroke-width: 1; font-size: 11px; transform-origin: 780.898px 1889px;">П-23</text>
  <rect x="1023.12" y="1808" width="140" height="155" fill="rgb(240,245,242)" stroke="#DAE5DF" stroke-width="2" style="stroke-width: 2; transform-origin: 780.898px 1889px;" transform="matrix(0, 1, -1, 0, -0.001526, 0.000549)"></rect>
  <text x="1093.12" y="1885" font-size="11" fill="#29332D" text-anchor="middle" dominant-baseline="middle" style="white-space: pre; stroke-width: 1; font-size: 11px; transform-origin: 780.898px 1889px;" transform="matrix(0, 1, -1, 0, -0.001526, 0.000549)">П-22</text>
  <rect x="1163.9" y="1778" width="36" height="31" fill="rgb(240,245,242)" stroke="#DAE5DF" stroke-width="2" style="stroke-width: 2; transform-origin: 780.898px 1889px;" transform="matrix(0, 1, -1, 0, -0.001526, 0.000549)"></rect>
  <text x="1182.58" y="1793.88" font-size="10" fill="#29332D" text-anchor="middle" dominant-baseline="middle" style="white-space: pre; stroke-width: 1; font-size: 10px; transform-origin: 780.898px 1889px;" transform="matrix(0, 1, -1, 0, -0.001526, 0.000549)">95</text>
  <rect x="1163.82" y="1808.45" width="36" height="42.507" fill="rgb(240,245,242)" stroke="#DAE5DF" stroke-width="2" style="stroke-width: 2; transform-origin: 780.898px 1889px;" transform="matrix(0, 1, -1, 0, -0.001526, 0.000549)"></rect>
  <text x="1181.14" y="1829.45" font-size="10" fill="#29332D" text-anchor="middle" dominant-baseline="middle" style="white-space: pre; stroke-width: 1; font-size: 10px; transform-origin: 780.898px 1889px;" transform="matrix(0, 1, -1, 0, -0.001526, 0.000549)">3</text>
  <rect x="1164" y="1851.06" width="36" height="56" fill="rgb(240,245,242)" stroke="#DAE5DF" stroke-width="2" style="stroke-width: 2; transform-origin: 780.898px 1889px;" transform="matrix(0, 1, -1, 0, -0.001526, 0.000549)"></rect>
  <text x="1181.14" y="1880.64" font-size="10" fill="#29332D" text-anchor="middle" dominant-baseline="middle" style="white-space: pre; stroke-width: 1; font-size: 10px; transform-origin: 780.898px 1889px;" transform="matrix(0, 1, -1, 0, -0.001526, 0.000549)">2</text>
  <rect x="1164" y="1906.93" width="36" height="56" fill="rgb(240,245,242)" stroke="#DAE5DF" stroke-width="2" style="stroke-width: 2; transform-origin: 780.898px 1889px;" transform="matrix(0, 1, -1, 0, -0.001526, 0.000549)"></rect>
  <text x="1181.14" y="1935.04" font-size="10" fill="#29332D" text-anchor="middle" dominant-baseline="middle" style="white-space: pre; stroke-width: 1; font-size: 10px; transform-origin: 780.898px 1889px;" transform="matrix(0, 1, -1, 0, -0.001526, 0.000549)">1</text>
  <rect x="1075.52" y="1963" width="124.385" height="37" fill="rgb(240,245,242)" stroke="#DAE5DF" stroke-width="2" style="stroke-width: 2; transform-origin: 780.898px 1889px;" transform="matrix(0, 1, -1, 0, -0.001526, 0.000549)"></rect>
  <text x="1138.89" y="1983.53" font-size="11" fill="#29332D" text-anchor="middle" dominant-baseline="middle" style="white-space: pre; stroke-width: 1; font-size: 11px; transform-origin: 780.898px 1889px;" transform="matrix(0, 1, -1, 0, -0.001526, 0.000549)">П-486</text>
</svg>